<svg width="100%" height="100%" viewBox="0 0 287 313" fill="none" xmlns="http://www.w3.org/2000/svg">
<path d="M1 0.99995H142.625L161.948 20.2914L142.619 38.5503H1V0.99995Z" fill="#009036"/>
<path d="M1 0.99995H142.625L161.948 20.2914L142.619 38.5503H1V0.99995Z" stroke="#009036" stroke-width="1.20659" stroke-miterlimit="3.864"/>
<path d="M1 46.6085H163.757L183.078 65.8979L163.751 84.1567H1V46.6085Z" fill="#58AB27"/>
<path d="M1 46.6085H163.757L183.078 65.8979L163.751 84.1567H1V46.6085Z" stroke="#58AB27" stroke-width="1.20659" stroke-miterlimit="3.864"/>
<path d="M1 137.517H202.949L222.272 156.806L202.942 175.065H1V137.517Z" fill="#FFEC00"/>
<path d="M1 137.517H202.949L222.272 156.806L202.942 175.065H1V137.517V137.517Z" stroke="#FFEC00" stroke-width="1.20659" stroke-miterlimit="3.864"/>
<path d="M1 182.99H226.123L245.444 202.28L226.117 220.539H1V182.99Z" fill="#FECC00"/>
<path d="M1 182.99H226.123L245.444 202.28L226.117 220.539H1V182.99V182.99Z" stroke="#FECC00" stroke-width="1.20659" stroke-miterlimit="3.864"/>
<path d="M1 228.476H247.595L266.916 247.765L247.587 266.024H1V228.476Z" fill="#F29400"/>
<path d="M1 228.476H247.595L266.916 247.765L247.587 266.024H1V228.476Z" stroke="#F29400" stroke-width="1.20659" stroke-miterlimit="3.864"/>
<path d="M1 274.017H266.681L286 293.306L266.673 311.565H1V274.017Z" fill="#E2001A"/>
<path d="M1 274.017H266.681L286 293.306L266.673 311.565H1V274.017V274.017Z" stroke="#E2001A" stroke-width="1.20659" stroke-miterlimit="3.864"/>
<path d="M1 92.7775H183.522L202.845 112.065L183.516 130.324H1V92.7775Z" fill="#B1C800"/>
<path d="M1 92.7775H183.522L202.845 112.065L183.516 130.324H1V92.7775V92.7775Z" stroke="#B1C800" stroke-width="1.20659" stroke-miterlimit="3.864"/>
<path d="M261.133 281.318C263.532 282.576 265 284.781 265.541 287.933H262.297C261.905 286.172 261.087 284.89 259.847 284.092C258.608 283.283 257.047 282.878 255.162 282.878C252.929 282.878 251.04 283.714 249.507 285.389C247.984 287.063 247.223 289.557 247.223 292.874C247.223 295.742 247.851 298.077 249.111 299.883C250.376 301.678 252.428 302.573 255.279 302.573C257.459 302.573 259.262 301.946 260.687 300.687C262.123 299.418 262.855 297.372 262.893 294.549H255.327V291.84H265.932V304.742H263.83L263.041 301.64C261.929 302.854 260.951 303.696 260.095 304.167C258.659 304.976 256.836 305.381 254.621 305.381C251.759 305.381 249.297 304.456 247.24 302.607C244.991 300.288 243.868 297.104 243.868 293.054C243.868 289.016 244.964 285.805 247.157 283.419C249.238 281.144 251.937 280.004 255.245 280.004C257.514 280.004 259.475 280.443 261.133 281.318Z" fill="white"/>
<path d="M230.381 236.675H247.132V239.629H233.653V246.95H245.506V249.824H233.653V260.787H230.381V236.675Z" fill="white"/>
<path d="M208.035 189.762H225.643V192.718H211.225V200.037H224.558V202.829H211.225V211.003H225.89V213.876H208.035V189.762Z" fill="white"/>
<path d="M180.006 102.206C181.694 103.816 182.631 105.644 182.817 107.69H179.628C179.266 106.136 178.543 104.905 177.458 103.995C176.383 103.089 174.871 102.633 172.919 102.633C170.542 102.633 168.617 103.471 167.149 105.146C165.692 106.81 164.962 109.363 164.962 112.811C164.962 115.634 165.62 117.927 166.935 119.688C168.262 121.439 170.235 122.315 172.853 122.315C175.264 122.315 177.1 121.39 178.361 119.541C179.029 118.567 179.528 117.285 179.858 115.7H183.048C182.762 118.24 181.819 120.366 180.22 122.085C178.302 124.152 175.715 125.187 172.46 125.187C169.653 125.187 167.297 124.338 165.389 122.643C162.879 120.4 161.625 116.937 161.625 112.254C161.625 108.698 162.568 105.779 164.452 103.505C166.491 101.03 169.302 99.7952 172.887 99.7952C175.945 99.7952 178.316 100.6 180.006 102.206Z" fill="white"/>
<path fill-rule="evenodd" clip-rule="evenodd" d="M129.341 7.04403H133.04L141.802 31.1562H138.22L135.768 23.9346H126.217L123.602 31.1562H120.248L129.341 7.04403ZM134.717 21.274L131.05 10.621L127.154 21.274H134.717Z" fill="white"/>
<path fill-rule="evenodd" clip-rule="evenodd" d="M142.34 53.3326H152.714C155.542 53.3326 157.553 54.1751 158.748 55.8602C159.448 56.8568 159.8 58.0055 159.802 59.3083C159.802 60.8287 159.366 62.0767 158.501 63.0501C158.052 63.5654 157.405 64.0362 156.561 64.4627C157.801 64.9315 158.727 65.4636 159.341 66.0549C160.426 67.1044 160.967 68.555 160.967 70.4048C160.967 71.9589 160.481 73.3631 159.503 74.6216C158.046 76.5052 155.728 77.4448 152.549 77.4448H142.34V53.3326ZM152.6 74.6554C154.605 74.6554 156.035 74.0769 156.891 72.9155C157.426 72.1828 157.695 71.2958 157.695 70.2548C157.695 68.5043 156.912 67.3134 155.345 66.6778C154.512 66.3399 153.41 66.169 152.041 66.169H145.544V74.6554H152.6ZM151.498 63.5252C152.879 63.5252 153.951 63.3352 154.721 62.953C155.925 62.3491 156.528 61.2679 156.53 59.7011C156.53 58.1258 155.887 57.0638 154.605 56.5169C153.882 56.2107 152.807 56.0586 151.384 56.0565H145.544V63.5252H151.498Z" fill="white"/>
<path fill-rule="evenodd" clip-rule="evenodd" d="M181.899 144.108H191.681C195.004 144.108 197.578 145.284 199.41 147.636C201.043 149.758 201.859 152.478 201.859 155.793C201.859 158.354 201.377 160.669 200.412 162.736C198.714 166.391 195.793 168.22 191.65 168.22H181.899V144.108ZM191.026 165.428C192.132 165.428 193.041 165.314 193.754 165.084C195.025 164.658 196.066 163.836 196.878 162.622C197.523 161.648 197.991 160.401 198.274 158.88C198.439 157.972 198.522 157.13 198.522 156.351C198.522 153.365 197.923 151.044 196.73 149.393C195.546 147.74 193.634 146.914 190.992 146.914H185.188V165.428H191.026H191.026Z" fill="white"/>
</svg>
