<svg width="100%" height="100%" viewBox="0 0 533 272" fill="none" xmlns="http://www.w3.org/2000/svg">
<path d="M124.471 25.4628C124.28 23.9523 123.894 22.473 123.321 21.062C123.248 20.7951 123.121 20.5464 122.946 20.3317C122.772 20.1169 122.555 19.9408 122.308 19.8146C121.979 19.7291 121.634 19.7252 121.303 19.8034L116.142 20.5928C115.71 20.6125 115.296 20.7732 114.964 21.0502C114.292 21.7569 114.954 22.8948 114.934 23.8697C114.91 24.966 113.936 25.8559 112.879 26.1503C111.801 26.3682 110.688 26.3544 109.615 26.1098L102.399 24.9888C104.524 24.3105 106.416 23.0485 107.858 21.3469C108.808 20.2222 109.313 18.1225 107.94 17.59C107.533 17.4781 107.107 17.444 106.687 17.4894C103.417 17.5148 100.844 14.7858 97.7834 13.6365C95.8243 12.9484 93.6978 12.8972 91.7078 13.4902C89.7179 14.0832 87.9664 15.29 86.704 16.9381L90.5484 17.1234C90.9101 17.1034 91.2688 17.199 91.5725 17.3964C92.415 18.0884 91.3675 19.4175 91.4862 20.501C91.6404 21.9088 93.5103 22.2094 94.9198 22.3517C96.3294 22.4941 98.1175 23.6389 97.4395 24.8824C90.355 27.3217 83.1458 20.114 75.7055 21.0013C73.8224 21.2258 72.0443 21.9653 70.2058 22.4303C58.9749 25.2708 47.3641 17.692 35.8912 19.297C33.3406 19.7317 30.8338 20.3926 28.4005 21.2719C26.839 21.7844 25.2103 22.3383 24.0757 23.5269C22.9412 24.7155 22.5093 26.7483 23.5842 27.9911C20.6217 28.235 17.6394 27.9516 14.7759 27.1542C15.5502 27.5844 16.1944 28.2152 16.6408 28.9801C17.0872 29.7451 17.3194 30.6161 17.3129 31.5017C12.6873 32.2557 8.18422 33.6282 3.9247 35.5824C4.71969 36.904 5.64824 38.1404 6.69575 39.2725L0.839844 43.0332C2.81825 43.5315 3.84113 46.2282 2.69062 47.9125C4.742 47.0002 6.01335 44.6402 8.20696 44.1618C9.64406 43.8483 11.1064 44.436 12.4697 44.9881C13.833 45.5401 15.3314 46.0754 16.7427 45.6611C18.154 45.2468 19.195 43.4175 18.2982 42.2519C24.3306 40.4926 30.5649 39.5189 36.8466 39.3551C37.3312 39.2943 37.8227 39.3875 38.2514 39.6216C39.0691 40.1887 38.8539 41.4136 38.8099 42.4075C38.7658 43.4015 39.5408 44.7077 40.4294 44.2597C39.3839 45.166 40.2777 46.8721 41.2807 47.8251C42.2837 48.778 43.4927 50.093 42.8786 51.3326C42.7183 51.6562 42.4465 51.9151 42.2923 52.2415C41.8371 53.2052 42.5598 54.3287 43.4123 54.9686C44.2647 55.6086 45.3089 56.0558 45.901 56.942C46.4932 57.8282 46.2243 59.3793 45.1654 59.5031L42.1558 55.6832C41.1275 56.749 40.4226 58.0844 40.1227 59.5345C43.3142 62.1425 43.7942 67.4509 41.1223 70.5888C39.7569 72.1923 37.8152 73.1667 36.1205 74.4175C34.4258 75.6682 32.8577 77.4493 32.862 79.555C32.8693 83.193 32.572 86.5729 33.9357 89.9459C36.4505 96.1652 39.3539 102.22 42.6287 108.076C43.4887 109.613 44.6002 111.298 46.3423 111.563C44.1406 106.205 42.1586 100.764 40.3963 95.2388C41.5441 95.2433 42.8705 95.3344 43.5434 96.2639C44.1006 97.0337 43.9809 98.0802 44.154 99.0144C44.3742 99.9196 44.7414 100.782 45.241 101.569L55.755 120.291C56.6266 121.842 57.6263 123.508 59.2921 124.137C60.3571 124.539 61.5893 124.463 62.5696 125.042C63.3379 125.495 63.8554 126.3 64.6387 126.727C66.8536 127.935 69.9335 125.619 72.0033 127.061C72.5951 127.473 72.9716 128.128 73.5169 128.6C75.4286 130.255 78.5645 129.148 80.7713 130.382C82.1935 131.178 82.9306 132.769 83.6892 134.211C85.5894 137.823 88.664 141.362 92.7363 141.649C94.0155 141.74 95.3222 141.497 96.5725 141.782C97.823 142.066 99.0538 143.157 98.8531 144.423C98.509 146.594 99.5819 148.97 99.2937 151.149C98.7689 155.118 93.1376 156.862 92.6539 160.836C92.548 161.706 92.7138 162.604 92.5065 163.455C92.2525 164.499 91.4683 165.349 91.1897 166.387C90.6616 168.353 92.0707 170.309 93.6188 171.632C95.1668 172.955 97.0133 174.096 97.8597 175.947C98.7542 177.904 98.3148 180.186 98.6057 182.318C99.2409 186.973 103.262 190.423 107.401 192.648C108.662 193.326 110.016 193.982 110.832 195.158C111.898 196.693 111.792 198.716 112.147 200.55C113.018 205.042 116.801 208.742 116.908 213.316C116.985 216.567 115.177 219.516 114.097 222.583C113.085 225.522 112.718 228.645 113.023 231.738C113.328 234.831 114.296 237.823 115.862 240.508C116.67 241.871 117.636 243.157 118.208 244.635C119.228 247.273 118.897 250.271 119.837 252.939C121.08 256.465 124.496 259.377 124.169 263.102C125.72 266.321 129.144 267.903 132.587 268.861L138.758 270.578C139.94 270.907 141.175 271.238 142.378 271C143.581 270.762 144.729 269.763 144.698 268.538C141.672 267.856 138.549 267.13 136.054 265.287C133.56 263.443 131.851 260.16 132.797 257.207C133.236 255.838 134.17 254.256 133.282 253.125C132.774 252.477 131.844 252.308 131.271 251.717C130.377 250.795 130.684 249.246 131.327 248.134C131.97 247.022 132.899 246.029 133.158 244.771C133.289 244.067 133.202 243.34 132.908 242.688C132.614 242.035 132.127 241.488 131.513 241.12C132.657 240.688 133.698 240.021 134.567 239.161C135.371 238.244 135.742 236.83 135.11 235.788C136.986 236.026 139.202 236.142 140.433 234.707C141.417 233.562 141.349 231.848 140.961 230.389C140.572 228.93 139.915 227.513 139.895 226.004C144.223 226.209 148.562 226.062 152.866 225.564C152.244 223.468 150.829 221.697 148.923 220.626C150.872 220.297 152.648 217.963 153.264 216.085C153.88 214.207 153.723 212.161 153.343 210.221C153.196 209.722 153.176 209.194 153.284 208.685C153.504 207.986 154.191 207.559 154.827 207.194L164.504 201.638C165.082 201.349 165.605 200.962 166.052 200.496C167.066 199.305 166.916 197.508 166.396 196.033C165.877 194.559 165.046 193.172 164.846 191.621C164.248 186.983 169.214 183.656 170.89 179.29C171.548 177.577 171.682 175.715 171.809 173.884C171.946 171.918 171.956 169.634 170.446 168.367C168.998 167.153 166.736 167.424 165.221 166.294C163.832 165.258 163.353 163.246 161.836 162.41C160.458 161.65 158.731 162.133 157.198 161.776C154.5 161.147 152.802 158.038 150.046 157.75C148.491 157.588 146.732 158.348 145.457 157.443C144.335 156.645 144.29 155.042 144.076 153.682C143.701 151.568 142.688 149.619 141.171 148.098C139.655 146.578 137.709 145.558 135.596 145.177C133.993 144.92 132.248 145.018 130.884 144.137C129.503 143.245 128.87 141.576 127.785 140.341C126.037 138.351 123.283 137.644 120.704 137.037L110.213 134.572C108.35 134.134 105.95 133.902 104.95 135.533C104.654 136.154 104.445 136.812 104.328 137.49C103.953 138.716 103.199 139.792 102.175 140.563C101.15 141.333 99.9078 141.76 98.6257 141.78C97.7465 140.281 96.3219 139.179 94.6495 138.705C93.5856 138.408 92.4469 138.375 91.4323 137.939C90.8797 137.67 90.388 137.29 89.9872 136.824C89.5864 136.358 89.285 135.815 89.1014 135.228C88.9179 134.642 88.856 134.024 88.9196 133.412C88.9832 132.801 89.171 132.209 89.4714 131.673C90.0762 130.596 90.3098 129.351 90.1361 128.128C89.9624 126.906 89.391 125.774 88.5101 124.909C86.7259 123.308 84.145 122.921 81.7527 123.081C81.1261 121.714 82.1737 120.172 83.3027 119.179C84.4317 118.186 85.8026 117.209 86.0484 115.726C86.4352 113.393 83.4573 111.621 81.1963 112.317C78.9353 113.013 77.4923 115.208 76.5383 117.372C75.991 118.614 75.5257 119.921 74.6623 120.968C73.799 122.015 72.4086 122.765 71.0936 122.429C69.2318 121.953 68.5128 119.742 68.1008 117.866C67.548 115.348 66.9919 112.796 67.1077 110.222C67.2236 107.647 68.0918 105.003 69.991 103.26C73.0858 100.42 77.8335 100.699 82.0101 101.152C81.0234 100.04 81.2672 98.1674 82.323 97.1213C82.8804 96.6263 83.5501 96.2746 84.2741 96.0968C84.9982 95.919 85.7546 95.9204 86.478 96.1009C87.7366 96.3628 88.8704 97.0405 89.6968 98.0248C90.8837 99.4713 91.2213 101.424 92.1184 103.066C93.0155 104.708 95.0328 106.109 96.6839 105.228C98.11 104.467 98.3364 102.49 97.9815 100.914C97.6265 99.3371 96.8727 97.8041 97.0012 96.1933C97.2466 93.1196 100.434 91.2695 103.247 90.0037C106.059 88.7378 109.28 87.0354 109.725 83.9843C109.741 83.3869 109.853 82.7961 110.059 82.235C110.371 81.7395 110.805 81.3319 111.318 81.0512C119.527 75.6283 127.872 70.1392 137.255 67.176C137.743 67.0219 137.8 67.1932 138.298 67.0724C138.994 66.6702 138.532 65.5575 137.865 65.1092C137.197 64.661 136.305 64.3172 136.136 63.5314C136.011 62.9538 136.352 62.3866 136.44 61.8023C136.658 60.3667 134.94 59.0412 133.605 59.6151C132.852 58.6174 134.343 57.4581 135.549 57.1262C139.17 56.1301 142.886 55.5231 146.636 55.3157C147.069 55.2469 147.512 55.3223 147.898 55.5302C148.528 55.9663 148.447 56.9665 148.001 57.589C147.554 58.2115 146.86 58.6023 146.304 59.129C145.696 59.7208 145.263 60.468 145.051 61.2892C144.839 62.1104 144.857 62.974 145.103 63.7858C147.06 64.7812 149.188 65.8058 151.356 65.4552C153.524 65.1045 155.449 62.6694 154.43 60.7246C153.481 58.9135 150.63 58.5051 150.14 56.5202C149.566 54.1962 152.857 52.1293 152.116 49.8532C151.791 48.8562 150.797 48.2695 150.034 47.5496C149.133 46.6671 148.521 45.5329 148.277 44.2959C148.032 43.0589 148.168 41.7771 148.666 40.6186C147.423 40.8371 146.147 40.7546 144.943 40.378C143.739 40.0014 142.643 39.3417 141.747 38.4543C140.092 36.7848 138.772 34.1512 136.422 34.2259C134.265 34.2944 132.408 36.8094 130.392 36.0421C129.896 35.8533 129.372 35.4691 128.892 35.6943C128.734 35.7965 128.602 35.9332 128.505 36.094C128.408 36.2548 128.349 36.4356 128.332 36.6225C127.82 39.0716 128.701 41.862 127.366 43.9782C125.913 46.2811 122.552 46.6004 120.791 48.6771C119.835 49.8044 119.464 51.3234 118.585 52.5118C117.706 53.7003 115.841 54.4559 114.786 53.4202C115.304 52.3549 115.446 51.1453 115.188 49.9891C114.929 48.833 114.286 47.7986 113.363 47.0551C112.384 46.4165 111.329 45.9032 110.221 45.5274C108.984 45.0039 107.807 44.3482 106.711 43.5717C106.162 43.2406 105.716 42.7634 105.422 42.1934C105.19 41.4796 105.222 40.7064 105.511 40.0137C106.045 38.4808 106.989 37.1231 108.239 36.0871C109.49 35.0511 110.999 34.3762 112.606 34.1352C114.01 33.9442 115.644 34.0115 116.574 32.9418C117.066 32.3759 117.324 31.5202 118.037 31.2903C118.494 31.1986 118.968 31.257 119.389 31.4566L124.631 33.301C125.216 33.565 125.859 33.6714 126.498 33.6098C126.815 33.5671 127.104 33.4063 127.307 33.1596C127.51 32.913 127.612 32.5986 127.593 32.2798C127.425 31.4096 126.086 30.992 126.208 30.1143C126.276 29.8298 126.429 29.5728 126.646 29.3771C128.538 27.3643 130.852 25.7946 133.421 24.7802C135.991 23.7658 138.753 23.3319 141.51 23.5096C142.172 24.5958 141.126 25.8821 140.255 26.8093C139.384 27.7366 138.685 29.3935 139.737 30.1072C140.169 30.3274 140.649 30.4354 141.133 30.4214C142.424 30.5961 143.678 30.9763 144.848 31.5478C146.659 32.3358 148.436 33.198 150.178 34.1344C150.024 32.9863 149.877 31.7768 150.313 30.7033C150.748 29.6299 151.985 28.7879 153.066 29.2059C154.107 29.6088 154.641 30.9873 155.751 31.1136C157.231 31.2821 157.815 29.0963 157.197 27.7415C156.578 26.3867 155.354 25.2523 155.252 23.7667C155.183 22.7645 155.565 21.5215 154.764 20.9146C154.479 20.7324 154.156 20.619 153.819 20.5834L133.822 16.9049C132.635 16.6865 130.919 16.8539 130.866 18.0597C130.837 18.7328 131.439 19.3987 131.172 20.0175C130.888 20.678 129.954 20.6176 129.274 20.8512C128.218 21.2137 127.688 22.4666 127.79 23.5777C127.975 24.6817 128.403 25.731 129.042 26.6503C127.742 26.1065 125.772 26.0066 124.471 25.4628Z" fill="#114B5F"/>
<path d="M108.516 8.49378C107.255 8.07663 105.896 8.0572 104.624 8.43813C103.351 8.81905 102.227 9.58189 101.403 10.6232C101.074 11.0566 100.797 11.654 101.073 12.1233C101.468 12.796 102.475 12.5303 103.217 12.2897C104.308 11.9 105.496 11.8716 106.605 12.2089C107.302 12.4481 107.925 12.871 108.626 13.1012C108.966 13.2437 109.34 13.2908 109.705 13.2374C110.071 13.184 110.415 13.0321 110.701 12.7981C111.181 12.3082 111.211 11.5466 111.212 10.8604C111.246 10.6309 111.227 10.3967 111.158 10.1752C111.09 9.95359 110.972 9.75014 110.815 9.57968C110.535 9.41741 110.22 9.32429 109.896 9.30806C109.172 9.17401 108.517 8.79147 108.044 8.22641" fill="#114B5F"/>
<path d="M115.727 6.48779C115.444 6.47243 115.163 6.52989 114.909 6.65467C114.656 6.77945 114.439 6.96734 114.279 7.20027C114.119 7.4332 114.022 7.70334 113.996 7.98471C113.971 8.26608 114.019 8.54922 114.134 8.8069C115.001 9.04316 115.907 9.10218 116.797 8.98041C117.24 8.91152 117.654 8.71282 117.985 8.40935C118.316 8.10587 118.55 7.71122 118.657 7.27511C117.609 7.46572 116.528 7.25929 115.624 6.69607" fill="#114B5F"/>
<path d="M139.919 3.13624C137.56 3.63755 135.268 4.41563 133.092 5.45431C134.118 5.84851 134.99 6.56171 135.58 7.48883C136.17 8.41595 136.446 9.50793 136.368 10.6038C136.276 11.0246 136.287 11.4613 136.399 11.877C136.65 12.4846 137.376 12.7126 138.015 12.8685C139.162 13.2176 140.361 13.3705 141.559 13.3207C142.159 13.2894 142.741 13.1091 143.253 12.7962C143.765 12.4833 144.191 12.0477 144.493 11.5287C144.666 11.0362 144.87 10.5547 145.103 10.0871C146.634 7.75639 151.182 10.5746 152.825 8.32191C153.404 7.52837 153.351 6.33389 154.106 5.70509C154.497 5.43113 154.949 5.25851 155.423 5.20277C158.728 4.54629 162.067 4.07092 165.425 3.77882C167.016 3.64044 169.089 3.06943 169.102 1.47327C163.11 0.29691 156.898 1.13241 151.43 3.84986C149.46 4.83623 146.854 6.91108 144.956 5.6034C144.246 5.11378 144.281 3.79536 143.303 3.24479C142.303 2.68191 140.98 2.91084 139.919 3.13624Z" fill="#114B5F"/>
<path d="M159.514 6.79904L162.327 7.3393C161.809 7.31638 161.292 7.40409 160.811 7.59659C160.33 7.78909 159.895 8.08194 159.536 8.45562C159.177 8.82929 158.902 9.2752 158.729 9.76357C158.556 10.252 158.49 10.7716 158.534 11.2878C161.168 12.1674 164.039 11.3114 166.814 11.4284C169.588 11.5453 172.817 13.5265 172.343 16.2619C172.2 17.089 171.722 17.9155 171.97 18.7173C172.145 19.2792 172.64 19.678 172.92 20.1955C173.503 21.274 173.037 22.6382 172.301 23.6186C171.565 24.599 170.575 25.3812 169.929 26.4231C168.321 29.0144 169.234 32.3645 170.192 35.2594C170.469 36.3533 170.98 37.374 171.69 38.2509C173.109 39.7587 175.421 39.8899 177.492 39.9201C178.999 39.9421 180.725 39.8676 181.678 38.7005C182.922 37.1766 182.052 34.7991 182.871 33.0107C183.615 31.3864 185.511 30.6896 187.228 30.1954C190.374 29.29 193.581 28.5203 196.555 27.1527C200.248 25.4545 203.7 22.808 207.759 22.5895C208.898 22.5281 210.065 22.6625 211.162 22.3506C212.259 22.0386 213.302 21.0905 213.218 19.9535C213.147 18.9819 212.325 18.2685 211.683 17.5361C211.04 16.8037 210.536 15.6775 211.126 14.9026L221.766 12.9158C221.012 10.8611 220.425 8.15497 222.158 6.81751C222.783 6.33495 223.62 6.14208 224.153 5.55869C225.06 4.56437 224.604 2.85156 223.556 2.00595C222.509 1.16034 221.093 0.964034 219.751 0.852619C215.085 0.465284 210.393 0.721227 205.718 0.977369C196.58 1.47807 187.443 1.97877 178.305 2.47947C176.465 2.58026 174.341 2.42628 172.654 3.05362C171.226 3.58473 170.21 4.55964 168.577 4.90217C165.561 5.53451 162.243 5.10661 159.514 6.79904Z" fill="#114B5F"/>
<path d="M209.903 29.0238C209.616 28.9785 209.323 29.0449 209.084 29.2094C208.926 29.3834 208.832 29.606 208.818 29.8405C208.636 30.8756 208.852 31.941 209.423 32.8235C209.714 33.2564 210.115 33.6036 210.586 33.829C211.056 34.0544 211.578 34.1499 212.098 34.1054C213.364 33.944 214.298 32.8639 215.462 32.3369C217.257 31.5253 224.878 30.2601 219.606 27.413C217.789 26.4318 216.615 27.2979 215.183 27.9441C213.554 28.7773 211.728 29.1506 209.903 29.0238Z" fill="#114B5F"/>
<path d="M256.078 5.19158C255.463 5.44299 254.948 5.8911 254.614 6.46594C254.46 6.75782 254.424 7.09767 254.514 7.41516C254.604 7.73265 254.812 8.00348 255.096 8.17163C255.326 8.25497 255.57 8.29362 255.814 8.28551L258.317 8.36026C259.381 8.39202 260.709 8.6184 260.994 9.64274C261.207 10.4033 260.732 11.3807 261.305 11.9243C261.551 12.1146 261.846 12.2299 262.156 12.2562C262.981 12.468 263.842 12.4958 264.678 12.3376C266.499 11.8493 265.542 10.7382 266.116 9.74877C266.994 8.23495 266.842 9.15134 268.388 8.28373C269.53 7.643 271.006 6.48069 270.053 4.84763C268.395 2.00778 258.524 3.97159 256.078 5.19158Z" fill="#114B5F"/>
<path d="M305.482 3.76365L304.028 3.95753C300.751 4.39475 297.455 4.83598 294.298 5.81986C295.664 6.35993 297.098 6.71158 298.559 6.86514C299.364 6.90456 300.163 7.01811 300.946 7.20434C302.34 7.61925 303.745 8.69069 305.092 8.14184C305.928 7.80153 306.2 6.93221 306.892 6.4715C307.37 6.15337 309.182 5.63846 309.384 5.31737C311.022 2.72154 306.74 3.59573 305.482 3.76365Z" fill="#114B5F"/>
<path d="M311.864 10.3671C309.922 11.4523 308.121 12.7709 306.5 14.2936C305.817 14.9353 305.12 15.7334 305.182 16.6683C305.264 17.9108 306.588 18.6315 307.735 19.117L312.381 21.0835C312.945 20.2893 312.429 19.1931 311.847 18.4126C311.264 17.6322 310.572 16.7293 310.829 15.7901C311.123 14.7184 312.43 14.3532 313.526 14.1685C315.312 13.8677 320.13 13.8918 319.551 11.0146C318.869 7.62425 313.657 9.36533 311.864 10.3671Z" fill="#114B5F"/>
<path d="M310.93 202.228C310.487 203.508 310.445 205.016 311.21 206.134C312.069 207.388 313.787 207.855 315.274 207.537C316.754 207.143 318.074 206.295 319.046 205.112C319.936 204.121 320.668 203 321.216 201.786C321.982 199.895 322.522 197.92 322.825 195.903L324.267 188.332C324.59 186.639 324.577 181.451 321.466 183.142C320.616 183.603 318.648 187.249 317.757 188.283C316.152 190.147 315.939 191.954 315.094 194.212C314.036 197.039 311.908 199.396 310.93 202.228Z" fill="#114B5F"/>
<path d="M475.259 240.974C474.241 240.577 473.253 240.107 472.303 239.567C471.35 242.186 470.843 244.946 470.804 247.733L477.771 243.792C478.819 243.199 480.006 242.376 479.984 241.172C479.993 241.023 479.963 240.875 479.895 240.742C479.827 240.61 479.725 240.498 479.599 240.418C479.444 240.356 479.275 240.337 479.11 240.361C478.077 240.447 477.136 240.955 476.161 241.309C475.187 241.662 474.047 241.849 473.153 241.324" fill="#114B5F"/>
<path d="M512.009 243.314C511.244 243.522 510.497 243.79 509.775 244.115C508.176 244.928 507.088 246.472 505.65 247.543C504.273 248.568 502.616 249.131 500.989 249.678C500.51 250.101 500.73 250.953 501.25 251.324C501.808 251.642 502.449 251.786 503.09 251.737C504.78 251.775 506.561 251.791 508.041 250.975C508.875 250.434 509.656 249.815 510.372 249.126C512.103 247.682 514.182 246.729 516.239 245.809C516.988 245.526 517.681 245.112 518.284 244.587C519.577 243.313 519.668 241.349 517.804 240.915C516.297 240.565 513.443 242.85 512.009 243.314Z" fill="#114B5F"/>
<path d="M528.246 232.711C528.33 231.835 528.214 230.951 527.906 230.127C527.598 229.302 527.106 228.558 526.468 227.951C526.449 229.704 526.396 231.572 525.41 233.022C524.707 234.054 523.605 234.752 522.835 235.736C522.065 236.72 521.723 238.279 522.627 239.143C523.204 239.582 523.907 239.824 524.632 239.833C526.43 240.045 528.511 240.163 529.772 238.865C530.46 238.156 530.795 237.106 531.634 236.585C531.947 236.454 532.226 236.254 532.451 236.001C532.798 235.45 532.247 234.724 531.627 234.526C531.007 234.327 530.324 234.421 529.701 234.232C529.078 234.044 528.507 233.343 528.826 232.777" fill="#114B5F"/>
<path d="M499.387 168.437C498.444 168.666 497.467 168.724 496.504 168.607C494.903 168.313 493.657 167.107 492.365 166.118C489.294 163.78 485.56 162.476 481.7 162.393C478.189 162.327 474.645 163.278 471.196 162.614C471.422 163.867 472.494 164.806 473.638 165.365C474.782 165.923 476.045 166.204 477.195 166.751C479.036 167.636 480.496 169.155 481.308 171.029C481.678 171.893 481.911 172.833 482.472 173.588C483.618 175.129 485.791 175.468 487.709 175.342C490.209 175.178 492.82 174.459 495.146 175.39C496.926 176.102 498.199 177.659 499.685 178.87C501.171 180.08 503.264 180.979 504.97 180.105C503.198 179.532 501.655 178.407 500.568 176.895C499.48 175.384 498.905 173.564 498.925 171.702C500.598 171.856 505.418 171.796 505.158 168.954C504.938 166.546 500.824 168.177 499.387 168.437Z" fill="#114B5F"/>
<path d="M477.498 188.034C477.795 186.405 479.42 184.966 478.914 183.39C478.564 182.299 477.299 181.761 476.154 181.734C475.009 181.707 473.884 182.048 472.739 182.08C471.994 182.041 471.246 182.052 470.503 182.112C468.23 182.486 466.829 184.867 464.687 185.714C463.384 186.229 461.921 186.13 460.566 186.486C457.491 187.294 455.546 190.199 453.396 192.541C449.923 196.308 445.399 198.945 440.409 200.112C438.66 200.517 436.781 200.776 435.391 201.911C433.551 203.414 433.098 205.991 432.688 208.331C431.557 214.793 429.828 221.137 427.524 227.281L434.826 228.212C436.214 228.39 437.652 228.563 438.99 228.152C439.962 227.786 440.882 227.295 441.729 226.694C444.981 224.675 448.62 223.362 452.412 222.839C454.324 222.576 456.328 222.528 458.123 223.239C459.917 223.949 461.456 225.56 461.607 227.484C462.383 227.242 463.21 227.216 463.999 227.408C464.789 227.6 465.511 228.003 466.09 228.574C467.233 229.738 467.982 231.232 468.23 232.845C468.422 233.843 468.615 235.04 469.542 235.459C470.298 235.8 471.165 235.432 471.993 235.366C474.8 235.142 477.129 238.414 479.888 237.85C482.847 237.246 483.574 232.816 486.461 231.929C488.119 231.419 490.444 232.039 491.238 230.497C491.938 229.138 490.542 227.57 490.686 226.048C490.863 224.175 493.074 223.38 494.778 222.58C500.654 219.824 503.442 211.919 500.595 206.089C498.908 202.634 495.589 199.915 494.976 196.12C494.504 193.2 495.655 189.795 493.793 187.497C492.846 186.328 491.242 185.683 490.678 184.288C490.323 183.41 490.466 182.413 490.275 181.486C490.084 180.558 489.274 179.588 488.358 179.828C485.698 180.526 484.849 188.74 483.425 190.736C481.26 193.77 476.816 191.771 477.498 188.034Z" fill="#114B5F"/>
<path d="M428.332 171.539C427.423 171.284 426.43 171.033 425.559 171.397C424.688 171.762 424.18 173.04 424.879 173.674C430.347 173.461 435.85 173.25 441.272 173.992C447.519 174.847 453.702 176.966 459.976 176.343C456.392 175.286 452.749 174.441 449.065 173.812L442.922 172.639C441.274 172.294 439.609 172.037 437.934 171.868C434.43 171.579 431.777 172.505 428.332 171.539Z" fill="#114B5F"/>
<path d="M433.807 152.5C433.353 152.462 432.79 152.43 432.556 152.82C432.331 153.193 432.588 153.685 432.467 154.103C432.302 154.674 431.554 154.82 430.965 154.743C430.375 154.665 429.738 154.479 429.215 154.763C428.95 154.944 428.751 155.206 428.648 155.509C428.545 155.813 428.542 156.142 428.642 156.446C428.855 157.052 429.201 157.602 429.653 158.058C430.426 159.031 431.306 159.913 432.277 160.688C434.156 162.075 436.703 162.743 437.886 164.757C438.053 165.147 438.31 165.492 438.636 165.765C439.204 166.125 439.945 165.851 440.557 165.571L442.702 164.592C443.088 164.453 443.433 164.218 443.704 163.91C444.194 163.245 443.893 162.3 443.482 161.584C443.071 160.868 442.544 160.127 442.633 159.307C442.79 157.843 444.673 157.283 445.447 156.031C446.227 154.769 445.719 153.142 445.809 151.661C445.914 149.929 447.003 147.676 445.251 146.381C443.762 145.282 442.339 146.298 441.27 147.512C439.016 150.073 437.95 152.846 433.807 152.5Z" fill="#114B5F"/>
<path d="M446.826 126.619C447.558 128.021 449.084 128.857 449.883 130.222C450.748 131.702 450.65 133.613 451.589 135.047C452.552 136.518 454.491 137.299 455.031 138.973C455.621 140.799 454.282 143.02 455.349 144.616C455.548 144.877 455.799 145.094 456.086 145.253C456.373 145.412 456.69 145.509 457.017 145.539C457.344 145.569 457.673 145.531 457.985 145.427C458.296 145.323 458.582 145.156 458.826 144.935C459.275 144.446 459.516 143.8 459.496 143.136C459.477 142.471 459.198 141.841 458.72 141.379C458.089 140.803 457.182 140.555 456.654 139.882C456.38 139.494 456.197 139.049 456.119 138.58C455.832 137.227 455.878 135.825 456.254 134.494C456.395 134.156 456.43 133.784 456.356 133.425C456.119 132.735 455.185 132.686 454.529 132.366C453.039 131.639 453.075 129.538 453.336 127.902C453.162 128.991 449.28 127.138 448.874 126.521C448.066 125.295 448.506 122.931 448.346 121.576C446.603 122.416 445.93 124.906 446.826 126.619Z" fill="#114B5F"/>
<path d="M407.718 148.183C407.001 147.381 405.922 146.543 404.961 147.026C404.228 147.395 404.027 148.409 404.314 149.177C404.664 149.923 405.203 150.565 405.877 151.04C407.879 152.69 410.034 154.18 411.781 156.098C414.906 159.531 416.562 164.164 419.961 167.327C420.644 168.06 421.548 168.549 422.536 168.72C423.526 168.812 424.638 168.179 424.752 167.191C424.846 166.377 424.279 165.649 423.724 165.046C422.404 163.611 420.958 162.289 419.712 160.789C419.136 160.213 418.774 159.458 418.686 158.648C418.68 157.841 419.417 156.995 420.2 157.195C419.248 156.952 418.541 155.366 417.144 155.068C415.976 154.819 415.694 155.542 414.304 154.946C411.653 153.81 409.574 150.26 407.718 148.183Z" fill="#114B5F"/>
<path d="M470.001 70.1116C469.24 69.8857 468.493 69.6187 467.761 69.3119C465.793 68.7214 463.189 70.1674 463.452 72.2047C463.626 73.5583 464.886 74.4709 465.582 75.645C466.614 77.3862 466.339 79.5947 465.797 81.5446C465.663 82.1484 465.41 82.7192 465.052 83.2232C464.551 83.7552 463.952 84.1858 463.288 84.4913C460.631 85.9812 458.287 87.9717 456.386 90.3528C456.18 90.5727 456.036 90.8439 455.97 91.1382C455.876 91.8261 456.567 92.3272 456.958 92.9008C457.827 94.1752 457.199 95.8901 457.285 97.4298C457.272 97.6475 457.315 97.865 457.409 98.0616C457.503 98.2582 457.647 98.4274 457.825 98.5533C458.348 98.8191 458.969 98.3675 459.253 97.8536C460.194 96.148 459.485 93.4104 461.252 92.588C461.586 92.4325 461.991 92.3669 462.214 92.0735C462.568 91.6079 462.226 90.9186 462.406 90.3622C462.675 89.5267 463.818 89.4892 464.695 89.5263C466.206 89.5895 467.717 89.3884 469.159 88.9323C469.724 88.7978 470.238 88.5004 470.636 88.0769C471.164 87.4181 471.118 86.4813 471.012 85.6436C470.483 81.4676 469.16 77.4312 467.114 73.7525C468.665 73.9506 470.354 74.1223 471.693 73.3138C472.443 72.8611 473.342 71.5073 472.97 70.5858C472.382 69.1286 471.32 70.3552 470.001 70.1116Z" fill="#114B5F"/>
<path d="M271.049 93.0784C271.235 94.0741 271.418 95.1226 271.091 96.0814C270.765 97.0403 269.738 97.8414 268.768 97.5476C268.016 97.3196 267.581 96.5632 267.047 95.9866C264.075 92.7796 257.37 94.6363 255.535 90.6688C254.785 89.0495 255.295 87.1096 254.784 85.4002C254.461 84.4123 253.82 83.5594 252.96 82.9755C252.1 82.3915 251.07 82.1096 250.033 82.1741C249.087 82.3107 248.165 82.5855 247.299 82.9898C241.495 85.3135 235.401 86.837 229.186 87.5184C228.005 87.5903 226.837 87.8029 225.706 88.1514C223.154 89.0763 221.41 91.4413 220.17 93.8547C218.929 96.2681 218.013 98.8808 216.349 101.025C214.6 103.278 212.15 104.856 209.865 106.563C208.984 107.13 208.251 107.898 207.726 108.804C207.23 109.821 207.258 111.004 207.297 112.134L207.764 125.863C207.824 127.629 207.899 129.458 208.69 131.039C209.677 133.012 211.628 134.305 212.981 136.048C214.362 137.839 215.081 140.053 215.017 142.314C214.988 143.222 214.898 144.297 215.606 144.868C216.037 145.147 216.541 145.292 217.054 145.285L235.633 146.805C238.901 147.072 242.523 147.512 244.656 150.001C245.663 151.175 246.472 152.864 248.015 152.991C248.676 153.045 249.32 152.773 249.982 152.721C251.651 152.589 253.118 153.855 254.043 155.25C255.444 157.377 256.08 159.916 255.847 162.452C255.695 164.043 255.201 165.591 255.095 167.186C254.69 173.256 259.837 178.529 259.937 184.612C259.996 188.19 258.297 191.532 256.64 194.704C259.314 198.753 257.125 204.144 258.189 208.877C259.199 213.368 262.944 216.883 263.877 221.39C264.305 223.453 264.329 225.992 266.149 227.055C266.948 227.444 267.833 227.621 268.72 227.569C274.07 227.633 279.359 226.429 284.154 224.057C286.404 222.941 288.737 221.274 289.13 218.794C289.447 216.793 288.432 214.556 289.465 212.813C290.682 210.76 293.8 210.922 295.591 209.343C298.497 206.782 296.231 201.897 297.408 198.207C298.466 194.891 302.109 193.129 303.914 190.153C304.625 188.873 305.135 187.491 305.426 186.057C306.253 182.628 306.768 179.131 306.964 175.61C307.013 173.47 307.17 171.334 307.437 169.211C309.384 157.121 321.34 149.025 325.222 137.411C325.593 136.302 325.767 134.825 324.78 134.197C324.194 133.918 323.531 133.849 322.9 134.001L314.336 135.08C313.272 135.214 312.144 135.339 311.167 134.898C310.191 134.456 309.49 133.221 310.009 132.282C311.463 129.648 308.471 126.32 307.142 123.621C303.562 116.353 299.299 109.442 294.41 102.98C294.097 102.648 293.901 102.223 293.852 101.769L296.282 101.85C295.462 98.9065 294.108 95.6859 291.247 94.6093C289.636 94.0027 287.851 94.2124 286.131 94.3064C281.205 94.5753 275.925 93.8319 271.049 93.0784Z" fill="#114B5F"/>
<path d="M286.135 26.7558C287.424 28.1241 288.868 29.5748 290.733 29.8133C294.027 30.2346 296.395 26.8296 297.903 23.8719C297.959 24.6259 298.307 25.3284 298.873 25.83C299.439 26.3316 300.178 26.5926 300.934 26.5577C301.747 26.4209 302.523 26.1177 303.213 25.6669C309.739 22.1016 317.049 20.2126 324.486 20.1695C324.415 19.6063 324.555 19.0367 324.879 18.5704C325.203 18.1042 325.688 17.7745 326.241 17.6448C327.753 17.3451 329.115 18.652 329.845 20.0095C330.574 21.3671 331.029 22.9406 332.188 23.9567C333.347 24.9728 335.59 24.9286 336.048 23.4571C336.488 22.0444 335.015 20.8397 333.792 20.0068C332.569 19.174 331.28 17.6324 332.103 16.4033C338.352 15.0206 344.64 13.6327 351.034 13.3578C352.123 13.3957 353.207 13.2089 354.221 12.8091C355.196 12.3307 355.971 11.2449 355.709 10.1912C354.313 10.5191 352.852 10.4241 351.511 9.91846C350.169 9.41276 349.009 8.51924 348.178 7.35184C357.051 6.61994 366.487 5.99611 374.35 10.1694C375.294 12.1942 370.485 13.8789 371.771 15.7052C372.182 16.2877 373.004 16.356 373.717 16.3692C379.181 16.4706 384.676 16.5701 390.079 15.7454C392.053 15.4441 394.047 15.0187 396.029 15.263C399.331 15.6701 402.154 17.8721 405.402 18.59C406.724 18.8823 408.207 18.8922 409.321 18.1235C410.436 17.3549 410.915 15.6047 410.001 14.6055C413.059 11.6094 418.135 12.3519 422.169 13.7864C426.204 15.2208 430.026 17.534 434.296 17.8537C437.358 18.083 440.463 17.2597 443.488 17.783C445.39 18.1119 447.159 18.9574 449.017 19.4769C452.532 20.4594 456.25 20.252 459.899 20.2993C469.21 20.4247 478.419 22.2539 487.07 25.6964C488.196 26.0627 489.227 26.6717 490.091 27.4804C490.896 28.3421 491.306 29.6812 490.765 30.7288L481.826 29.4231C482.668 31.0806 484.847 31.3631 486.617 31.9349C488.386 32.5067 490.221 34.4602 489.158 35.9854C487.24 35.3751 485.503 37.2914 484.534 39.0546C483.566 40.8178 482.385 42.9294 480.376 43.0368C478.576 43.133 476.4 41.6014 475.227 42.9689C476.848 45.0122 478.235 47.2297 479.364 49.5802C480.523 51.9933 481.348 55.0339 479.782 57.2051C479.536 57.5926 479.162 57.8823 478.725 58.0244C477.446 58.3481 476.615 56.7839 475.698 55.8359C474.542 54.6412 472.794 54.3028 471.229 53.7426C469.663 53.1823 468.015 52.0801 467.892 50.4226C467.816 49.3914 468.361 48.4327 468.762 47.4796C469.436 45.8731 469.731 44.1328 469.624 42.3939C469.536 40.995 469.143 39.5397 468.138 38.5623C467.133 37.5848 465.398 37.2748 464.319 38.17C463.816 38.5877 463.412 39.2559 462.758 39.2809C461.603 39.3251 460.716 37.3118 459.787 37.999C459.896 38.7313 459.744 39.4786 459.358 40.1103C456.584 42.5215 452.324 41.5014 448.748 42.3531C447.048 42.8395 445.42 43.5502 443.908 44.4663C443.342 44.7081 442.86 45.1121 442.524 45.6272C442.078 46.4942 442.57 47.6046 443.357 48.181C444.191 48.6925 445.128 49.0124 446.101 49.1175C450.46 49.9428 454.883 51.2203 458.324 54.019C461.765 56.8178 464.022 61.4443 462.933 65.7434L454.337 57.5327C454.664 60.9802 454.849 64.4372 454.893 67.9037C454.949 68.5805 454.856 69.2613 454.621 69.8985C454.008 71.2515 452.347 71.7068 450.891 72.0055C450.487 72.0824 450.103 72.244 449.765 72.4798C449.427 72.7155 449.143 73.0201 448.931 73.3734C448.719 73.7267 448.585 74.1208 448.536 74.5299C448.487 74.9389 448.526 75.3536 448.649 75.7467C449.166 77.4315 450.456 78.7452 451.636 80.0541C452.817 81.363 453.978 82.8507 454.133 84.6063C454.288 86.3619 452.963 88.3407 451.204 88.2187C449.87 88.1261 448.881 86.933 448.313 85.724C447.744 84.5149 447.405 83.1681 446.551 82.1408C443.965 79.0313 438.155 80.3635 435.839 77.0487C435.248 77.7183 434.838 78.5278 434.649 79.4002C434.459 80.2726 434.496 81.179 434.755 82.0333C435.833 81.3588 437.308 81.9855 438.118 82.9656C438.928 83.9457 439.31 85.2022 439.946 86.3031C440.804 87.7885 442.17 89.1053 442.29 90.8165C442.258 91.4636 442.269 92.112 442.323 92.7576C442.535 93.7944 443.412 94.5389 444.02 95.4055C445.434 97.4221 445.364 100.192 444.453 102.48C443.541 104.768 441.903 106.68 440.281 108.534C437.448 111.771 434.557 114.99 431.198 117.678C430.239 118.445 429.216 119.2 428.619 120.272C428.022 121.345 427.992 122.85 428.909 123.666C428.253 123.699 427.076 124.022 426.419 124.055C426.188 121.423 426.138 118.778 426.269 116.139C423.679 114.896 420.89 118.225 421.224 121.078C421.558 123.931 423.623 126.22 425.092 128.688C426.167 130.493 426.966 132.598 426.607 134.667C426.248 136.737 424.4 138.646 422.307 138.464C418.977 138.173 417.584 133.395 414.287 132.848C413.996 132.78 413.691 132.81 413.419 132.934C412.93 133.203 412.845 133.858 412.817 134.415C412.683 137.151 412.566 139.995 413.634 142.518C415.197 146.208 419.235 149.307 418.388 153.224C413.825 151.104 411.453 145.989 410.376 141.076C409.299 136.163 409.119 131.005 407.188 126.36C405.722 128.238 402.641 126.686 401.301 124.715C400.031 122.847 399.249 120.686 398.017 118.792C396.785 116.899 394.897 115.203 392.64 115.099C390.274 114.99 388.221 116.613 386.416 118.147C384.932 119.409 383.408 120.72 382.54 122.463C381.278 125 381.608 127.992 381.547 130.825C381.482 133.888 380.832 137.119 378.744 139.362C376.656 141.604 372.801 142.385 370.498 140.364C369.295 139.309 368.713 137.733 368.194 136.22C365.694 128.926 363.612 121.496 361.958 113.966C361.571 115.685 360.062 117.9 358.619 116.887C358.296 116.615 358.033 116.277 357.85 115.897C355.16 111.338 350.177 108.604 345.143 106.965C340.109 105.326 334.813 104.561 329.835 102.759C327.045 101.749 324.381 100.423 321.894 98.8051C321.26 99.7362 320.889 100.821 320.822 101.946C320.755 103.07 320.993 104.192 321.512 105.192C322.616 107.146 325.115 108.277 327.254 107.594C328.359 107.241 329.293 106.474 330.39 106.095C331.487 105.716 332.959 105.902 333.438 106.958C333.897 107.969 333.203 109.192 333.548 110.248C334.072 111.856 336.498 111.98 337.346 113.443C337.977 114.532 337.458 115.977 336.557 116.856C335.656 117.734 334.453 118.216 333.353 118.827C329.784 120.811 327.246 124.198 324.126 126.834C321.007 129.469 316.606 131.393 312.888 129.702C313.774 125.217 308.429 121.924 307.446 117.458C307.122 115.989 307.29 114.427 306.828 112.995C306.159 110.922 304.319 109.496 302.809 107.924C300.978 105.998 299.551 103.724 298.613 101.237C297.675 98.75 297.245 96.1006 297.348 93.4449C297.43 91.5995 297.769 89.724 297.348 87.9253C296.928 86.1265 295.438 84.3855 293.592 84.4671C289.375 84.6532 284.064 84.9667 281.851 81.3737C281.062 80.0913 280.718 78.2131 281.86 77.2307C282.665 76.5376 283.854 76.6029 284.911 76.7069L294.412 77.6411C296.634 77.8596 299.035 78.0399 300.942 76.8787C302.849 75.7175 303.675 72.6352 301.91 71.269C300.62 70.2708 298.308 70.3249 297.933 68.7378C297.621 67.416 299.085 65.9163 298.294 64.8116C297.727 64.0196 296.453 64.2393 295.681 64.8331C294.909 65.4268 294.348 66.2952 293.484 66.7448C291.968 67.5334 290.157 66.7828 288.526 66.2727C286.895 65.7626 284.709 65.7193 283.917 67.2335C283.033 68.9271 284.702 71.1462 283.824 72.8431C282.663 75.0868 278.732 73.8095 277.102 75.7394C275.231 77.9539 278.375 81.2561 277.744 84.0851C276.938 84.4839 276.043 84.667 275.146 84.6166C274.248 84.5662 273.379 84.284 272.624 83.7976C271.88 83.2922 271.288 82.5949 270.909 81.7798C270.531 80.9647 270.381 80.0623 270.474 79.1686C270.631 77.896 271.294 76.5969 270.85 75.3942C270.49 74.4219 269.513 73.843 268.606 73.3416L259.373 68.2418C258.516 69.8313 259.6 71.8018 260.955 72.9956C262.31 74.1895 264.008 75.0886 264.898 76.6598C265.461 77.7484 265.588 79.0107 265.251 80.1892C264.915 81.3677 264.141 82.3733 263.088 83.0007C262.956 83.0917 262.806 83.1532 262.648 83.1807C262.49 83.2082 262.328 83.2013 262.173 83.1602C262.025 83.0737 261.897 82.9585 261.795 82.8215C261.693 82.6845 261.62 82.5284 261.579 82.3624C259.95 78.1954 257.504 74.0869 253.594 71.9102C249.684 69.7334 244.066 70.1809 241.502 73.8478C240.893 74.7188 240.484 75.7116 239.954 76.6324C237.135 81.5246 231.093 83.8413 225.447 83.6899C224.895 83.7205 224.345 83.5914 223.864 83.3182C222.952 82.6883 222.993 81.3516 223.133 80.2519L223.725 75.5853C223.844 74.6482 224.017 73.6124 224.759 73.0274C225.805 72.2028 227.313 72.7232 228.645 72.704C229.654 72.6568 230.624 72.3006 231.424 71.6836C232.224 71.0666 232.815 70.2188 233.116 69.255C233.385 68.2817 233.383 67.2534 233.111 66.281C232.839 65.3086 232.306 64.4289 231.571 63.7368C230.96 63.1636 230.141 62.4436 230.463 61.6709C230.592 61.4572 230.766 61.2742 230.973 61.1349C231.18 60.9956 231.415 60.9033 231.661 60.8645C234.054 60.17 236.582 59.9879 238.934 59.1684C241.287 58.349 243.568 56.6724 244.125 54.245C244.296 53.5012 244.374 52.6001 245.042 52.2313C245.378 52.0897 245.738 52.0162 246.102 52.0149C247.377 51.8335 248.539 51.1814 249.357 50.1869C250.176 49.1924 250.592 47.9277 250.525 46.6416C251.652 45.8541 253.232 46.4334 254.323 47.271C255.413 48.1087 256.376 49.2153 257.703 49.5764C260.177 50.2493 262.567 48.0602 265.13 48.0501C266.208 48.0458 267.324 48.4268 268.338 48.0615C269.366 47.6912 269.98 46.6682 270.769 45.9124C271.558 45.1566 272.943 44.6956 273.671 45.5098L273.051 40.9159C274.3 41.2314 275.603 41.2761 276.871 41.0469C278.139 40.8177 279.344 40.32 280.403 39.5871L272.385 36.8788C272.106 36.8091 271.848 36.6714 271.635 36.478C271.052 35.8505 271.631 34.8727 272.105 34.1594C273.239 32.4529 273.43 29.642 271.565 28.7925C270.292 28.2126 268.831 28.9087 267.609 29.5897L261.757 32.8517C261.571 33.9637 262.931 34.594 263.774 35.343C264.284 35.7962 264.645 36.393 264.81 37.055C264.974 37.7171 264.934 38.4134 264.696 39.0525C264.457 39.6916 264.031 40.2435 263.473 40.636C262.914 41.0284 262.251 41.2429 261.568 41.2512C261.954 41.7521 262.221 42.3332 262.352 42.9515C262.482 43.5698 262.472 44.2095 262.321 44.8232L258.383 45.1063C257.941 45.1952 257.482 45.1056 257.106 44.8571C256.685 44.4832 256.742 43.828 256.645 43.2735C256.409 41.935 255.098 40.997 253.76 40.7564C252.422 40.5159 251.053 40.8242 249.728 41.1286C249.165 41.331 248.548 41.3168 247.995 41.0886C247.678 40.8829 247.437 40.579 247.309 40.2236C246.728 38.8156 247.271 37.1608 248.204 35.9568C249.137 34.7528 250.414 33.8726 251.561 32.8703C254.304 30.4645 256.32 27.3399 257.379 23.8494C259.547 22.9415 261.791 21.708 263.959 20.8C267.301 19.1086 271.049 18.3828 274.781 18.7041L282.122 18.8442C284.295 18.8857 286.528 18.9389 288.537 19.7672C290.547 20.5955 292.313 22.387 292.452 24.5556C292.494 24.8011 292.472 25.0532 292.39 25.2883C292.308 25.5233 292.167 25.7336 291.981 25.8994C291.697 26.0543 291.376 26.1267 291.053 26.1086C289.026 26.1798 288.162 26.6846 286.135 26.7558Z" fill="#114B5F"/>
<path d="M227.622 49.7542C227.909 49.4828 228.115 49.1377 228.218 48.7567C228.322 48.3757 228.318 47.9736 228.208 47.5945C227.51 47.3253 226.75 47.2562 226.015 47.3949C225.28 47.5337 224.598 47.8748 224.047 48.3799C223.612 48.8196 223.237 49.3149 222.932 49.8529C221.968 51.4262 221.114 53.3053 221.673 55.0639C221.719 55.2557 221.802 55.4365 221.919 55.5956C222.035 55.7547 222.182 55.889 222.351 55.9906C222.602 56.0911 222.872 56.1334 223.141 56.1143C224.204 56.1129 225.265 56.0476 226.32 55.9187C226.968 55.8395 227.72 55.6566 227.971 55.0542C228.3 54.2622 227.503 53.366 227.736 52.5405C227.888 52.1713 228.12 51.8399 228.414 51.5694C228.56 51.4332 228.672 51.2648 228.741 51.0777C228.811 50.8907 228.836 50.69 228.814 50.4916C228.72 50.1042 228.127 49.8845 227.913 50.221" fill="#114B5F"/>
<path d="M233.132 42.6132C232.188 42.3965 231.215 42.3354 230.252 42.4324C230.038 42.426 229.827 42.474 229.638 42.5718C229.454 42.7071 229.321 42.8999 229.259 43.1194C229.056 43.7725 229.106 44.4782 229.4 45.0961C229.693 45.714 230.209 46.1986 230.844 46.4534C231.19 46.5329 231.522 46.6661 231.827 46.8481C232.641 47.4801 232.122 48.7718 232.276 49.7911C232.449 50.9357 233.558 51.8964 233.354 53.0361C233.194 53.934 232.235 54.6449 232.39 55.5438C232.551 56.4852 233.746 56.7681 234.699 56.8435C235.251 56.9401 235.819 56.875 236.335 56.656C236.852 56.3026 237.22 55.7702 237.367 55.1616C237.757 54.0012 237.921 52.7769 237.85 51.5548C237.846 50.999 237.706 50.4526 237.443 49.9629C237.156 49.5749 236.838 49.2109 236.493 48.8746C234.667 46.7524 236.589 43.587 233.132 42.6132Z" fill="#114B5F"/>
<path opacity="0.8" d="M473.123 208.854C473.123 208.854 333.342 128.646 273.165 143.844C273.165 143.844 145.63 157.563 130.85 187.747C130.85 187.747 90.3093 61.1033 75.5288 56.8818" stroke="#D0CDE1" stroke-width="2" stroke-miterlimit="10"/>
<path opacity="0.8" d="M130.85 187.746C154.288 125.269 365.437 56.0371 365.437 56.0371C335.454 63.6357 273.165 143.843 273.165 143.843C273.165 143.843 141.407 48.0164 75.5288 56.8814C75.5288 56.8814 365.648 66.3797 473.124 208.854" stroke="#D0CDE1" stroke-width="2" stroke-miterlimit="10"/>
<path d="M75.5286 63.0029C78.9105 63.0029 81.652 60.2624 81.652 56.8818C81.652 53.5013 78.9105 50.7607 75.5286 50.7607C72.1468 50.7607 69.4053 53.5013 69.4053 56.8818C69.4053 60.2624 72.1468 63.0029 75.5286 63.0029Z" fill="#D0CDE1"/>
<path d="M130.85 193.868C134.232 193.868 136.973 191.128 136.973 187.747C136.973 184.367 134.232 181.626 130.85 181.626C127.468 181.626 124.727 184.367 124.727 187.747C124.727 191.128 127.468 193.868 130.85 193.868Z" fill="#D0CDE1"/>
<path d="M365.437 62.1582C368.819 62.1582 371.561 59.4177 371.561 56.0371C371.561 52.6565 368.819 49.916 365.437 49.916C362.055 49.916 359.314 52.6565 359.314 56.0371C359.314 59.4177 362.055 62.1582 365.437 62.1582Z" fill="#D0CDE1"/>
<path d="M473.123 214.975C476.505 214.975 479.247 212.234 479.247 208.854C479.247 205.473 476.505 202.732 473.123 202.732C469.741 202.732 467 205.473 467 208.854C467 212.234 469.741 214.975 473.123 214.975Z" fill="#D0CDE1"/>
<path d="M273.165 149.964C276.547 149.964 279.288 147.223 279.288 143.843C279.288 140.462 276.547 137.722 273.165 137.722C269.783 137.722 267.042 140.462 267.042 143.843C267.042 147.223 269.783 149.964 273.165 149.964Z" fill="#D0CDE1"/>
</svg>
