<svg width="100%" height="100%" viewBox="0 0 70 70" fill="none" xmlns="http://www.w3.org/2000/svg">
<path d="M1.18082 56.0703C0.919668 57.476 0.546362 59.5086 0.306036 60.8208C0.149557 61.6768 0.566656 62.5345 1.3373 62.9388C2.39901 63.4958 4.09998 64.1266 6.33928 64.1063C7.30005 64.0977 8.11609 63.3965 8.27578 62.4486L9.01758 58.0559" fill="#141414" fill-opacity="0.2"/>
<path d="M68.8812 56.0703C69.1424 57.476 69.5152 59.5086 69.7555 60.8208C69.9125 61.6768 69.4954 62.5345 68.7242 62.9388C67.663 63.4958 65.9621 64.1266 63.7228 64.1063C62.7615 64.0977 61.946 63.3965 61.7863 62.4486L61.0439 58.0559" fill="#141414" fill-opacity="0.2"/>
<path d="M50.9162 62.8984V63.7065C50.9162 67.1826 43.8041 69.9993 35.0311 69.9993C26.2566 69.9993 19.1445 67.1826 19.1445 63.7065V62.8984" fill="#141414" fill-opacity="0.2"/>
<path d="M67.1711 57.4414C65.7366 57.9493 64.2001 58.2115 62.7502 58.3487C61.1448 58.4999 59.6607 57.4798 59.2313 55.9257L52.5817 31.891V59.2962C52.5817 61.0842 51.5772 62.7264 49.9744 63.5216C47.4115 64.7927 42.7412 66.3057 35.031 66.3057C27.3213 66.3057 22.651 64.7927 20.0881 63.5216C18.4853 62.7264 17.4808 61.0842 17.4808 59.2962V31.891L10.8312 55.9257C10.4018 57.4798 8.9177 58.4999 7.31233 58.3487C5.86236 58.2115 4.32587 57.9493 2.8914 57.4414C1.42754 56.9217 0.512703 55.4622 0.691079 53.9182C2.91009 34.8336 9.47419 19.6248 9.47419 19.6248C11.7033 17.3961 14.5045 15.6151 16.8987 14.3365C17.7564 13.8783 18.5612 13.4847 19.2688 13.1579L50.7921 13.1562C51.4997 13.4831 52.3045 13.8772 53.1612 14.3349C55.5554 15.6151 58.3592 17.3961 60.5883 19.6248C60.5883 19.6248 67.1524 34.8336 69.3714 53.9182C69.5498 55.4622 68.635 56.9217 67.1711 57.4414Z" fill="#F3E9D2"/>
<path d="M27.4154 11.9824L26.0439 14.7168C19.4082 16.7414 9.73753 20.7853 4.90324 48.8185C4.0669 52.7241 2.98811 56.1559 4.80604 57.9739C4.15983 57.8355 3.51629 57.6614 2.89091 57.4403C1.42706 56.9207 0.512215 55.4611 0.69059 53.9172C2.9096 34.8326 9.4737 19.6237 9.4737 19.6237C14.3812 14.7168 22.0668 11.9824 22.0668 11.9824H27.4154Z" fill="#141414" fill-opacity="0.1"/>
<path d="M52.0258 8.71742C52.0258 14.4644 44.4166 22.8331 35.03 22.8331C25.6439 22.8331 18.0347 14.4644 18.0347 8.71742C18.0347 2.97096 25.6439 0 35.03 0C44.4166 0 52.0258 2.97096 52.0258 8.71742Z" fill="#F3E9D2"/>
<path d="M67.1704 57.4393C65.7365 57.9472 64.1995 58.2094 62.7495 58.3467C61.1441 58.4978 59.66 57.4777 59.2306 55.9236L52.5811 31.8889C52.5811 29.2122 53.1445 26.8207 54.4273 24.7598L62.0862 54.1169C62.0862 54.1169 63.3274 57.4393 67.1704 57.4393Z" fill="#141414" fill-opacity="0.1"/>
<path d="M22.0583 30.9665V64.3616C21.2962 64.0818 20.6426 63.795 20.0877 63.52C18.485 62.7247 17.4804 61.0825 17.4804 59.2945V31.8893C17.4804 29.6062 17.0697 27.5303 16.1538 25.6895C16.1538 25.6895 22.0583 25.9447 22.0583 30.9665Z" fill="#141414" fill-opacity="0.1"/>
<path d="M45.8865 12.0793C45.2317 12.914 44.4167 13.6676 43.472 14.3111C41.2359 15.845 38.2767 16.7753 35.0318 16.7753C32.7257 16.7753 30.5622 16.3042 28.7016 15.4823C27.9437 15.1485 27.2361 14.7549 26.5883 14.3095C25.6452 13.666 24.8286 12.914 24.1738 12.0793C26.38 9.26537 30.4154 7.38281 35.0285 7.38281C39.6433 7.38281 43.6776 9.26537 45.8865 12.0793Z" fill="#141414" fill-opacity="0.1"/>
<path d="M43.4716 14.3123C41.2355 15.8461 38.2757 16.7765 35.0308 16.7765C32.7253 16.7765 30.5618 16.3054 28.7012 15.4835C27.9433 15.1497 27.2357 14.7561 26.5879 14.3107C28.824 12.7796 31.7832 11.8477 35.0281 11.8477C38.2747 11.8477 41.2339 12.7796 43.4716 14.3123Z" fill="#141414" fill-opacity="0.2"/>
<path d="M45.7949 7.93378C42.9724 6.33427 39.1881 5.35641 35.0283 5.35641C30.8717 5.35641 27.0885 6.33267 24.2676 7.93057C26.4909 5.18124 30.4792 3.35156 35.0283 3.35156C39.5806 3.35156 43.569 5.18231 45.7949 7.93378Z" fill="#141414" fill-opacity="0.1"/>
<path d="M38.726 41.8476C38.1348 41.8476 37.6558 41.3686 37.6558 40.7774V19.6249C37.6558 19.0337 38.1348 18.5547 38.726 18.5547C39.3172 18.5547 39.7963 19.0337 39.7963 19.6249V40.7774C39.7963 41.3686 39.3172 41.8476 38.726 41.8476Z" fill="#515a5e"/>
<path d="M31.3344 37.0128C30.7432 37.0128 30.2642 36.5337 30.2642 35.9425V19.6249C30.2642 19.0337 30.7432 18.5547 31.3344 18.5547C31.9256 18.5547 32.4047 19.0337 32.4047 19.6249V35.9425C32.4047 36.5337 31.9256 37.0128 31.3344 37.0128Z" fill="#515a5e"/>
<path d="M35.0309 46.6658C37.8144 46.6658 42.8351 46.2637 42.8351 46.2637C42.8351 46.2637 43.5325 53.0975 48.9719 54.4924V58.6762C48.9719 58.6762 43.1138 61.7449 35.0309 61.7449C26.9474 61.7449 21.0898 58.6762 21.0898 58.6762V54.4924C26.5292 53.0975 27.2262 46.2637 27.2262 46.2637C27.2262 46.2637 32.2474 46.6658 35.0309 46.6658Z" fill="#515a5e"/>
</svg>
