<svg width="100%" height="100%" viewBox="0 0 794 71" fill="none" xmlns="http://www.w3.org/2000/svg">
<path d="M66.7735 35.0481C66.7891 43.2658 63.6098 51.167 57.9053 57.0815C52.2009 62.996 44.418 66.46 36.2068 66.7387C27.9923 67.0204 19.9942 64.0914 13.901 58.5804L11.5292 56.2084C6.01848 50.1156 3.08959 42.1171 3.37077 33.9026C3.64928 25.6914 7.11342 17.9087 13.028 12.2041C18.9426 6.49948 26.8437 3.31992 35.0614 3.33594H66.7737L66.7735 35.0481Z" fill="#18920D"/>
<path d="M28.5095 24.1818V46H23.9072V29.8281H23.7048C23.4704 30.1903 22.9732 30.5526 22.2133 30.9148C21.4533 31.2699 20.4697 31.4474 19.2623 31.4474V27.7827C20.1998 27.7827 21.0201 27.5767 21.7232 27.1648C22.4264 26.7457 22.9768 26.2557 23.3745 25.6946C23.7722 25.1264 23.9782 24.6222 23.9924 24.1818H28.5095ZM42.239 46.4794C40.4066 46.4723 38.8299 46.0213 37.5089 45.1264C36.195 44.2315 35.1829 42.9354 34.4727 41.2379C33.7696 39.5405 33.4216 37.4986 33.4287 35.1122C33.4358 31.5398 34.2206 28.777 35.7831 26.8239C37.3527 24.8636 39.5047 23.8835 42.239 23.8835C44.0643 23.8835 45.6339 24.3239 46.9478 25.2045C48.2689 26.0852 49.2845 27.3636 49.9947 29.0398C50.7049 30.7088 51.0565 32.733 51.0494 35.1122C51.0423 38.706 50.2575 41.5007 48.695 43.4964C47.1325 45.4851 44.9805 46.4794 42.239 46.4794ZM42.239 42.6548C43.489 42.6548 44.4869 42.0263 45.2326 40.7692C45.9784 39.5121 46.3477 37.6264 46.3406 35.1122C46.3406 32.6335 45.9677 30.7727 45.222 29.5298C44.4762 28.2869 43.4819 27.6655 42.239 27.6655C40.9961 27.6655 40.0018 28.2869 39.2561 29.5298C38.5103 30.7727 38.1339 32.6335 38.1268 35.1122C38.1197 37.6264 38.489 39.5121 39.2348 40.7692C39.9876 42.0263 40.989 42.6548 42.239 42.6548Z" fill="black"/>
<path d="M468.935 35.0481C468.951 43.2658 465.771 51.167 460.067 57.0815C454.362 62.996 446.58 66.46 438.368 66.7387C430.154 67.0204 422.156 64.0914 416.063 58.5804L413.691 56.2084C408.18 50.1156 405.251 42.1171 405.532 33.9026C405.811 25.6914 409.275 17.9087 415.19 12.2041C421.104 6.49948 429.005 3.31992 437.223 3.33594H468.935L468.935 35.0481Z" fill="#FAA307"/>
<path d="M437.369 46.2983C435.864 46.2983 434.521 46.0213 433.342 45.4673C432.163 44.9134 431.229 44.1499 430.541 43.1768C429.859 42.2038 429.504 41.0888 429.475 39.8317H433.95C434.006 40.6768 434.362 41.3622 435.015 41.8878C435.668 42.4134 436.453 42.6761 437.369 42.6761C438.449 42.6761 439.337 42.321 440.033 41.6108C440.729 40.9006 441.077 39.9773 441.077 38.8409C441.077 37.6974 440.722 36.767 440.011 36.0497C439.308 35.3253 438.406 34.9595 437.305 34.9524C436.659 34.9524 436.038 35.0838 435.441 35.3466C434.845 35.6094 434.379 35.968 434.046 36.4226L429.944 35.6875L430.977 24.1818H444.315V27.9531H434.781L434.216 33.4183H434.344C434.727 32.8786 435.306 32.4311 436.08 32.076C436.854 31.7209 437.721 31.5433 438.68 31.5433C439.994 31.5433 441.166 31.8523 442.195 32.4702C443.225 33.0881 444.038 33.9368 444.635 35.0163C445.232 36.0959 445.526 37.3317 445.519 38.7237C445.526 40.1939 445.185 41.5007 444.497 42.6442C443.815 43.7805 442.859 44.6754 441.631 45.3288C440.409 45.9751 438.989 46.2983 437.369 46.2983Z" fill="black"/>
<path d="M147.206 35.0481C147.221 43.2658 144.042 51.167 138.337 57.0815C132.633 62.996 124.85 66.46 116.639 66.7387C108.424 67.0204 100.426 64.0914 94.3331 58.5804L91.9613 56.2084C86.4506 50.1156 83.5217 42.1171 83.8029 33.9026C84.0814 25.6914 87.5456 17.9087 93.4601 12.2041C99.3747 6.49948 107.276 3.31992 115.494 3.33594H147.206L147.206 35.0481Z" fill="#7BC423"/>
<path d="M115.331 23.8196C116.454 23.8196 117.533 24.0078 118.57 24.3842C119.614 24.7536 120.545 25.3537 121.361 26.1847C122.185 27.0156 122.839 28.1165 123.322 29.4872C123.804 30.8509 124.046 32.5305 124.046 34.5263C124.046 36.9908 123.68 39.1037 122.949 40.8651C122.217 42.6193 121.187 43.9652 119.859 44.9027C118.538 45.8331 116.976 46.2983 115.172 46.2983C113.716 46.2983 112.43 46.0178 111.315 45.4567C110.2 44.8885 109.302 44.1179 108.62 43.1449C107.945 42.1648 107.537 41.0639 107.395 39.8423H111.944C112.121 40.6378 112.494 41.2557 113.062 41.696C113.63 42.1293 114.334 42.3459 115.172 42.3459C116.592 42.3459 117.672 41.728 118.41 40.4922C119.149 39.2493 119.522 37.5483 119.529 35.3892H119.38C118.897 36.348 118.158 37.1009 117.164 37.6477C116.177 38.1946 115.083 38.468 113.883 38.468C112.597 38.468 111.447 38.1662 110.431 37.5625C109.415 36.9517 108.616 36.1172 108.034 35.0589C107.459 34.0007 107.174 32.7898 107.182 31.4261C107.174 29.9489 107.512 28.6385 108.194 27.495C108.875 26.3445 109.827 25.4425 111.049 24.7891C112.277 24.1357 113.705 23.8125 115.331 23.8196ZM115.363 27.4418C114.291 27.4418 113.403 27.8111 112.7 28.5497C111.997 29.2884 111.649 30.2045 111.656 31.2983C111.649 32.3778 111.99 33.2869 112.679 34.0256C113.375 34.7571 114.255 35.1229 115.321 35.1229C116.024 35.1229 116.656 34.9489 117.217 34.6009C117.785 34.2528 118.233 33.7876 118.559 33.2053C118.893 32.6229 119.064 31.9801 119.071 31.277C119.064 30.5739 118.897 29.9347 118.57 29.3594C118.25 28.777 117.814 28.3118 117.26 27.9638C116.706 27.6158 116.074 27.4418 115.363 27.4418Z" fill="black"/>
<path d="M549.367 35.0481C549.383 43.2658 546.204 51.167 540.499 57.0815C534.795 62.996 527.012 66.46 518.801 66.7387C510.586 67.0204 502.588 64.0914 496.495 58.5804L494.123 56.2084C488.612 50.1156 485.683 42.1171 485.965 33.9026C486.243 25.6914 489.707 17.9087 495.622 12.2041C501.536 6.49948 509.437 3.31992 517.655 3.33594H549.367L549.367 35.0481Z" fill="#F48C06"/>
<path d="M509.004 42.1648V38.532L518.113 24.1818H523.887V38.468H526.593V42.1648H523.887V46H519.477V42.1648H509.004ZM519.562 38.468V29.2102H519.392L513.649 38.2976V38.468H519.562Z" fill="black"/>
<path d="M227.638 35.0481C227.654 43.2658 224.475 51.167 218.77 57.0815C213.066 62.996 205.283 66.46 197.072 66.7387C188.857 67.0204 180.859 64.0914 174.766 58.5804L172.394 56.2084C166.883 50.1156 163.954 42.1171 164.236 33.9026C164.514 25.6914 167.978 17.9087 173.893 12.2041C179.807 6.49948 187.708 3.31992 195.926 3.33594H227.638L227.638 35.0481Z" fill="#A4E24D"/>
<path d="M195.994 46.2983C194.353 46.2983 192.894 46.032 191.615 45.4993C190.344 44.9595 189.346 44.2244 188.622 43.294C187.897 42.3636 187.535 41.3089 187.535 40.13C187.535 39.2209 187.741 38.3864 188.153 37.6264C188.572 36.8594 189.14 36.2237 189.858 35.7195C190.575 35.2081 191.377 34.8814 192.265 34.7393V34.5902C191.108 34.3558 190.163 33.7912 189.431 32.8963C188.7 31.9943 188.338 30.9467 188.345 29.7536C188.345 28.6243 188.675 27.6193 189.336 26.7386C189.996 25.8509 190.902 25.1548 192.052 24.6506C193.21 24.1392 194.524 23.8835 195.994 23.8835C197.464 23.8835 198.774 24.1392 199.925 24.6506C201.083 25.1548 201.992 25.8509 202.652 26.7386C203.32 27.6193 203.654 28.6243 203.654 29.7536C203.647 30.9538 203.277 32.0014 202.546 32.8963C201.814 33.7912 200.877 34.3558 199.733 34.5902V34.7393C200.607 34.8814 201.399 35.2081 202.109 35.7195C202.826 36.2237 203.398 36.8594 203.824 37.6264C204.25 38.3864 204.463 39.2209 204.463 40.13C204.463 41.3089 204.098 42.3636 203.366 43.294C202.642 44.2244 201.64 44.9595 200.362 45.4993C199.091 46.032 197.635 46.2983 195.994 46.2983ZM195.994 42.9105C197.088 42.9105 197.972 42.6193 198.647 42.0369C199.321 41.4474 199.659 40.6911 199.659 39.7678C199.659 38.8232 199.311 38.0455 198.615 37.4347C197.926 36.8239 197.052 36.5185 195.994 36.5185C194.936 36.5185 194.059 36.8239 193.363 37.4347C192.674 38.0455 192.329 38.8232 192.329 39.7678C192.329 40.6911 192.667 41.4474 193.341 42.0369C194.016 42.6193 194.9 42.9105 195.994 42.9105ZM195.994 33.1626C196.91 33.1626 197.663 32.8892 198.252 32.3423C198.849 31.7955 199.147 31.0923 199.147 30.233C199.147 29.3878 198.853 28.6989 198.263 28.1662C197.681 27.6264 196.924 27.3565 195.994 27.3565C195.064 27.3565 194.304 27.6229 193.714 28.1555C193.132 28.6882 192.841 29.3807 192.841 30.233C192.841 31.0923 193.135 31.7955 193.725 32.3423C194.314 32.8892 195.071 33.1626 195.994 33.1626Z" fill="black"/>
<path d="M629.799 35.0481C629.815 43.2658 626.636 51.167 620.931 57.0815C615.227 62.996 607.444 66.46 599.233 66.7387C591.018 67.0204 583.02 64.0914 576.927 58.5804L574.555 56.2084C569.044 50.1156 566.115 42.1171 566.397 33.9026C566.675 25.6914 570.139 17.9087 576.054 12.2041C581.968 6.49948 589.87 3.31992 598.087 3.33594H629.8L629.799 35.0481Z" fill="#E85D04"/>
<path d="M598.11 46.2983C596.512 46.2983 595.095 46.0249 593.86 45.478C592.624 44.9311 591.651 44.1712 590.941 43.1982C590.23 42.2251 589.861 41.103 589.833 39.8317H594.477C594.52 40.6271 594.882 41.2699 595.564 41.7599C596.253 42.25 597.105 42.495 598.121 42.495C599.179 42.495 600.042 42.2251 600.71 41.6854C601.384 41.1385 601.718 40.4318 601.711 39.5653C601.718 38.6847 601.36 37.9673 600.635 37.4134C599.918 36.8523 598.941 36.5717 597.705 36.5717H595.671V33.1839H597.705C598.757 33.1839 599.612 32.9212 600.273 32.3956C600.933 31.8629 601.26 31.1669 601.253 30.3075C601.26 29.4837 600.976 28.8161 600.401 28.3047C599.833 27.7933 599.083 27.5376 598.153 27.5376C597.208 27.5376 596.402 27.7862 595.735 28.2834C595.067 28.7805 594.719 29.4446 594.691 30.2756H590.269C590.291 29.0185 590.649 27.9105 591.345 26.9517C592.041 25.9858 592.979 25.233 594.158 24.6932C595.344 24.1534 596.683 23.8835 598.174 23.8835C599.68 23.8835 600.997 24.157 602.127 24.7038C603.256 25.2507 604.133 25.9893 604.758 26.9197C605.39 27.843 605.703 28.88 605.696 30.0305C605.703 31.2521 605.323 32.2713 604.556 33.0881C603.796 33.9048 602.805 34.4233 601.583 34.6435V34.8139C603.188 35.0128 604.41 35.5668 605.248 36.4759C606.093 37.3849 606.512 38.5178 606.505 39.8743C606.512 41.1172 606.154 42.2216 605.429 43.1875C604.712 44.1534 603.721 44.9134 602.457 45.4673C601.193 46.0213 599.744 46.2983 598.11 46.2983Z" fill="black"/>
<path d="M308.07 35.0481C308.086 43.2658 304.907 51.167 299.202 57.0815C293.498 62.996 285.715 66.46 277.504 66.7387C269.289 67.0204 261.291 64.0914 255.198 58.5804L252.826 56.2084C247.315 50.1156 244.386 42.1171 244.668 33.9026C244.946 25.6914 248.41 17.9087 254.325 12.2041C260.239 6.49948 268.141 3.31992 276.358 3.33594H308.071L308.07 35.0481Z" fill="#FFE33F"/>
<path d="M270.146 46L279.191 28.1023V27.9531H268.654V24.1818H283.963V28.0064L274.908 46H270.146Z" fill="black"/>
<path d="M710.232 35.0481C710.248 43.2658 707.068 51.167 701.364 57.0815C695.659 62.996 687.877 66.46 679.665 66.7387C671.451 67.0204 663.453 64.0914 657.36 58.5804L654.988 56.2084C649.477 50.1156 646.548 42.1171 646.829 33.9026C647.108 25.6914 650.572 17.9087 656.487 12.2041C662.401 6.49948 670.302 3.31992 678.52 3.33594H710.232L710.232 35.0481Z" fill="#DC2F02"/>
<path d="M670.917 46V42.6761L678.684 35.4851C679.678 34.5334 680.434 33.706 680.953 33.0028C681.471 32.2997 681.73 31.5149 681.73 30.6484C681.73 29.6896 681.411 28.9332 680.772 28.3793C680.14 27.8182 679.344 27.5376 678.385 27.5376C677.391 27.5376 676.588 27.8395 675.978 28.4432C675.374 29.0398 675.076 29.8601 675.083 30.9041H670.704C670.704 29.4766 671.027 28.2372 671.674 27.1861C672.32 26.1349 673.222 25.3217 674.38 24.7464C675.544 24.1712 676.89 23.8835 678.417 23.8835C679.98 23.8835 681.34 24.1605 682.498 24.7145C683.662 25.2614 684.568 26.0213 685.214 26.9943C685.86 27.9602 686.184 29.0753 686.184 30.3395C686.184 31.1634 686.02 31.9766 685.694 32.7791C685.367 33.5817 684.792 34.473 683.968 35.4531C683.151 36.4261 681.993 37.5945 680.495 38.9581L677.309 42.0795V42.2287H686.471V46H670.917Z" fill="black"/>
<path d="M388.502 35.0481C388.518 43.2658 385.339 51.167 379.634 57.0815C373.93 62.996 366.147 66.46 357.936 66.7387C349.721 67.0204 341.723 64.0914 335.63 58.5804L333.258 56.2084C327.747 50.1156 324.819 42.1171 325.1 33.9026C325.378 25.6914 328.842 17.9087 334.757 12.2041C340.672 6.49948 348.573 3.31992 356.79 3.33594H388.503L388.502 35.0481Z" fill="#FFBA08"/>
<path d="M357.108 46.2983C355.986 46.2912 354.906 46.103 353.869 45.7337C352.832 45.3572 351.902 44.7571 351.078 43.9332C350.254 43.1023 349.601 42.0014 349.118 40.6307C348.642 39.2599 348.4 37.5767 348.393 35.581C348.4 33.1165 348.77 31.0071 349.501 29.2528C350.233 27.4986 351.259 26.1562 352.58 25.2259C353.908 24.2884 355.471 23.8196 357.268 23.8196C358.723 23.8196 360.005 24.1037 361.113 24.6719C362.228 25.2401 363.127 26.0107 363.809 26.9837C364.491 27.9567 364.902 29.054 365.045 30.2756H360.496C360.318 29.473 359.945 28.8551 359.377 28.4219C358.809 27.9886 358.106 27.772 357.268 27.772C355.847 27.772 354.768 28.3935 354.029 29.6364C353.297 30.8722 352.924 32.5696 352.91 34.7287H353.059C353.549 33.7628 354.288 33.0099 355.275 32.4702C356.263 31.9233 357.356 31.6499 358.557 31.6499C359.849 31.6499 361 31.9553 362.008 32.5661C363.024 33.1697 363.823 34.0007 364.405 35.0589C364.988 36.1172 365.275 37.3281 365.268 38.6918C365.275 40.169 364.934 41.483 364.246 42.6335C363.557 43.7841 362.598 44.6861 361.369 45.3395C360.148 45.9858 358.727 46.3054 357.108 46.2983ZM357.086 42.6761C358.152 42.6761 359.036 42.3068 359.739 41.5682C360.449 40.8295 360.801 39.9134 360.794 38.8196C360.801 37.7401 360.456 36.831 359.76 36.0923C359.064 35.3537 358.184 34.9844 357.118 34.9844C356.415 34.9844 355.78 35.1584 355.211 35.5064C354.65 35.8544 354.206 36.3196 353.88 36.902C353.553 37.4773 353.386 38.12 353.379 38.8303C353.379 39.5405 353.539 40.1868 353.858 40.7692C354.185 41.3516 354.625 41.8168 355.179 42.1648C355.741 42.5057 356.376 42.6761 357.086 42.6761Z" fill="black"/>
<path d="M790.664 35.0481C790.68 43.2658 787.5 51.167 781.796 57.0815C776.091 62.996 768.309 66.46 760.097 66.7387C751.883 67.0204 743.885 64.0914 737.792 58.5804L735.42 56.2084C729.909 50.1156 726.98 42.1171 727.261 33.9026C727.54 25.6914 731.004 17.9087 736.919 12.2041C742.833 6.49948 750.734 3.31992 758.952 3.33594H790.664L790.664 35.0481Z" fill="#D00000"/>
<path d="M762.727 24.1818V46H758.125V29.8281H757.923C757.688 30.1903 757.191 30.5526 756.431 30.9148C755.671 31.2699 754.687 31.4474 753.48 31.4474V27.7827C754.418 27.7827 755.238 27.5767 755.941 27.1648C756.644 26.7457 757.195 26.2557 757.592 25.6946C757.99 25.1264 758.196 24.6222 758.21 24.1818H762.727Z" fill="black"/>
</svg>
