<svg width="100%" height="100%" viewBox="0 0 682 61" fill="none" xmlns="http://www.w3.org/2000/svg">
    <path d="M57.2826 30.0665C57.296 37.1162 54.5686 43.8944 49.6749 48.9682C44.7813 54.042 38.1046 57.0136 31.0605 57.2528C24.0136 57.4944 17.1523 54.9817 11.9252 50.254L9.89045 48.2192C5.16304 42.9924 2.65045 36.1307 2.89167 29.0839C3.13059 22.0397 6.10235 15.3632 11.1763 10.4695C16.2502 5.57567 23.0283 2.84804 30.0779 2.86179H57.2827L57.2826 30.0665Z" fill="#D00000"/>
    <path d="M33.226 20.8182V39H29.3908V25.5234H29.2221C29.0268 25.8253 28.6125 26.1271 27.9792 26.429C27.3459 26.7249 26.5262 26.8729 25.5201 26.8729V23.8189C26.3013 23.8189 26.9849 23.6472 27.5708 23.304C28.1568 22.9548 28.6155 22.5464 28.9469 22.0788C29.2783 21.6053 29.45 21.1851 29.4618 20.8182H33.226Z" fill="black"/>
    <path d="M402.283 30.0665C402.296 37.1162 399.569 43.8944 394.675 48.9682C389.781 54.042 383.105 57.0136 376.061 57.2528C369.014 57.4944 362.152 54.9817 356.925 50.254L354.89 48.2192C350.163 42.9924 347.65 36.1307 347.892 29.0839C348.131 22.0397 351.102 15.3632 356.176 10.4695C361.25 5.57567 368.028 2.84804 375.078 2.86179H402.283L402.283 30.0665Z" fill="#FFBA08"/>
    <path d="M375.344 39.2486C374.409 39.2427 373.509 39.0858 372.645 38.7781C371.781 38.4644 371.006 37.9643 370.319 37.2777C369.633 36.5852 369.088 35.6679 368.686 34.5256C368.289 33.3833 368.088 31.9806 368.082 30.3175C368.088 28.2638 368.396 26.5059 369.005 25.0441C369.615 23.5822 370.47 22.4636 371.571 21.6882C372.678 20.907 373.98 20.5164 375.477 20.5164C376.691 20.5164 377.759 20.7531 378.682 21.2266C379.611 21.7001 380.36 22.3422 380.928 23.1531C381.496 23.9639 381.84 24.8783 381.958 25.8963H378.167C378.019 25.2275 377.709 24.7126 377.235 24.3516C376.762 23.9906 376.176 23.81 375.477 23.81C374.293 23.81 373.394 24.3279 372.778 25.3637C372.169 26.3935 371.858 27.808 371.846 29.6073H371.97C372.379 28.8023 372.994 28.175 373.817 27.7252C374.64 27.2694 375.551 27.0416 376.551 27.0416C377.629 27.0416 378.587 27.2961 379.428 27.8051C380.274 28.3081 380.94 29.0006 381.425 29.8825C381.911 30.7643 382.15 31.7735 382.144 32.9098C382.15 34.1409 381.866 35.2358 381.292 36.1946C380.718 37.1534 379.919 37.9051 378.895 38.4496C377.877 38.9882 376.693 39.2545 375.344 39.2486ZM375.326 36.2301C376.214 36.2301 376.951 35.9224 377.537 35.3068C378.129 34.6913 378.422 33.9278 378.416 33.0164C378.422 32.1167 378.135 31.3592 377.555 30.7436C376.975 30.1281 376.241 29.8203 375.353 29.8203C374.767 29.8203 374.237 29.9653 373.764 30.2554C373.296 30.5454 372.926 30.933 372.654 31.4183C372.382 31.8978 372.243 32.4334 372.237 33.0252C372.237 33.6171 372.37 34.1557 372.636 34.641C372.909 35.1263 373.276 35.514 373.737 35.804C374.205 36.0881 374.734 36.2301 375.326 36.2301Z" fill="black"/>
    <path d="M126.283 30.0665C126.296 37.1162 123.569 43.8944 118.675 48.9682C113.781 54.042 107.105 57.0136 100.061 57.2528C93.0136 57.4944 86.1523 54.9817 80.9252 50.254L78.8904 48.2192C74.163 42.9924 71.6504 36.1307 71.8917 29.0839C72.1306 22.0397 75.1024 15.3632 80.1763 10.4695C85.2502 5.57567 92.0283 2.84804 99.0779 2.86179H126.283L126.283 30.0665Z" fill="#DC2F02"/>
    <path d="M92.7445 39V36.2301L99.2164 30.2376C100.045 29.4445 100.675 28.7549 101.107 28.169C101.539 27.5831 101.755 26.9291 101.755 26.207C101.755 25.408 101.489 24.7777 100.956 24.316C100.43 23.8485 99.7669 23.6147 98.9678 23.6147C98.1392 23.6147 97.4705 23.8662 96.9615 24.3693C96.4584 24.8665 96.2098 25.5501 96.2157 26.4201H92.5669C92.5669 25.2304 92.8362 24.1977 93.3748 23.3217C93.9134 22.4458 94.6651 21.7681 95.6298 21.2887C96.6004 20.8093 97.722 20.5696 98.9945 20.5696C100.297 20.5696 101.43 20.8004 102.395 21.2621C103.365 21.7178 104.12 22.3511 104.659 23.1619C105.197 23.9668 105.466 24.896 105.466 25.9496C105.466 26.6361 105.33 27.3138 105.058 27.9826C104.786 28.6514 104.306 29.3942 103.62 30.2109C102.939 31.0218 101.974 31.9954 100.726 33.1317L98.0712 35.7329V35.8572H105.706V39H92.7445Z" fill="black"/>
    <path d="M471.283 30.0665C471.296 37.1162 468.569 43.8944 463.675 48.9682C458.781 54.042 452.105 57.0136 445.061 57.2528C438.014 57.4944 431.152 54.9817 425.925 50.254L423.89 48.2192C419.163 42.9924 416.65 36.1307 416.892 29.0839C417.131 22.0397 420.102 15.3632 425.176 10.4695C430.25 5.57567 437.028 2.84804 444.078 2.86179H471.283L471.283 30.0665Z" fill="#FFE33F"/>
    <path d="M438.903 39L446.44 24.0852V23.9609H437.66V20.8182H450.418V24.0053L442.871 39H438.903Z" fill="black"/>
    <path d="M195.283 30.0665C195.296 37.1162 192.569 43.8944 187.675 48.9682C182.781 54.042 176.105 57.0136 169.061 57.2528C162.014 57.4944 155.152 54.9817 149.925 50.254L147.89 48.2192C143.163 42.9924 140.65 36.1307 140.892 29.0839C141.131 22.0397 144.102 15.3632 149.176 10.4695C154.25 5.57567 161.028 2.84804 168.078 2.86179H195.283L195.283 30.0665Z" fill="#E85D04"/>
    <path d="M168.099 39.2486C166.767 39.2486 165.586 39.0207 164.557 38.565C163.527 38.1092 162.716 37.4759 162.124 36.6651C161.532 35.8543 161.224 34.9191 161.201 33.8597H165.071C165.107 34.5226 165.409 35.0582 165.977 35.4666C166.551 35.875 167.261 36.0792 168.108 36.0792C168.99 36.0792 169.709 35.8543 170.265 35.4045C170.827 34.9487 171.105 34.3598 171.1 33.6378C171.105 32.9039 170.807 32.3061 170.203 31.8444C169.605 31.3769 168.791 31.1431 167.761 31.1431H166.066V28.3199H167.761C168.637 28.3199 169.351 28.1009 169.901 27.663C170.451 27.2191 170.724 26.6391 170.718 25.9229C170.724 25.2364 170.487 24.68 170.008 24.2539C169.534 23.8277 168.91 23.6147 168.134 23.6147C167.347 23.6147 166.675 23.8218 166.119 24.2361C165.563 24.6504 165.273 25.2038 165.249 25.8963H161.565C161.582 24.8487 161.881 23.9254 162.461 23.1264C163.041 22.3215 163.823 21.6941 164.805 21.2443C165.794 20.7945 166.909 20.5696 168.152 20.5696C169.407 20.5696 170.505 20.7974 171.446 21.2532C172.387 21.7089 173.118 22.3244 173.639 23.0998C174.165 23.8692 174.426 24.7333 174.42 25.6921C174.426 26.7101 174.109 27.5594 173.47 28.24C172.837 28.9207 172.011 29.3527 170.993 29.5362V29.6782C172.331 29.844 173.349 30.3056 174.047 31.0632C174.751 31.8208 175.1 32.7648 175.095 33.8952C175.1 34.931 174.802 35.8513 174.198 36.6562C173.6 37.4612 172.774 38.0944 171.721 38.5561C170.667 39.0177 169.46 39.2486 168.099 39.2486Z" fill="black"/>
    <path d="M540.283 30.0665C540.296 37.1162 537.569 43.8944 532.675 48.9682C527.781 54.042 521.105 57.0136 514.061 57.2528C507.014 57.4944 500.152 54.9817 494.925 50.254L492.89 48.2192C488.163 42.9924 485.65 36.1307 485.892 29.0839C486.131 22.0397 489.102 15.3632 494.176 10.4695C499.25 5.57567 506.028 2.84804 513.078 2.86179H540.283L540.283 30.0665Z" fill="#A4E24D"/>
    <path d="M513.137 39.2486C511.769 39.2486 510.553 39.0266 509.488 38.5827C508.428 38.1329 507.597 37.5203 506.993 36.745C506.389 35.9697 506.088 35.0908 506.088 34.1083C506.088 33.3507 506.259 32.6553 506.602 32.022C506.952 31.3828 507.425 30.8531 508.023 30.4329C508.621 30.0067 509.289 29.7345 510.029 29.6161V29.4918C509.065 29.2965 508.277 28.826 507.668 28.0802C507.058 27.3286 506.756 26.4556 506.762 25.4613C506.762 24.5202 507.037 23.6827 507.588 22.9488C508.138 22.209 508.893 21.629 509.852 21.2088C510.816 20.7826 511.911 20.5696 513.137 20.5696C514.362 20.5696 515.454 20.7826 516.412 21.2088C517.377 21.629 518.135 22.209 518.685 22.9488C519.242 23.6827 519.52 24.5202 519.52 25.4613C519.514 26.4615 519.206 27.3345 518.596 28.0802C517.987 28.826 517.206 29.2965 516.253 29.4918V29.6161C516.981 29.7345 517.641 30.0067 518.232 30.4329C518.83 30.8531 519.307 31.3828 519.662 32.022C520.017 32.6553 520.194 33.3507 520.194 34.1083C520.194 35.0908 519.89 35.9697 519.28 36.745C518.676 37.5203 517.842 38.1329 516.776 38.5827C515.717 39.0266 514.504 39.2486 513.137 39.2486ZM513.137 36.4254C514.048 36.4254 514.785 36.1827 515.347 35.6974C515.909 35.2062 516.19 34.5759 516.19 33.8064C516.19 33.0193 515.9 32.3712 515.32 31.8622C514.746 31.3532 514.018 31.0987 513.137 31.0987C512.255 31.0987 511.524 31.3532 510.944 31.8622C510.37 32.3712 510.083 33.0193 510.083 33.8064C510.083 34.5759 510.364 35.2062 510.926 35.6974C511.488 36.1827 512.225 36.4254 513.137 36.4254ZM513.137 28.3022C513.9 28.3022 514.527 28.0743 515.019 27.6186C515.516 27.1629 515.764 26.5769 515.764 25.8608C515.764 25.1565 515.519 24.5824 515.028 24.1385C514.542 23.6887 513.912 23.4638 513.137 23.4638C512.361 23.4638 511.728 23.6857 511.237 24.1296C510.751 24.5735 510.509 25.1505 510.509 25.8608C510.509 26.5769 510.754 27.1629 511.246 27.6186C511.737 28.0743 512.367 28.3022 513.137 28.3022Z" fill="black"/>
    <path d="M264.283 30.0665C264.296 37.1162 261.569 43.8944 256.675 48.9682C251.781 54.042 245.105 57.0136 238.061 57.2528C231.014 57.4944 224.152 54.9817 218.925 50.254L216.89 48.2192C212.163 42.9924 209.65 36.1307 209.892 29.0839C210.131 22.0397 213.102 15.3632 218.176 10.4695C223.25 5.57567 230.028 2.84804 237.078 2.86179H264.283L264.283 30.0665Z" fill="#F48C06"/>
    <path d="M229.871 35.804V32.7766L237.462 20.8182H242.273V32.7234H244.528V35.804H242.273V39H238.598V35.804H229.871ZM238.669 32.7234V25.0085H238.527L233.742 32.5813V32.7234H238.669Z" fill="black"/>
    <path d="M609.283 30.0665C609.296 37.1162 606.569 43.8944 601.675 48.9682C596.781 54.042 590.105 57.0136 583.061 57.2528C576.014 57.4944 569.152 54.9817 563.925 50.254L561.89 48.2192C557.163 42.9924 554.65 36.1307 554.892 29.0839C555.131 22.0397 558.102 15.3632 563.176 10.4695C568.25 5.57567 575.028 2.84804 582.078 2.86179H609.283L609.283 30.0665Z" fill="#7BC423"/>
    <path d="M581.945 20.5163C582.88 20.5163 583.779 20.6732 584.643 20.9869C585.513 21.2946 586.289 21.7947 586.969 22.4872C587.656 23.1797 588.2 24.0971 588.603 25.2393C589.005 26.3757 589.207 27.7754 589.207 29.4386C589.207 31.4923 588.902 33.2531 588.292 34.7209C587.683 36.1828 586.824 37.3043 585.718 38.0856C584.617 38.8609 583.315 39.2486 581.811 39.2486C580.598 39.2486 579.527 39.0148 578.598 38.5472C577.668 38.0737 576.92 37.4316 576.351 36.6207C575.789 35.804 575.449 34.8866 575.331 33.8686H579.121C579.269 34.5315 579.58 35.0464 580.054 35.4133C580.527 35.7744 581.113 35.9549 581.811 35.9549C582.995 35.9549 583.895 35.44 584.51 34.4102C585.126 33.3744 585.436 31.9569 585.442 30.1577H585.318C584.916 30.9567 584.3 31.584 583.472 32.0398C582.649 32.4955 581.737 32.7234 580.737 32.7234C579.666 32.7234 578.707 32.4718 577.861 31.9687C577.014 31.4597 576.349 30.7643 575.863 29.8825C575.384 29.0006 575.147 27.9915 575.153 26.8551C575.147 25.624 575.428 24.5321 575.996 23.5792C576.565 22.6204 577.358 21.8687 578.376 21.3242C579.4 20.7797 580.589 20.5104 581.945 20.5163ZM581.971 23.5348C581.077 23.5348 580.338 23.8426 579.752 24.4581C579.166 25.0736 578.876 25.8371 578.882 26.7486C578.876 27.6482 579.16 28.4058 579.734 29.0213C580.314 29.6309 581.048 29.9357 581.936 29.9357C582.522 29.9357 583.048 29.7907 583.516 29.5007C583.989 29.2107 584.362 28.823 584.635 28.3377C584.913 27.8524 585.055 27.3168 585.061 26.7308C585.055 26.1449 584.916 25.6122 584.643 25.1328C584.377 24.6475 584.013 24.2598 583.551 23.9698C583.09 23.6798 582.563 23.5348 581.971 23.5348Z" fill="black"/>
    <path d="M333.283 30.0665C333.296 37.1162 330.569 43.8944 325.675 48.9682C320.781 54.042 314.105 57.0136 307.061 57.2528C300.014 57.4944 293.152 54.9817 287.925 50.254L285.89 48.2192C281.163 42.9924 278.65 36.1307 278.892 29.0839C279.131 22.0397 282.102 15.3632 287.176 10.4695C292.25 5.57567 299.028 2.84804 306.078 2.86179H333.283L333.283 30.0665Z" fill="#FAA307"/>
    <path d="M306.202 39.2486C304.947 39.2486 303.829 39.0177 302.846 38.5561C301.864 38.0945 301.085 37.4582 300.511 36.6474C299.943 35.8365 299.647 34.9073 299.624 33.8597H303.352C303.4 34.564 303.695 35.1352 304.24 35.5731C304.784 36.0111 305.438 36.2301 306.202 36.2301C307.102 36.2301 307.841 35.9342 308.421 35.3423C309.001 34.7505 309.291 33.9811 309.291 33.0341C309.291 32.0812 308.996 31.3059 308.404 30.7081C307.818 30.1044 307.066 29.7996 306.149 29.7937C305.61 29.7937 305.092 29.9032 304.595 30.1222C304.098 30.3411 303.71 30.64 303.432 31.0188L300.014 30.4062L300.875 20.8182H311.99V23.9609H304.045L303.574 28.5153H303.681C304 28.0655 304.483 27.6926 305.128 27.3967C305.773 27.1007 306.495 26.9528 307.294 26.9528C308.389 26.9528 309.365 27.2102 310.224 27.7251C311.082 28.2401 311.76 28.9473 312.257 29.8469C312.754 30.7466 312.999 31.7764 312.994 32.9364C312.999 34.1616 312.715 35.2506 312.141 36.2035C311.573 37.1504 310.777 37.8962 309.753 38.4407C308.735 38.9793 307.551 39.2486 306.202 39.2486Z" fill="black"/>
    <path d="M678.283 30.0665C678.296 37.1162 675.569 43.8944 670.675 48.9682C665.781 54.042 659.105 57.0136 652.061 57.2528C645.014 57.4944 638.152 54.9817 632.925 50.254L630.89 48.2192C626.163 42.9924 623.65 36.1307 623.892 29.0839C624.131 22.0397 627.102 15.3632 632.176 10.4695C637.25 5.57567 644.028 2.84804 651.078 2.86179H678.283L678.283 30.0665Z" fill="#18920D"/>
    <path d="M645.62 20.8182V39H641.785V25.5234H641.616C641.421 25.8253 641.007 26.1271 640.373 26.429C639.74 26.7249 638.92 26.8728 637.914 26.8728V23.8189C638.695 23.8189 639.379 23.6472 639.965 23.304C640.551 22.9548 641.009 22.5464 641.341 22.0788C641.672 21.6053 641.844 21.1851 641.856 20.8182H645.62Z" fill="black"/>
    <path d="M657.061 39.3995C655.534 39.3936 654.22 39.0177 653.12 38.272C652.025 37.5263 651.181 36.4461 650.589 35.0316C650.003 33.617 649.713 31.9155 649.719 29.9268C649.725 26.9498 650.379 24.6475 651.681 23.0199C652.989 21.3863 654.783 20.5696 657.061 20.5696C658.582 20.5696 659.89 20.9365 660.985 21.6704C662.086 22.4043 662.933 23.4697 663.524 24.8665C664.116 26.2573 664.409 27.9441 664.403 29.9268C664.397 32.9216 663.743 35.2506 662.441 36.9137C661.139 38.5709 659.346 39.3995 657.061 39.3995ZM657.061 36.2123C658.103 36.2123 658.935 35.6885 659.556 34.641C660.177 33.5934 660.485 32.022 660.479 29.9268C660.479 27.8612 660.169 26.3106 659.547 25.2748C658.926 24.2391 658.097 23.7212 657.061 23.7212C656.026 23.7212 655.197 24.2391 654.576 25.2748C653.954 26.3106 653.64 27.8612 653.635 29.9268C653.629 32.022 653.936 33.5934 654.558 34.641C655.185 35.6885 656.02 36.2123 657.061 36.2123Z" fill="black"/>

</svg>
