<svg width="100%" height="100%" viewBox="0 0 273 205" fill="none" xmlns="http://www.w3.org/2000/svg">
<path d="M127.938 198.762C127.938 201.895 99.2626 202.229 63.9692 204.435C28.7088 206.639 0 201.895 0 198.762C0 195.629 28.841 189.325 63.9692 193.089C99.2626 196.871 127.938 195.629 127.938 198.762Z" fill="#E6E6E6"/>
<path d="M262.823 0.00034177H187C183.342 0.000337792 179.792 1.24533 176.934 3.53068C174.076 5.81602 172.081 9.0057 171.277 12.5754L132.965 182.531C132.547 184.385 132.54 186.308 132.943 188.164C133.347 190.021 134.152 191.767 135.302 193.28C136.451 194.793 137.918 196.036 139.599 196.922C141.28 197.808 143.134 198.316 145.032 198.41L222.978 202.25C227.152 202.456 231.258 201.136 234.53 198.536C237.802 195.937 240.017 192.235 240.761 188.123L262.493 67.9621L264.11 68.4241L268.268 45.6492L266.604 45.2331L272.671 11.692C272.93 10.2553 272.87 8.77905 272.494 7.36838C272.118 5.95771 271.435 4.64738 270.495 3.53081C269.554 2.41423 268.379 1.51891 267.053 0.908659C265.727 0.298411 264.283 -0.0117327 262.823 0.000339365L262.823 0.00034177Z" fill="#3F3D56"/>
<path d="M196.983 3.66407H188.132C185.59 3.66407 183.125 4.53347 181.145 6.12795C179.166 7.72244 177.791 9.94609 177.249 12.4298L140.475 180.999C140.263 181.969 140.264 182.974 140.476 183.945C140.688 184.915 141.107 185.828 141.704 186.622C142.302 187.415 143.063 188.071 143.937 188.543C144.811 189.015 145.776 189.294 146.767 189.358L224.461 194.451C226.653 194.595 228.821 193.926 230.552 192.573C232.282 191.22 233.454 189.277 233.843 187.115L265.223 12.8826C265.426 11.7549 265.379 10.5963 265.085 9.48868C264.792 8.38106 264.259 7.35135 263.524 6.47222C262.789 5.5931 261.87 4.88597 260.833 4.40076C259.795 3.91555 258.663 3.66407 257.517 3.66407H249.121C248.308 3.66407 247.518 3.932 246.873 4.42639C246.228 4.92078 245.764 5.61404 245.553 6.39884C245.366 7.09169 244.957 7.70372 244.387 8.14018C243.818 8.57663 243.12 8.81317 242.403 8.81317H202.542C201.138 8.81317 199.785 8.28283 198.754 7.32818C197.723 6.37354 197.09 5.06495 196.983 3.66406V3.66407Z" fill="white"/>
<path d="M113.817 90.3705L120.668 103.934L141.151 113.247C143.338 116.944 150.289 117.227 150.795 114.836C151.362 112.154 142.354 107.837 142.354 107.837L125.221 96.2476L123.722 86.2705L113.817 90.3705Z" fill="#A0616A"/>
<path d="M114.626 181.394L113.362 191.502L120.69 192.007L121.448 181.394H114.626Z" fill="#A0616A"/>
<path d="M115.636 189.985C114.981 189.293 114.377 188.553 113.828 187.774C112.778 186.32 111.846 193.776 111.846 193.776C111.846 193.776 110.836 196.808 111.088 198.324C111.341 199.841 117.152 199.841 118.163 199.588C119.174 199.335 124.227 199.588 124.227 199.588H131.807C138.377 196.556 131.807 194.534 131.807 194.534C129.786 194.281 122.964 187.964 122.964 187.964L121.448 185.184C120.437 184.931 119.426 188.722 119.426 188.722L115.636 189.985Z" fill="#2F2E41"/>
<path d="M95.6757 181.52L94.4121 191.628L101.74 192.133L102.498 181.52H95.6757Z" fill="#A0616A"/>
<path d="M96.6862 190.111C96.0312 189.419 95.4269 188.679 94.8781 187.9C93.828 186.446 92.8962 193.902 92.8962 193.902C92.8962 193.902 91.8855 196.682 92.1382 198.198C92.3909 199.714 98.2023 199.714 99.213 199.461C100.224 199.209 105.277 199.714 105.277 199.714H112.857C119.426 196.682 112.857 194.66 112.857 194.66C110.836 194.407 104.014 188.09 104.014 188.09L102.498 185.31C101.487 185.057 100.476 188.848 100.476 188.848L96.6862 190.111Z" fill="#2F2E41"/>
<path d="M104.014 116.322C103.003 117.586 103.508 121.882 103.508 121.882C103.508 121.882 101.74 135.78 102.498 137.044C103.256 138.307 101.992 139.318 101.234 141.087C100.476 142.856 99.7184 147.152 99.7184 147.152C95.423 150.69 95.6757 166.863 95.6757 166.863L94.1597 181.267C94.665 182.783 101.74 183.036 102.75 182.783C103.761 182.53 106.793 159.787 106.793 159.787L113.615 146.899C113.615 146.899 113.11 181.267 113.11 182.783C113.11 184.299 119.932 183.541 121.448 183.541C122.964 183.541 122.964 158.271 122.964 158.271L124.48 151.701L132.565 121.629V118.091L131.302 116.322C131.302 116.322 105.024 115.059 104.014 116.322Z" fill="#2F2E41"/>
<path d="M115.131 58.9585C119.457 58.9585 122.964 55.4513 122.964 51.1248C122.964 46.7983 119.457 43.291 115.131 43.291C110.805 43.291 107.298 46.7983 107.298 51.1248C107.298 55.4513 110.805 58.9585 115.131 58.9585Z" fill="#A0616A"/>
<path d="M119.047 54.7891C117.46 58.325 118.4 63.2638 121.574 68.6877L108.688 62.6228L110.709 60.8539L110.204 55.7999L119.047 54.7891Z" fill="#A0616A"/>
<path d="M119.047 62.8761C120.735 63.8795 121.744 65.723 122.324 67.5989C123.396 71.0719 124.042 74.6627 124.247 78.2919L124.859 89.1572L132.439 117.965C125.869 123.525 122.079 122.261 113.236 117.712C104.393 113.164 103.382 119.229 103.382 119.229C103.382 119.229 102.624 118.976 103.382 118.218C104.14 117.46 103.382 118.218 102.624 117.46C101.866 116.702 102.624 117.46 102.876 116.702C103.129 115.944 102.876 116.449 102.624 116.196C102.371 115.944 103.634 113.669 103.634 113.669L101.613 94.7166L99.0864 67.9301C102.118 64.1396 110.709 60.8545 110.709 60.8545L118.542 66.4139C121.069 67.4247 119.047 63.3815 119.047 63.3815L119.047 62.8761Z" fill="#114B5F"/>
<path d="M94.9174 83.9766L93.9067 99.1387L106.793 117.586C106.793 121.882 109.067 122.893 109.067 122.893C109.928 121.518 110.688 120.082 111.341 118.597C112.604 115.817 110.583 113.543 110.583 113.543L101.739 94.8428L105.53 85.4928L94.9174 83.9766Z" fill="#A0616A"/>
<path d="M99.2131 68.0563C94.9177 69.5725 94.1597 85.9982 94.1597 85.9982C99.2131 83.2185 105.277 87.7671 105.277 87.7671C105.277 87.7671 106.54 83.4712 108.056 77.9118C108.514 76.348 108.569 74.6938 108.216 73.1031C107.862 71.5125 107.112 70.0372 106.035 68.8145C106.035 68.8145 103.508 66.5402 99.2131 68.0563Z" fill="#114B5F"/>
<path d="M107.93 53.5256C108.927 52.7278 110.288 54.178 110.288 54.178L111.085 46.9976C111.085 46.9976 116.071 47.596 119.262 46.7982C122.453 46.0004 122.951 49.6903 122.951 49.6903C123.116 48.2002 123.149 46.6985 123.051 45.2025C122.852 43.4075 120.259 41.6123 115.672 40.4156C111.085 39.2189 108.692 44.4047 108.692 44.4047C105.501 46.0004 106.933 54.3235 107.93 53.5256Z" fill="#2F2E41"/>
<path d="M241.074 121.508C241.226 121.514 241.375 121.465 241.495 121.37C241.614 121.276 241.695 121.141 241.724 120.992L259.146 26.155C259.162 26.0647 259.159 25.9719 259.136 25.883C259.113 25.7942 259.071 25.7114 259.013 25.6405C258.954 25.5697 258.881 25.5124 258.798 25.4727C258.716 25.433 258.625 25.4119 258.533 25.4108L179.273 24.4873H179.266C179.122 24.4878 178.984 24.5368 178.872 24.6262C178.76 24.7156 178.682 24.8402 178.65 24.9797L158.113 116.738C158.093 116.828 158.093 116.921 158.112 117.011C158.132 117.1 158.171 117.185 158.227 117.258C158.282 117.331 158.353 117.391 158.434 117.434C158.516 117.477 158.605 117.501 158.697 117.505L241.074 121.508Z" fill="#E6E6E6"/>
<path d="M172.096 127.566C172.025 127.566 171.956 127.591 171.901 127.635C171.845 127.679 171.806 127.741 171.79 127.81L171.058 130.948C171.048 130.992 171.047 131.038 171.056 131.083C171.065 131.128 171.084 131.17 171.111 131.207C171.138 131.243 171.173 131.274 171.213 131.296C171.253 131.318 171.297 131.331 171.343 131.334L212.696 134.273C212.772 134.278 212.848 134.255 212.909 134.208C212.97 134.162 213.012 134.094 213.027 134.019L213.731 130.389C213.74 130.345 213.739 130.3 213.729 130.256C213.718 130.212 213.699 130.171 213.671 130.136C213.644 130.1 213.609 130.071 213.569 130.05C213.529 130.029 213.486 130.017 213.441 130.014L172.116 127.567C172.109 127.567 172.103 127.566 172.096 127.566Z" fill="#E6E6E6"/>
<path d="M222.338 145.932C222.412 145.938 222.486 145.917 222.547 145.873C222.608 145.83 222.651 145.766 222.669 145.693L223.565 142.056C223.576 142.011 223.577 141.964 223.568 141.919C223.559 141.874 223.541 141.832 223.514 141.794C223.486 141.757 223.452 141.726 223.411 141.704C223.371 141.682 223.327 141.669 223.281 141.666L170.471 137.972C170.399 137.966 170.328 137.985 170.269 138.026C170.21 138.067 170.167 138.127 170.147 138.196L169.216 141.34C169.202 141.385 169.199 141.432 169.206 141.479C169.214 141.525 169.231 141.569 169.258 141.608C169.284 141.646 169.319 141.679 169.36 141.702C169.4 141.726 169.446 141.74 169.493 141.743L222.338 145.932Z" fill="#E6E6E6"/>
<path d="M219.501 157.592C219.576 157.598 219.65 157.578 219.711 157.534C219.771 157.49 219.815 157.426 219.832 157.354L220.729 153.716C220.74 153.671 220.741 153.625 220.732 153.579C220.723 153.534 220.704 153.492 220.677 153.455C220.65 153.417 220.615 153.387 220.575 153.364C220.535 153.342 220.49 153.329 220.444 153.326L167.635 149.632C167.563 149.626 167.492 149.645 167.432 149.686C167.373 149.727 167.33 149.787 167.31 149.857L166.379 153C166.366 153.045 166.363 153.092 166.37 153.139C166.377 153.185 166.395 153.229 166.421 153.268C166.448 153.307 166.483 153.339 166.523 153.362C166.564 153.386 166.609 153.4 166.656 153.404L219.501 157.592Z" fill="#E6E6E6"/>
<path d="M195.18 177.597C195.255 177.605 195.33 177.585 195.392 177.542C195.454 177.498 195.497 177.433 195.515 177.36L197.41 169.78C197.421 169.736 197.422 169.689 197.414 169.644C197.405 169.6 197.387 169.557 197.36 169.52C197.334 169.483 197.299 169.452 197.26 169.429C197.22 169.407 197.176 169.393 197.13 169.389L164.7 166.661C164.624 166.656 164.549 166.678 164.488 166.723C164.426 166.767 164.383 166.833 164.366 166.907L162.749 174.181C162.74 174.225 162.739 174.27 162.748 174.314C162.757 174.358 162.776 174.399 162.802 174.435C162.828 174.471 162.862 174.501 162.901 174.524C162.94 174.546 162.983 174.559 163.027 174.564L195.18 177.597Z" fill="#114B5F"/>
<path d="M221.612 59.0858C220.278 57.2549 217.852 56.1538 215.496 55.4905C215.582 55.2781 208.344 53.2842 208.201 53.5885L205.58 51.2057L196.798 55.0627L192.236 51.5018L189.967 52.1441C190.083 51.759 183.03 52.5117 183.03 52.5117C181.695 52.4727 179.988 52.4451 178.074 52.4674C171.37 52.5454 169.73 69.7861 169.73 69.7861C172.881 68.7309 176.198 68.2592 179.518 68.3943L179.973 89.1759C189.298 88.9853 198.963 90.5452 208.892 93.4667L214.679 77.5321L225.966 73.9692C225.966 73.9692 224.765 63.4136 221.612 59.0858Z" fill="#3F3D56"/>
</svg>
