<svg width="100%" height="100%" viewBox="0 0 70 70" fill="none" xmlns="http://www.w3.org/2000/svg">
<path d="M52.4764 60.1291C50.4667 59.9918 48.2531 59.085 46.1094 57.2051C39.3263 51.2605 33.8095 41.9599 27.8136 38.9366C21.8177 35.9111 20.1392 31.2648 22.8575 25.1403C24.5233 21.3896 24.2541 12.8019 23.7948 6.71044C23.5038 2.85507 23.1374 0 23.1374 0L39.1784 0.0357819C39.1784 0.0357819 39.3236 21.827 41.7269 26.7237C44.1301 31.62 59.4421 45.2048 59.9073 52.2848C60.2251 57.1282 56.8263 60.4287 52.4764 60.1291Z" fill="#4695BC"/>
<path d="M52.4764 60.1296C50.4667 59.9923 48.2531 59.0855 46.1094 57.2056C39.3263 51.261 33.8095 41.9604 27.8136 38.9371C21.8177 35.9116 20.1392 31.2653 22.8575 25.1407C24.5233 21.3901 24.2541 12.8024 23.7948 6.71094L31.7432 6.72803C31.7432 6.72803 31.8885 28.5197 34.2917 33.416C36.695 38.3122 52.007 51.8955 52.4721 58.9771C52.4978 59.3723 52.4994 59.7557 52.4764 60.1296Z" fill="#0E708E"/>
<path d="M22.8575 25.1406L34.226 27.9605L30.0727 40.3688C29.3255 39.8037 28.5741 39.3204 27.8136 38.9369C21.8177 35.9115 20.1392 31.2652 22.8575 25.1406V25.1406Z" fill="#343C3F"/>
<path d="M52.4766 60.129C52.4707 60.129 52.4654 60.1274 52.4595 60.129C50.9775 60.0232 49.386 59.4999 47.7939 58.4787C48.3136 56.2378 49.0479 54.3798 49.8794 52.845C52.8915 47.2769 57.179 45.9492 57.179 45.9492C58.7336 48.3108 59.7905 50.5031 59.9075 52.2847C60.2252 57.1281 56.8265 60.4297 52.4766 60.129V60.129Z" fill="#515A5E"/>
<path d="M52.4766 60.1297C52.4707 60.1297 52.4653 60.1281 52.4595 60.1297C50.9775 60.024 49.386 59.5006 47.7939 58.4795C48.3136 56.2386 49.0479 54.3806 49.8794 52.8457C51.3598 55.1304 52.358 57.2469 52.4723 58.9772C52.4979 59.3724 52.4995 59.7559 52.4766 60.1297V60.1297Z" fill="#343C3F"/>
<path d="M28.5841 9.88681C28.5841 9.88681 28.7293 31.679 31.1321 36.5753C33.5348 41.471 48.8473 55.0558 49.313 62.1364C49.7782 69.2169 42.2976 73.0028 35.5151 67.0572C28.732 61.111 23.2152 51.812 17.2188 48.7871C11.2229 45.7627 9.54489 41.1164 12.2638 34.9918C14.9827 28.8667 12.5431 9.85156 12.5431 9.85156L28.5841 9.88681Z" fill="#4695BC"/>
<path d="M12.2631 34.9922L23.6316 37.812L19.4782 50.2203C18.731 49.6553 17.9791 49.172 17.2191 48.7885C11.2232 45.7631 9.54416 41.1168 12.2631 34.9922V34.9922Z" fill="#515A5E"/>
<path d="M37.1992 68.3303C39.6052 57.9616 46.5837 55.8008 46.5837 55.8008C48.1383 58.1624 49.1952 60.3547 49.3122 62.1358C49.7384 68.6342 43.476 72.3566 37.1992 68.3303V68.3303Z" fill="#515A5E"/>
</svg>
