<svg width="237" height="243" viewBox="0 0 237 243" fill="none" xmlns="http://www.w3.org/2000/svg">
    <path d="M236.918 94.539V94.5445C233.078 103.4 225.143 111.798 216.347 117.247C210.089 121.128 203.395 123.516 197.423 123.516L186.841 85.2847V225.485C186.841 225.485 170.34 242.907 118.853 242.907C95.0917 242.907 78.7826 239.194 68.1089 235.199C55.6497 230.538 50.8645 225.485 50.8645 225.485V85.2847L40.2832 123.516C31.2858 123.516 20.6472 118.097 12.3356 110.325C7.37667 105.684 3.24394 100.206 0.787598 94.5445V94.539C10.2045 60.1002 19.8451 37.7639 19.8451 37.7639C38.86 18.749 68.6282 8.15839 68.6282 8.15839H169.078C169.078 8.15839 198.846 18.749 217.861 37.7639C217.861 37.7639 227.502 60.1002 236.918 94.539V94.539Z" fill="#D1495B"/>
    <path d="M94.4245 8.15839L78.3279 26.3971C61.1668 28.7647 16.2613 44.7633 12.3356 110.325C7.37667 105.684 3.24394 100.206 0.787598 94.5445V94.539C10.2045 60.1002 19.8451 37.7639 19.8451 37.7639C38.86 18.749 68.6282 8.15839 68.6282 8.15839H94.4245Z" fill="#141414" fill-opacity="0.1"/>
    <path d="M45.1666 105.871L40.2816 123.525C25.9151 123.525 7.36031 109.702 0.78418 94.5482V94.5445C3.36991 85.0759 5.97966 76.5239 8.39719 69.0976C18.1764 100.339 44.7415 105.782 45.1666 105.871Z" fill="#CCE6F6"/>
    <path d="M12.3355 110.325C12.8899 101.054 14.2651 92.7757 16.2649 85.3864C13.1764 80.9431 10.4262 75.5776 8.39681 69.0994C5.97927 76.5239 3.37507 85.0722 0.785645 94.539V94.5445C3.24384 100.206 7.37656 105.684 12.3355 110.325Z" fill="#141414" fill-opacity="0.1"/>
    <path d="M216.348 117.247C210.09 121.128 203.395 123.516 197.423 123.516L186.842 85.2847C186.842 85.2847 184.619 65.9445 192.518 56.5701L216.348 117.247Z" fill="#141414" fill-opacity="0.1"/>
    <path d="M236.923 94.5445V94.5482C230.341 109.702 211.786 123.525 197.42 123.525L192.535 105.871C192.96 105.782 219.525 100.339 229.304 69.0976C231.725 76.5239 234.331 85.0759 236.923 94.5445V94.5445Z" fill="#CCE6F6"/>
    <path d="M208.855 98.169C200.358 104.253 192.808 105.813 192.54 105.869L197.423 123.516C203.395 123.516 210.089 121.128 216.348 117.247L208.855 98.169Z" fill="#141414" fill-opacity="0.1"/>
    <path d="M68.1095 73.8144V235.199C55.6503 230.538 50.8633 225.485 50.8633 225.485V85.2847C50.8633 85.2847 53.6135 73.8144 68.1095 73.8144V73.8144Z" fill="#141414" fill-opacity="0.1"/>
    <path d="M186.842 208.932V225.485C186.842 225.485 170.34 242.912 118.853 242.912C95.0919 242.912 78.7828 239.199 68.1091 235.205C55.6499 230.538 50.8647 225.485 50.8647 225.485V208.932C50.8647 208.932 55.6499 213.985 68.1091 218.648C78.7828 222.642 95.0919 226.356 118.853 226.356C170.34 226.356 186.842 208.932 186.842 208.932V208.932Z" fill="#CCE6F6"/>
    <path d="M68.1095 218.648V235.205C55.6503 230.538 50.8633 225.485 50.8633 225.485V208.932C50.8633 208.932 55.6503 213.985 68.1095 218.648Z" fill="#141414" fill-opacity="0.1"/>
    <path d="M169.08 8.15655C169.08 21.514 146.59 43.5749 118.855 43.5749C91.1144 43.5749 68.6284 21.514 68.6284 8.15655C68.6284 8.15655 70.948 7.38582 75.0123 6.33231C83.6086 4.11254 100.018 0.656281 118.855 0.656281C137.685 0.656281 154.105 4.11254 162.698 6.33231C166.76 7.38582 169.08 8.15655 169.08 8.15655V8.15655Z" fill="#CCE6F6"/>
    <path d="M162.698 6.33231C162.138 18.1723 142.724 37.093 118.855 37.093C94.9795 37.093 75.5709 18.1723 75.0127 6.33231C83.609 4.11254 100.018 0.656281 118.855 0.656281C137.686 0.656281 154.106 4.11254 162.698 6.33231Z" fill="#141414" fill-opacity="0.1"/>
    <path d="M124.624 18.1594H113.081C111.033 18.1594 109.374 16.4996 109.374 14.4517C109.374 12.4039 111.033 10.7441 113.081 10.7441H124.624C126.671 10.7441 128.331 12.4039 128.331 14.4517C128.331 16.4996 126.671 18.1594 124.624 18.1594Z" fill="#CCE6F6"/>
</svg>
