<svg width="515" height="301" viewBox="0 0 515 301" fill="none" xmlns="http://www.w3.org/2000/svg">
<path d="M509.48 5.23475e-05H4.28133C3.15148 -0.00555168 2.06569 0.438999 1.26279 1.23592C0.459885 2.03284 0.00565214 3.11686 0 4.24952V33.1459H513.761V4.24952C513.755 3.11686 513.301 2.03284 512.498 1.23592C511.695 0.438999 510.61 -0.00555168 509.48 5.23475e-05Z" fill="#114B5F"/>
<path d="M451.774 21.3727C454.675 21.3727 457.026 19.0212 457.026 16.1205C457.026 13.2197 454.675 10.8682 451.774 10.8682C448.873 10.8682 446.522 13.2197 446.522 16.1205C446.522 19.0212 448.873 21.3727 451.774 21.3727Z" fill="white"/>
<path d="M468.581 21.3727C471.481 21.3727 473.833 19.0212 473.833 16.1205C473.833 13.2197 471.481 10.8682 468.581 10.8682C465.68 10.8682 463.329 13.2197 463.329 16.1205C463.329 19.0212 465.68 21.3727 468.581 21.3727Z" fill="white"/>
<path d="M485.387 21.3727C488.288 21.3727 490.639 19.0212 490.639 16.1205C490.639 13.2197 488.288 10.8682 485.387 10.8682C482.487 10.8682 480.135 13.2197 480.135 16.1205C480.135 19.0212 482.487 21.3727 485.387 21.3727Z" fill="white"/>
<path d="M379.498 121.328H325.2V130.661H379.498V121.328Z" fill="#114B5F"/>
<path d="M477.913 148.478H325.2V157.81H477.913V148.478Z" fill="#114B5F"/>
<path d="M477.913 163.75H325.2V173.083H477.913V163.75Z" fill="#114B5F"/>
<path d="M477.913 179.022H325.2V188.355H477.913V179.022Z" fill="#114B5F"/>
<path d="M348.954 212.623C348.954 215.015 348.247 217.352 346.921 219.341C345.596 221.329 343.712 222.879 341.508 223.794C339.304 224.709 336.879 224.949 334.539 224.482C332.199 224.015 330.05 222.864 328.363 221.173C326.676 219.482 325.527 217.328 325.061 214.982C324.596 212.637 324.835 210.206 325.748 207.996C326.661 205.787 328.207 203.899 330.19 202.57C332.174 201.241 334.506 200.532 336.892 200.532C340.091 200.532 343.159 201.806 345.421 204.074C347.683 206.341 348.954 209.417 348.954 212.623ZM335.495 219.022L344.477 210.054C344.55 209.982 344.608 209.895 344.648 209.801C344.687 209.706 344.708 209.604 344.708 209.501C344.708 209.398 344.687 209.296 344.648 209.201C344.608 209.106 344.55 209.02 344.477 208.948L343.381 207.848C343.308 207.775 343.223 207.717 343.128 207.677C343.033 207.638 342.931 207.617 342.829 207.617C342.726 207.617 342.624 207.638 342.53 207.677C342.435 207.717 342.349 207.775 342.277 207.848L334.978 215.165L331.57 211.748C331.498 211.675 331.413 211.617 331.319 211.578C331.225 211.538 331.123 211.518 331.021 211.518C330.919 211.518 330.818 211.538 330.724 211.578C330.63 211.617 330.545 211.675 330.473 211.748L329.37 212.847C329.225 212.995 329.145 213.194 329.145 213.4C329.145 213.607 329.225 213.806 329.37 213.954L334.426 219.022C334.498 219.096 334.584 219.154 334.679 219.193C334.774 219.233 334.875 219.254 334.978 219.254C335.081 219.254 335.182 219.233 335.277 219.193C335.372 219.154 335.458 219.096 335.53 219.022H335.495Z" fill="#D0CDE1"/>
<path d="M194.231 119.723C191.838 116.851 187.725 115.299 183.774 114.46C183.893 114.101 171.762 111.595 171.559 112.112L166.987 108.47L152.941 115.764L145.048 110.39L141.381 111.692C141.53 111.045 129.999 113.042 129.999 113.042C127.796 113.121 124.982 113.259 121.833 113.501C110.803 114.35 109.955 142.913 109.955 142.913C115.03 140.837 120.441 139.704 125.922 139.57L128.903 223.207C144.236 221.892 160.316 223.422 176.979 227.166L184.795 150.84L202.997 143.761C202.997 143.761 199.887 126.51 194.231 119.723Z" fill="#114B5F"/>
<rect x="1.11279" y="1" width="512.887" height="298.694" rx="2" stroke="#114B5F" stroke-width="2"/>
</svg>
