<svg width="100%" height="100%" viewBox="0 0 282 349" fill="none" xmlns="http://www.w3.org/2000/svg">
<path d="M281.098 111.609V111.616C276.532 122.143 267.099 132.127 256.642 138.605C249.202 143.219 241.244 146.058 234.144 146.058L221.565 100.608V267.281C221.565 267.281 201.948 287.993 140.739 287.993C112.49 287.993 93.1018 283.578 80.4126 278.83C65.6008 273.289 59.9121 267.281 59.9121 267.281V100.608L47.3328 146.058C36.6365 146.058 23.989 139.616 14.1079 130.376C8.21265 124.859 3.29956 118.346 0.379395 111.616V111.609C11.5745 70.6677 23.0354 44.1138 23.0354 44.1138C45.6409 21.5083 81.03 8.91797 81.03 8.91797H200.447C200.447 8.91797 235.836 21.5083 258.442 44.1138C258.442 44.1138 269.903 70.6677 281.098 111.609Z" fill="#D1495B"/>
<path d="M111.697 8.91797L92.5613 30.6006C72.1597 33.4153 18.7749 52.4348 14.1079 130.376C8.21265 124.859 3.29956 118.346 0.379395 111.616V111.609C11.5745 70.6677 23.0354 44.1138 23.0354 44.1138C45.6409 21.5083 81.03 8.91797 81.03 8.91797H111.697Z" fill="#141414" fill-opacity="0.1"/>
<path d="M53.1379 125.082L47.3306 146.07C30.2512 146.07 8.19287 129.637 0.375 111.622V111.617C3.44897 100.361 6.55151 90.1938 9.42554 81.3652C21.0513 118.506 52.6326 124.977 53.1379 125.082Z" fill="#CCE6F6"/>
<path d="M14.1077 130.377C14.7668 119.356 16.4016 109.514 18.7791 100.729C15.1074 95.4473 11.8379 89.0686 9.42529 81.3672C6.55127 90.1936 3.45532 100.356 0.376953 111.61V111.617C3.29932 118.347 8.2124 124.86 14.1077 130.377Z" fill="#141414" fill-opacity="0.1"/>
<path d="M256.642 138.607C249.202 143.221 241.244 146.06 234.144 146.06L221.565 100.609C221.565 100.609 218.922 77.6172 228.313 66.4727L256.642 138.607Z" fill="#141414" fill-opacity="0.1"/>
<path d="M281.102 111.617V111.622C273.278 129.637 251.219 146.07 234.14 146.07L228.333 125.082C228.838 124.977 260.419 118.506 272.045 81.3652C274.923 90.1938 278.021 100.361 281.102 111.617Z" fill="#CCE6F6"/>
<path d="M247.734 115.926C237.633 123.159 228.657 125.014 228.339 125.08L234.144 146.059C241.243 146.059 249.202 143.22 256.642 138.606L247.734 115.926Z" fill="#141414" fill-opacity="0.1"/>
<path d="M80.4128 86.9727V278.831C65.6011 273.29 59.9102 267.282 59.9102 267.282V100.609C59.9102 100.609 63.1797 86.9727 80.4128 86.9727Z" fill="#141414" fill-opacity="0.1"/>
<path d="M221.565 247.604V267.282C221.565 267.282 201.948 288 140.739 288C112.49 288 93.1018 283.586 80.4126 278.838C65.6008 273.29 59.9121 267.282 59.9121 267.282V247.604C59.9121 247.604 65.6008 253.611 80.4126 259.155C93.1018 263.903 112.49 268.317 140.739 268.317C201.948 268.317 221.565 247.604 221.565 247.604Z" fill="#CCE6F6"/>
<path d="M80.4128 259.155V278.838C65.6011 273.29 59.9102 267.282 59.9102 267.282V247.604C59.9102 247.604 65.6011 253.611 80.4128 259.155Z" fill="#141414" fill-opacity="0.1"/>
<path d="M200.449 8.9165C200.449 24.7961 173.713 51.0227 140.741 51.0227C107.762 51.0227 81.0303 24.7961 81.0303 8.9165C81.0303 8.9165 83.7878 8.00024 88.6196 6.7478C98.8391 4.10889 118.346 0 140.741 0C163.127 0 182.647 4.10889 192.862 6.7478C197.692 8.00024 200.449 8.9165 200.449 8.9165Z" fill="#CCE6F6"/>
<path d="M192.862 6.7478C192.196 20.8235 169.116 43.3169 140.74 43.3169C112.356 43.3169 89.2827 20.8235 88.6191 6.7478C98.8386 4.10889 118.346 0 140.74 0C163.126 0 182.647 4.10889 192.862 6.7478Z" fill="#141414" fill-opacity="0.2"/>
<path d="M147.598 20.8076H133.876C131.442 20.8076 129.469 18.8345 129.469 16.3999C129.469 13.9653 131.442 11.9922 133.876 11.9922H147.598C150.033 11.9922 152.006 13.9653 152.006 16.3999C152.006 18.8345 150.033 20.8076 147.598 20.8076Z" fill="#CCE6F6"/>
<path d="M258.671 292.99C258.696 306.117 253.617 318.74 244.504 328.188C235.391 337.636 222.958 343.17 209.84 343.615C196.718 344.065 183.941 339.386 174.207 330.582L170.418 326.793C161.615 317.06 156.936 304.282 157.385 291.16C157.83 278.042 163.364 265.609 172.812 256.496C182.261 247.383 194.883 242.304 208.011 242.329H258.671L258.671 292.99Z" fill="#A4E24D"/>
<path d="M205.727 302.955V302.122C205.744 299.263 205.997 296.985 206.487 295.286C206.993 293.587 207.72 292.223 208.668 291.194C209.631 290.148 210.799 289.193 212.172 288.327C213.674 287.363 214.94 286.318 215.969 285.191C216.999 284.047 217.513 282.675 217.513 281.074C217.513 279.375 216.925 278.02 215.749 277.007C214.589 275.978 213.184 275.463 211.534 275.463C209.934 275.463 208.496 275.986 207.222 277.031C205.964 278.077 205.294 279.596 205.213 281.589H195.216C195.297 278.322 196.081 275.618 197.568 273.478C199.054 271.338 201.023 269.746 203.473 268.7C205.923 267.655 208.627 267.132 211.583 267.132C214.834 267.132 217.709 267.671 220.208 268.749C222.708 269.811 224.668 271.355 226.089 273.38C227.51 275.406 228.221 277.848 228.221 280.707C228.221 283.582 227.527 285.975 226.138 287.886C224.766 289.797 222.936 291.431 220.65 292.787C218.722 293.946 217.309 295.196 216.411 296.536C215.512 297.875 215.047 299.737 215.014 302.122V302.955H205.727ZM210.554 318.637C208.937 318.637 207.549 318.065 206.389 316.922C205.229 315.778 204.657 314.39 204.674 312.756C204.657 311.156 205.229 309.783 206.389 308.64C207.549 307.496 208.937 306.925 210.554 306.925C212.123 306.925 213.487 307.496 214.646 308.64C215.822 309.783 216.419 311.156 216.435 312.756C216.419 314.39 215.822 315.778 214.646 316.922C213.487 318.065 212.123 318.637 210.554 318.637Z" fill="#114B5F"/>
</svg>
