<svg width="100%" height="100%" viewBox="0 0 281 205" fill="none" xmlns="http://www.w3.org/2000/svg">
<path d="M156.846 201.754C212.689 201.754 257.958 156.59 257.958 100.877C257.958 45.1642 212.689 0 156.846 0C101.004 0 55.7349 45.1642 55.7349 100.877C55.7349 156.59 101.004 201.754 156.846 201.754Z" fill="#F2F2F2"/>
<path d="M77.518 19.6034L78.2368 34.5528C81.2161 38.5173 84.4302 43.0541 87.6024 47.9985L88.0553 25.1916L88.3053 25.351C84.6359 22.7358 80.9058 20.7349 77.2681 19.4648L77.518 19.6034Z" fill="#114B5F"/>
<path d="M77.713 33.8579L77.0169 19.3768C72.9314 17.9867 68.9673 17.5255 65.3439 18.1702C65.1554 18.2038 64.9701 18.2424 64.7852 18.2815C65.7059 19.267 71.0711 25.0869 77.713 33.8579Z" fill="#114B5F"/>
<path d="M110.701 51.6926L110.942 51.9222C109.952 50.0642 108.903 48.2578 107.794 46.5029L101.037 73.0264L100.923 72.9259C101.411 74.0894 101.876 75.2451 102.316 76.3928L110.701 51.6926Z" fill="#114B5F"/>
<path d="M100.408 36.6143L100.657 36.813C97.0849 32.5904 93.0241 28.8047 88.5594 25.5352L88.0977 48.7766C91.0496 53.4244 93.6926 58.0023 96.0265 62.5105L100.408 36.6143Z" fill="#114B5F"/>
<path d="M51.3965 43.8701C51.7761 47.7875 52.5514 51.6566 53.7106 55.4185L94.0012 59.5646C91.8978 55.6949 89.7266 52.0644 87.6187 48.7555L51.4989 44.1862L51.3965 43.8701Z" fill="#114B5F"/>
<path d="M55.1764 59.7568L55.0679 59.4413L95.8456 63.0575C95.353 62.0962 94.8549 61.1476 94.3512 60.2117L53.912 56.0503L53.8057 55.7344C54.2132 57.0603 54.6701 58.4012 55.1764 59.7568Z" fill="#114B5F"/>
<path d="M107.334 45.9503L107.579 46.1659C105.558 42.9936 103.324 39.9611 100.893 37.0889L96.4517 63.3352C97.9908 66.3501 99.3849 69.3226 100.634 72.2527L107.334 45.9503Z" fill="#114B5F"/>
<path d="M106.472 89.7933C108.093 96.7899 108.707 103.405 108.301 109.567C110.582 104.719 119.254 84.6374 116.012 65.9219L106.472 89.7933Z" fill="#114B5F"/>
<path d="M62.6572 73.9014C64.8149 76.801 67.1649 79.5532 69.6914 82.1394L69.593 81.7888L105.866 89.2338C104.922 85.3269 103.745 81.48 102.339 77.7138L62.6572 73.9014Z" fill="#114B5F"/>
<path d="M77.3999 34.1022C70.2114 24.6144 64.5394 18.6177 64.4578 18.5319L64.5512 18.332C59.0962 19.5676 55.2447 23.2704 53.1255 28.63L77.3999 34.1022Z" fill="#114B5F"/>
<path d="M102.652 77.2836C102.786 77.6405 102.922 77.9982 103.051 78.3535C104.297 81.7584 105.356 85.2284 106.224 88.7481L115.673 65.103L115.904 65.334C115.306 62.0438 114.292 58.8424 112.887 55.8064C112.33 54.616 111.746 53.4436 111.137 52.2891L102.652 77.2836Z" fill="#114B5F"/>
<path d="M87.1967 48.0962C84.0571 43.2101 80.8793 38.7279 77.9341 34.81L53.1027 29.2121L53.0185 28.8994C51.4684 32.9723 50.9016 37.9757 51.3711 43.564L87.1967 48.0962Z" fill="#114B5F"/>
<path d="M106.013 89.8554L70.0054 82.4648C85.1509 97.9763 106.34 109.872 107.693 110.624C108.324 103.79 107.608 96.7704 106.013 89.8554Z" fill="#114B5F"/>
<path d="M102.084 77.0772L102.092 77.0536C100.361 72.4997 98.3849 68.0422 96.173 63.7003L55.2949 60.0752C55.9889 61.9088 56.7733 63.7619 57.648 65.6348C58.9221 68.303 60.4374 70.8496 62.1752 73.2431L102.084 77.0772Z" fill="#114B5F"/>
<path d="M154.083 69.9571L145.079 81.9284C144.839 86.8777 144.415 92.4171 143.697 98.2438L158.626 80.9664L158.717 81.2482C157.562 76.8991 155.969 72.9844 153.979 69.6914L154.083 69.9571Z" fill="#114B5F"/>
<path d="M145.12 81.0601L153.841 69.464C151.583 65.7936 148.825 62.9159 145.622 61.1067C145.455 61.0126 145.288 60.9244 145.121 60.8369C145.2 62.1818 145.611 70.0783 145.12 81.0601Z" fill="#114B5F"/>
<path d="M159.125 115.788L159.164 116.118C159.589 114.057 159.936 111.998 160.203 109.94L138.043 126.069L138.02 125.919C137.652 127.126 137.271 128.312 136.876 129.476L159.125 115.788Z" fill="#114B5F"/>
<path d="M160.838 97.6247L160.902 97.936C160.851 92.4107 160.143 86.911 158.795 81.5518L143.581 99.1583C142.883 104.616 141.992 109.824 140.908 114.781L160.838 97.6247Z" fill="#114B5F"/>
<path d="M118.451 72.0254C116.239 75.2841 114.362 78.7574 112.85 82.3924L141.231 111.224C142.085 106.905 142.733 102.727 143.225 98.8376L118.327 72.334L118.451 72.0254Z" fill="#114B5F"/>
<path d="M111.206 86.6656L111.324 86.3536L140.418 115.087C140.654 114.033 140.876 112.986 141.087 111.944L112.601 83.0063L112.721 82.6953C112.188 83.9759 111.682 85.2993 111.206 86.6656Z" fill="#114B5F"/>
<path d="M160.203 109.223L160.254 109.545C160.725 105.815 160.943 102.058 160.907 98.2988L140.707 115.688C139.965 118.989 139.139 122.166 138.228 125.217L160.203 109.223Z" fill="#114B5F"/>
<path d="M131.51 142.442C128.285 148.862 124.529 154.348 120.278 158.835C125.133 156.553 144.65 146.604 154.119 130.127L131.51 142.442Z" fill="#114B5F"/>
<path d="M107.924 102.32C107.732 105.927 107.783 109.542 108.075 113.141L108.223 112.809L131.401 141.625C133.172 138.015 134.724 134.303 136.049 130.508L107.924 102.32Z" fill="#114B5F"/>
<path d="M144.722 81.0485C145.251 69.1668 144.717 60.9389 144.709 60.8209L144.908 60.7264C139.917 58.2068 134.583 58.6078 129.525 61.3872L144.722 81.0485Z" fill="#114B5F"/>
<path d="M136.566 130.376C136.441 130.736 136.317 131.098 136.189 131.454C134.972 134.869 133.569 138.216 131.987 141.478L154.382 129.28L154.412 129.605C156.054 126.69 157.32 123.58 158.179 120.347C158.511 119.076 158.811 117.802 159.079 116.524L136.566 130.376Z" fill="#114B5F"/>
<path d="M143.322 98.0613C144.027 92.3002 144.445 86.826 144.681 81.9343L129.135 61.8217L129.27 61.5273C125.473 63.6778 121.837 67.1707 118.626 71.7735L143.322 98.0613Z" fill="#114B5F"/>
<path d="M131.117 142.197L108.109 113.592C109.858 135.176 118.573 157.822 119.134 159.262C123.989 154.4 127.925 148.538 131.117 142.197Z" fill="#114B5F"/>
<path d="M136.26 129.856L136.281 129.843C137.859 125.234 139.187 120.543 140.259 115.792L111.093 86.9873C110.455 88.8411 109.874 90.7676 109.351 92.7666C108.626 95.6323 108.165 98.558 107.974 101.507L136.26 129.856Z" fill="#114B5F"/>
<path d="M64.3099 85.9395L69.625 99.9352C73.6867 102.787 78.149 106.11 82.6977 109.834L76.0625 88.0045L76.3496 88.079C72.0497 86.7234 67.8824 85.9709 64.0293 85.8848L64.3099 85.9395Z" fill="#114B5F"/>
<path d="M68.9116 99.4367L63.7631 85.8794C59.447 85.8173 55.5342 86.6011 52.2879 88.3317C52.119 88.4217 51.9547 88.5156 51.791 88.6098C52.9719 89.2631 59.8776 93.1435 68.9116 99.4367Z" fill="#114B5F"/>
<path d="M105.81 106.225L106.111 106.369C104.593 104.908 103.035 103.513 101.437 102.187L103.229 129.495L103.089 129.434C103.914 130.39 104.714 131.346 105.488 132.302L105.81 106.225Z" fill="#114B5F"/>
<path d="M91.3495 95.0585L91.6477 95.1707C86.9423 92.2564 81.9075 89.9084 76.6484 88.1758L83.4099 110.421C87.6572 113.931 91.589 117.47 95.2054 121.038L91.3495 95.0585Z" fill="#114B5F"/>
<path d="M46.9858 117.074C48.5605 120.682 50.4966 124.123 52.7645 127.343L92.3666 118.861C89.1674 115.83 85.9776 113.047 82.9478 110.55L47.1812 117.343L46.9858 117.074Z" fill="#114B5F"/>
<path d="M55.5024 131.017L55.3015 130.751L95.2027 121.615C94.4364 120.852 93.6688 120.104 92.8998 119.369L53.1516 127.882L52.9526 127.614C53.7511 128.75 54.601 129.884 55.5024 131.017Z" fill="#114B5F"/>
<path d="M100.829 101.802L101.129 101.932C98.2234 99.5384 95.1593 97.3432 91.9575 95.3613L95.8656 121.692C98.2634 124.085 100.51 126.482 102.606 128.883L100.829 101.802Z" fill="#114B5F"/>
<path d="M113.592 143.765C117.301 149.919 119.935 156.021 121.458 162.005C122.125 156.692 124.151 134.92 115.269 118.12L113.592 143.765Z" fill="#114B5F"/>
<path d="M66.999 142.162C69.9494 144.255 73.037 146.147 76.241 147.828L76.0388 147.525L112.842 143.419C110.734 139.995 108.422 136.699 105.919 133.551L66.999 142.162Z" fill="#114B5F"/>
<path d="M68.6893 99.7651C58.9133 92.9588 51.6612 89.0049 51.557 88.9484L51.584 88.7295C46.7789 91.5868 44.2631 96.296 43.9082 102.047L68.6893 99.7651Z" fill="#114B5F"/>
<path d="M106.083 133.045C106.321 133.343 106.562 133.642 106.795 133.94C109.035 136.794 111.117 139.767 113.032 142.847L114.694 117.446L114.985 117.594C113.396 114.65 111.44 111.918 109.164 109.464C108.265 108.503 107.347 107.568 106.409 106.658L106.083 133.045Z" fill="#114B5F"/>
<path d="M82.3424 110.053C77.8428 106.374 73.432 103.091 69.4171 100.273L44.0674 102.607L43.8905 102.336C43.6781 106.687 44.6892 111.62 46.867 116.79L82.3424 110.053Z" fill="#114B5F"/>
<path d="M113.175 143.965L76.6406 148.04C95.8501 158.122 119.688 162.901 121.207 163.199C119.69 156.505 116.834 150.049 113.175 143.965Z" fill="#114B5F"/>
<path d="M105.479 133.024L105.479 132.999C102.422 129.202 99.162 125.572 95.7133 122.125L55.7139 131.283C56.942 132.813 58.2621 134.334 59.6742 135.845C61.7125 137.99 63.9426 139.944 66.3368 141.685L105.479 133.024Z" fill="#114B5F"/>
<path d="M281 171.464C281 183.563 218.618 205 141.667 205C64.7151 205 2.3335 183.563 2.3335 171.464C2.3335 159.366 64.7151 161.187 141.667 161.187C218.618 161.187 281 159.366 281 171.464Z" fill="#3F3D56"/>
<path opacity="0.1" d="M281 171.464C281 183.563 218.618 205 141.667 205C64.7151 205 2.3335 183.563 2.3335 171.464C2.3335 159.366 64.7151 161.187 141.667 161.187C218.618 161.187 281 159.366 281 171.464Z" fill="black"/>
<path d="M141.667 193.371C218.618 193.371 281 183.563 281 171.465C281 159.366 218.618 149.559 141.667 149.559C64.7151 149.559 2.3335 159.366 2.3335 171.465C2.3335 183.563 64.7151 193.371 141.667 193.371Z" fill="#3F3D56"/>
<path opacity="0.1" d="M165.823 148.568C165.823 161.749 147.408 157.672 124.86 157.672C102.312 157.672 84.1704 161.749 84.1704 148.568C84.1704 135.387 102.583 132.521 125.131 132.521C147.679 132.521 165.823 135.387 165.823 148.568Z" fill="black"/>
<path d="M165.823 145.322C165.823 158.503 147.408 154.426 124.86 154.426C102.312 154.426 84.1704 158.503 84.1704 145.322C84.1704 132.141 102.583 129.274 125.131 129.274C147.679 129.274 165.823 132.141 165.823 145.322Z" fill="#3F3D56"/>
<path d="M93.2878 109.054C93.7838 108.702 94.3311 108.428 94.9107 108.242C98.585 106.878 102.435 106.042 106.345 105.759C109.745 105.518 113.43 105.804 116.086 107.936C116.499 108.238 116.837 108.631 117.074 109.084C117.408 109.803 117.307 110.639 117.199 111.425C117.174 111.73 117.097 112.028 116.971 112.306C116.614 112.985 115.734 113.223 114.97 113.141C114.205 113.06 113.488 112.737 112.735 112.588C112.268 112.507 111.796 112.459 111.323 112.444L106.596 112.189C103.656 112.03 100.677 111.874 97.7937 112.466C96.906 112.625 96.0482 112.92 95.2507 113.34C94.5921 113.709 94.1486 114.239 93.5374 113.557C92.4637 112.36 91.8694 110.16 93.2878 109.054Z" fill="#2F2E41"/>
<path d="M100.613 111.139C100.613 111.139 106.972 108.295 109.384 111.576C111.796 114.858 108.068 113.545 108.068 113.545L103.902 114.858L99.2979 113.983L100.613 111.139Z" fill="#F2F2F2"/>
<path d="M100.942 109.062C100.942 109.062 101.819 113.218 101.162 114.312C100.504 115.405 104.889 116.937 104.889 116.937L109.055 115.187C109.055 115.187 107.959 108.405 109.055 107.093L100.942 109.062Z" fill="#FFB9B9"/>
<path opacity="0.1" d="M100.942 109.062C100.942 109.062 101.819 113.218 101.162 114.312C100.504 115.405 104.889 116.937 104.889 116.937L109.055 115.187C109.055 115.187 107.959 108.405 109.055 107.093L100.942 109.062Z" fill="black"/>
<path d="M96.8336 159.038C97.4231 160.258 97.9078 161.525 98.2825 162.827C98.2887 162.87 98.3039 162.911 98.3271 162.948C98.3503 162.984 98.381 163.016 98.4172 163.04C98.4535 163.064 98.4944 163.08 98.5373 163.087C98.5802 163.094 98.6242 163.092 98.6663 163.081L102.566 163.077C103.048 163.077 103.693 162.922 103.688 162.442C103.685 162.105 103.339 161.894 103.082 161.675C102.368 161.068 102.182 160.065 101.887 159.177C101.312 157.465 100.204 155.981 98.7251 154.941C98.5252 154.784 98.2951 154.671 98.0493 154.607C97.8021 154.572 97.5502 154.585 97.3083 154.647C96.6237 154.785 94.0671 155.257 94.55 156.25C94.758 156.678 95.5287 157.123 95.8518 157.523C96.2283 157.995 96.5572 158.502 96.8336 159.038Z" fill="#575A89"/>
<path d="M110.396 154.526C110.258 154.814 110.105 155.095 109.937 155.367C109.372 156.296 108.705 157.164 108.179 158.116C107.825 158.698 107.606 159.351 107.539 160.029C107.509 160.368 107.56 160.709 107.69 161.023C107.82 161.338 108.023 161.617 108.283 161.837C108.849 162.266 109.625 162.285 110.329 162.186C111.033 162.086 111.732 161.884 112.441 161.937C112.202 160.588 113.342 159.401 113.627 158.061C113.708 157.685 113.719 157.294 113.827 156.925C113.942 156.587 114.09 156.261 114.268 155.951C114.836 154.848 115.237 153.667 115.459 152.446C115.486 152.298 111.992 152.274 111.665 152.345C110.642 152.565 110.792 153.68 110.396 154.526Z" fill="#575A89"/>
<path d="M83.4681 133.332C82.4707 134.889 82.7005 136.952 83.401 138.663C84.1015 140.374 85.2164 141.886 85.9795 143.57C86.4659 144.643 86.8071 145.782 87.3549 146.825C88.0332 148.118 89.0236 149.257 89.4788 150.643C89.769 151.527 89.8355 152.495 90.3056 153.298C90.5897 153.728 90.9139 154.129 91.274 154.497C92.2864 155.654 93.0465 157.009 93.506 158.475C93.9356 157.198 95.222 156.361 96.5432 156.085C97.8644 155.809 99.2334 155.996 100.57 156.185C99.8244 155.032 99.0716 153.865 98.6271 152.567C98.1973 151.312 98.0705 149.976 97.7809 148.682C97.1871 146.026 95.9187 143.578 94.663 141.163L101.117 140.652C102.171 140.546 103.23 140.507 104.288 140.535C105.954 140.613 107.587 141.02 109.244 141.209C110.901 141.397 112.654 141.348 114.13 140.575C111.307 144.617 109.836 149.446 109.929 154.373C110.56 153.885 111.292 153.544 112.073 153.375C112.853 153.206 113.661 153.213 114.438 153.396C115.215 153.579 115.942 153.933 116.564 154.432C117.186 154.931 117.689 155.563 118.034 156.281C120.564 152.833 120.263 148.032 122.267 144.255C122.68 143.479 123.185 142.755 123.63 141.997C124.47 140.474 125.19 138.887 125.782 137.252C126.342 135.821 126.907 134.229 126.369 132.79C126.146 132.244 125.821 131.745 125.411 131.32C124.255 130.048 122.645 129.107 120.924 129.068C118.283 129.008 116.1 130.961 113.783 132.228C111.016 133.695 107.887 134.342 104.764 134.094C101.581 133.869 98.5413 132.83 95.5087 131.914C93.9916 131.435 92.4496 131.038 90.8895 130.725C89.589 130.482 88.3504 130.751 87.0688 131.083C85.6735 131.445 84.2711 132.078 83.4681 133.332Z" fill="#2F2E41"/>
<path d="M111.028 104.904C111.027 106.645 110.333 108.313 109.1 109.543C107.867 110.774 106.195 111.466 104.45 111.467C104.058 111.468 103.667 111.433 103.282 111.362C102.051 111.14 100.909 110.573 99.9894 109.726C99.0701 108.88 98.4119 107.789 98.0919 106.583C97.7719 105.376 97.8034 104.104 98.1826 102.915C98.5619 101.725 99.2732 100.669 100.233 99.8683C101.193 99.0681 102.362 98.5576 103.602 98.3966C104.843 98.2356 106.104 98.431 107.237 98.9596C108.37 99.4882 109.329 100.328 110 101.381C110.672 102.434 111.028 103.656 111.028 104.904Z" fill="#FFB9B9"/>
<path d="M100.613 111.14C100.613 111.14 101.819 111.687 102.258 112.124C102.696 112.562 104.012 114.968 106.205 113.437C108.397 111.905 108.617 111.03 109.274 111.03C109.932 111.03 110.809 112.343 110.809 112.343L116.839 130.39C115.214 132.22 113.33 133.805 111.248 135.093C107.739 137.281 103.573 138.375 101.6 137.5C99.6267 136.625 95.8992 135.968 95.2414 134.218C94.5836 132.468 93.4873 127.218 93.4873 127.218L96.557 113.874L100.613 111.14Z" fill="#F2F2F2"/>
<path d="M99.7669 129.392C100.245 128.362 100.314 127.196 100.355 126.061C100.419 124.938 100.389 123.811 100.266 122.692C100.071 121.229 99.5937 119.819 99.292 118.374C99.0276 117.106 98.8991 115.815 98.9086 114.52C98.913 113.929 98.9558 113.307 99.2785 112.812C99.5036 112.467 99.8556 112.199 99.9963 111.811C100.272 111.052 99.5906 110.256 98.8439 109.943C97.9344 109.603 96.9394 109.563 96.0055 109.83C95.0791 110.097 94.1841 110.462 93.3357 110.919C92.6941 111.192 92.1041 111.573 91.5912 112.044C90.9106 112.747 90.6113 113.726 90.3697 114.673C90.1762 115.431 90.0043 116.221 90.1515 116.989C90.3905 118.237 91.4098 119.175 91.9532 120.323C92.5841 121.657 92.5416 123.211 92.2907 124.665C92.0397 126.118 91.5942 127.539 91.4568 129.007C91.3194 130.476 91.5303 132.054 92.4524 133.207C92.8282 133.677 93.8476 134.79 94.5355 134.664C95.0759 134.565 95.8594 133.378 96.2948 133.002C97.5524 131.915 99.0447 130.948 99.7669 129.392Z" fill="#2F2E41"/>
<path d="M111.254 110.426C111.274 111.646 110.735 112.806 110.101 113.849C109.467 114.893 108.722 115.88 108.255 117.007C107.674 118.419 107.556 119.978 107.916 121.461C108.05 121.966 108.212 122.463 108.4 122.951L109.601 126.238C109.763 126.755 109.998 127.247 110.298 127.698C110.57 128.043 110.888 128.349 111.245 128.606C112.157 129.341 113.207 129.888 114.334 130.214C115.468 130.538 116.679 130.469 117.769 130.018C117.885 125.562 118.602 121.141 119.902 116.875C120.143 116.088 120.405 115.259 120.22 114.457C120.012 113.558 119.289 112.884 118.602 112.268C116.499 110.384 114.187 108.405 111.372 108.151C109.743 108.004 111.241 109.544 111.254 110.426Z" fill="#2F2E41"/>
<path d="M96.8657 135.859C97.0325 136.185 97.1363 136.54 97.3012 136.866C97.5445 137.304 97.8454 137.708 98.1959 138.067C99.6619 139.688 101.454 141.304 103.641 141.402C103.858 141.422 104.077 141.395 104.283 141.321C104.467 141.227 104.626 141.089 104.745 140.919C104.865 140.749 104.94 140.553 104.966 140.347C105.121 139.5 104.746 138.655 104.371 137.879C103.557 136.198 102.642 134.475 101.119 133.391C100.358 132.871 99.4898 132.53 98.5781 132.393C97.6665 132.256 96.7356 132.327 95.8555 132.601C95.0622 132.845 93.7468 133.27 94.7971 133.992C95.5939 134.54 96.4038 134.957 96.8657 135.859Z" fill="#FFB9B9"/>
<path d="M106.319 114.46C106.091 113.845 105.741 113.282 105.29 112.805C104.835 112.421 104.297 112.149 103.718 112.01C102.968 111.797 102.192 111.686 101.412 111.681C100.484 111.675 99.4068 111.924 99.0125 112.762C98.6993 113.428 98.9421 114.217 99.2574 114.882C99.3921 115.227 99.6165 115.529 99.9074 115.758C100.308 116.028 100.826 116.02 101.3 116.11C102.037 116.296 102.734 116.612 103.359 117.041L104.986 118.022L107.78 119.706C107.706 119.662 107.732 117.751 107.646 117.438C107.37 116.428 106.748 115.416 106.319 114.46Z" fill="#FFB9B9"/>
<path d="M98.1809 162.331C97.5273 163.218 97.6583 164.484 97.0793 165.421C96.5773 166.233 95.6314 166.658 95.0036 167.378C94.8033 167.617 94.6247 167.873 94.47 168.144C93.8876 169.117 93.4142 170.364 93.9878 171.343C94.4492 172.13 95.419 172.437 96.3085 172.647C97.4327 172.912 98.6008 173.124 99.738 172.922C100.875 172.719 101.987 172.024 102.392 170.945C102.472 170.674 102.567 170.407 102.676 170.146C103.292 168.936 105.226 168.923 105.856 167.719C106.298 166.877 105.892 165.859 105.486 165L104.248 162.374C103.836 161.502 102.17 162.003 101.301 161.795C100.168 161.522 98.9962 161.222 98.1809 162.331Z" fill="#2F2E41"/>
<path d="M107.764 160.075C107.256 160.474 106.868 161.004 106.643 161.608C106.029 163.019 105.819 164.566 105.614 166.091C105.498 166.697 105.486 167.319 105.579 167.929C105.843 169.174 106.974 170.091 108.191 170.472C109.409 170.853 110.714 170.794 111.988 170.732C112.399 170.742 112.807 170.659 113.182 170.49C113.822 170.138 114.072 169.31 113.962 168.588C113.853 167.867 113.458 167.225 113.071 166.606C112.684 165.987 112.289 165.346 112.178 164.624C111.992 163.411 112.518 161.631 111.771 160.533C111.022 159.434 108.763 159.377 107.764 160.075Z" fill="#2F2E41"/>
<path d="M110.863 101.485C110.746 101.092 110.489 100.757 110.139 100.542C110.157 100.121 110.106 99.7008 109.986 99.2972C109.588 98.1223 108.644 98.1896 107.754 97.6701C107.368 97.4448 107.391 97.2456 107.19 96.8754C106.927 96.3901 106.532 95.9884 106.051 95.7158C105.48 95.3526 104.877 94.9787 104.201 94.9327C102.781 94.8361 101.692 96.1688 100.335 96.5965C99.7364 96.785 99.0935 96.7928 98.4921 96.971C97.8906 97.1492 97.2906 97.5748 97.2009 98.1943C97.1595 98.4803 97.2325 98.7738 97.1906 99.0597C97.1071 99.628 96.6074 100.026 96.2728 100.494C95.533 101.527 95.6176 102.988 96.2092 104.112C96.3339 104.345 96.4766 104.568 96.6359 104.778C96.6852 105.31 96.8382 105.827 97.0863 106.3C97.6779 107.424 98.696 108.265 99.7595 108.963C99.6724 108.59 99.6196 108.21 99.6018 107.827C99.5868 107.7 99.6034 107.571 99.6502 107.451C99.7686 107.204 100.082 107.138 100.32 107.003C100.814 106.723 101.008 106.103 101.023 105.536C101.037 104.969 100.916 104.401 100.976 103.837C100.978 103.707 101.008 103.58 101.063 103.462C101.118 103.344 101.196 103.24 101.294 103.154C101.477 103.05 101.685 103.001 101.895 103.011C102.908 102.97 103.966 102.952 104.859 102.474C105.147 102.283 105.456 102.127 105.781 102.008C106.54 101.811 107.316 102.342 107.754 102.991C108.191 103.641 108.409 104.414 108.813 105.085C109.216 105.756 109.914 106.355 110.694 106.275C110.738 106.275 110.782 106.266 110.822 106.248C110.862 106.23 110.898 106.204 110.927 106.172C110.961 106.111 110.976 106.042 110.97 105.974L111.014 102.997C111.05 102.488 110.999 101.977 110.863 101.485Z" fill="#2F2E41"/>
<path d="M90.0456 117.052C89.418 117.976 88.6943 118.864 88.3494 119.926C88.1466 120.55 88.0836 121.21 87.9368 121.849C87.4479 123.979 86.0353 125.87 85.8933 128.05C85.8436 128.535 85.9149 129.024 86.1009 129.474C86.5061 130.353 87.4759 130.817 88.4009 131.108C89.326 131.4 90.3194 131.61 91.0578 132.238C91.4295 132.593 91.7666 132.983 92.0646 133.402C93.2692 134.897 94.8898 136.003 96.7228 136.582C96.578 135.587 96.51 134.387 97.3076 133.772C97.7393 133.438 98.3162 133.379 98.8599 133.332L101.429 133.111C99.7158 131.453 97.8275 129.985 95.7972 128.734C95.0868 128.296 94.3136 127.834 93.9892 127.067C93.8217 126.572 93.7521 126.049 93.7844 125.528C93.7668 123.622 93.605 121.72 93.3005 119.838C93.089 118.531 92.8089 117.236 92.4886 115.952C92.3987 115.591 91.8673 113.973 91.2131 114.352C91.0591 114.441 90.9149 115.467 90.8249 115.68C90.6108 116.162 90.3497 116.622 90.0456 117.052Z" fill="#2F2E41"/>
<path d="M119.636 113.562L120.685 115.739C121.19 116.634 121.42 117.658 121.346 118.682L121.408 125.212C121.457 126.085 121.384 126.96 121.193 127.813C121.128 128.094 121.005 128.358 120.831 128.589C120.653 128.788 120.444 128.957 120.211 129.088C118.225 130.325 115.651 131.029 113.553 129.992C113.072 129.736 112.616 129.439 112.188 129.103C111.352 128.485 110.503 127.855 109.878 127.026C109.223 126.158 108.848 125.118 108.408 124.125C107.617 122.343 106.596 120.672 105.37 119.154C105.167 118.954 105.035 118.693 104.994 118.41C104.981 117.838 105.662 117.556 106.192 117.338C107.099 116.966 107.954 116.249 108.106 115.282C110.034 117.805 112.161 120.47 115.204 121.392C115.251 121.422 115.306 121.439 115.363 121.441C115.42 121.443 115.476 121.429 115.525 121.402C115.575 121.374 115.616 121.334 115.644 121.285C115.673 121.236 115.687 121.18 115.687 121.124C115.859 120.403 115.92 119.661 116.047 118.93C116.278 117.6 116.725 116.316 117.368 115.129C117.728 114.463 118.895 112.025 119.636 113.562Z" fill="#2F2E41"/>
<path opacity="0.1" d="M93.6013 119.856C93.6303 121.402 93.3012 122.933 92.6398 124.33C92.4678 124.639 92.341 124.971 92.2634 125.316C92.1483 126.051 92.5678 126.763 93.0473 127.334C93.9932 128.455 95.22 129.307 96.603 129.802" fill="black"/>
<path opacity="0.1" d="M116.383 118.555C116.229 118.969 116.369 119.428 116.488 119.854C116.833 121.091 116.995 122.371 116.966 123.654C116.971 123.676 116.971 123.7 116.965 123.722C116.958 123.744 116.946 123.764 116.93 123.781C116.914 123.797 116.894 123.809 116.872 123.816C116.85 123.823 116.827 123.824 116.804 123.82C116.298 123.851 115.719 123.854 115.375 123.482" fill="black"/>
<path opacity="0.1" d="M202.388 180.389C221.252 180.389 236.544 177.12 236.544 173.087C236.544 169.054 221.252 165.785 202.388 165.785C183.524 165.785 168.232 169.054 168.232 173.087C168.232 177.12 183.524 180.389 202.388 180.389Z" fill="black"/>
<path d="M219.466 107.909L217.026 110.343L219.466 112.777L221.905 107.909H219.466Z" fill="#A0616A"/>
<path d="M220.015 86.8029C220.699 87.0825 221.025 87.8467 221.283 88.5384L224.448 97.0228L225.064 98.6742C225.366 99.4841 225.668 100.294 225.924 101.12C226.085 101.642 226.228 102.17 226.352 102.703C226.48 103.159 226.529 103.634 226.498 104.106C226.412 104.626 226.222 105.124 225.938 105.568C224.837 107.482 223.269 109.086 221.38 110.233C221.271 109.531 220.987 108.868 220.555 108.304C220.123 107.74 219.556 107.294 218.906 107.005L220.543 106.107C220.889 105.945 221.2 105.717 221.46 105.437C221.618 105.218 221.731 104.97 221.791 104.707C221.851 104.443 221.857 104.171 221.81 103.905C221.711 103.375 221.548 102.859 221.324 102.369C220.775 101.001 220.298 99.6063 219.897 98.189C219.659 97.3507 219.441 96.4892 218.969 95.7556C218.542 95.0902 217.923 94.558 217.535 93.8691C216.943 92.8192 216.958 91.5265 217.22 90.3506C217.44 89.3578 217.81 88.4023 218.122 87.4358C218.366 86.6763 219.282 86.5036 220.015 86.8029Z" fill="#D0CDE1"/>
<path d="M204.926 64.1355C203.667 64.5595 202.527 65.5512 202.27 66.8512C202.15 67.4538 202.223 68.0802 202.123 68.6863C201.89 70.0918 200.784 71.1652 199.764 72.1622C198.744 73.1592 197.691 74.3177 197.616 75.7404C197.535 77.2983 198.667 78.7578 198.471 80.3055C198.244 82.1036 196.34 83.2687 195.869 85.0192C195.555 86.1881 195.94 87.4473 196.574 88.4793C197.781 90.4461 199.844 91.7813 202.042 92.497C204.239 93.2128 206.579 93.3634 208.891 93.3876C211.705 93.417 214.761 93.1759 216.876 91.3228C218.084 90.2547 218.842 88.7706 218.999 87.168C219.2 85.0214 218.302 82.8033 218.922 80.7378C219.311 79.4379 220.289 78.2507 220.143 76.9017C220 75.5827 218.846 74.6478 218.054 73.5822C217.314 72.5873 216.865 71.4124 216.425 70.254L214.92 66.2907C214.625 65.5116 214.3 64.6922 213.64 64.1808C212.406 63.2235 210.421 63.4116 208.978 63.6091C207.639 63.7922 206.213 63.7017 204.926 64.1355Z" fill="#2F2E41"/>
<path d="M206.09 77.1968C206.09 77.1968 206.238 81.6057 205.796 82.0466C205.354 82.4875 207.563 85.4268 207.563 85.4268L211.541 85.2799L213.603 83.6632L211.835 81.3118C211.835 81.3118 211.099 77.4907 211.688 76.6089C212.277 75.7271 206.09 77.1968 206.09 77.1968Z" fill="#A0616A"/>
<path opacity="0.1" d="M206.09 77.1968C206.09 77.1968 206.238 81.6057 205.796 82.0466C205.354 82.4875 207.563 85.4268 207.563 85.4268L211.541 85.2799L213.603 83.6632L211.835 81.3118C211.835 81.3118 211.099 77.4907 211.688 76.6089C212.277 75.7271 206.09 77.1968 206.09 77.1968Z" fill="black"/>
<path d="M196.884 111.22L199.388 116.804L201.303 114.453L197.473 109.456L196.884 111.22Z" fill="#A0616A"/>
<path d="M190.181 167.139L189.15 172.871L187.382 175.369L188.413 175.957L190.181 175.663L192.244 174.928L193.127 171.548L194.748 167.139H190.181Z" fill="#A0616A"/>
<path d="M209.037 163.612L208.447 171.843L209.92 173.018L212.277 170.961V164.935L209.037 163.612Z" fill="#A0616A"/>
<path d="M208.521 78.8872C211.45 78.8872 213.824 76.5184 213.824 73.5964C213.824 70.6744 211.45 68.3057 208.521 68.3057C205.592 68.3057 203.218 70.6744 203.218 73.5964C203.218 76.5184 205.592 78.8872 208.521 78.8872Z" fill="#A0616A"/>
<path d="M212.613 80.712C212.454 80.6357 212.28 80.5944 212.104 80.591C211.928 80.5877 211.753 80.6222 211.591 80.6924C211.269 80.8345 210.957 80.9969 210.656 81.1786C209.882 81.5803 209.005 81.7396 208.138 81.6354C208.037 81.6277 207.937 81.6021 207.844 81.5599C207.746 81.4988 207.655 81.4259 207.575 81.3427C207.261 81.0882 206.86 80.9653 206.457 80.9999C206.053 81.0346 205.679 81.2241 205.414 81.5286C205.258 81.7222 205.151 81.9533 204.981 82.1347C204.541 82.6043 203.815 82.6233 203.17 82.6222C201.834 82.585 200.498 82.7072 199.191 82.986C197.878 83.2687 196.669 83.908 195.697 84.8333C195.432 85.0822 195.22 85.3827 195.076 85.7162C194.898 86.1735 194.922 86.6872 194.762 87.151C194.584 87.6676 194.19 88.0914 194.03 88.6139C193.91 89.0074 193.927 89.4455 193.726 89.8047C194.587 90.5481 195.316 91.5395 196.177 92.2829C196.747 92.7751 197.344 93.3075 197.558 94.0286C197.654 94.4732 197.697 94.9277 197.686 95.3824C197.792 97.5563 198.974 99.5283 200.295 101.26C200.658 101.774 201.091 102.233 201.583 102.625C202.251 103.079 203.01 103.383 203.807 103.516C205.311 103.823 206.86 103.821 208.396 103.806C209.984 103.79 211.599 103.757 213.108 103.265C213.876 103.051 214.567 102.623 215.1 102.031C215.72 101.27 215.962 100.17 216.809 99.672C217.014 99.5783 217.208 99.4626 217.388 99.327C217.561 99.1403 217.683 98.913 217.743 98.6663C218.039 97.7433 218.202 96.7829 218.228 95.814C218.206 95.2326 218.246 94.6505 218.346 94.0773C218.492 93.5722 218.706 93.0889 218.98 92.6401L220.735 89.4652C220.877 89.2072 220.84 88.8275 220.853 88.5331C220.84 88.1086 220.71 87.696 220.476 87.341C219.338 85.3342 217.55 83.7728 215.406 82.9129C215.237 82.8556 215.076 82.7769 214.927 82.6788C214.751 82.5316 214.603 82.355 214.488 82.157C214.023 81.4569 213.454 80.6683 212.613 80.712Z" fill="#D0CDE1"/>
<path d="M190.744 98.0034C190.398 98.8427 190.144 99.7169 189.986 100.611C189.817 101.846 190.016 103.103 190.56 104.225C191.505 106.167 193.367 107.484 194.681 109.2C195.902 110.794 196.629 112.704 197.686 114.41C197.502 113.976 197.725 113.473 198.027 113.11C198.329 112.747 198.715 112.445 198.936 112.029C199.086 111.706 199.181 111.36 199.216 111.005C199.373 109.947 199.459 108.798 198.918 107.874C198.511 107.179 197.808 106.717 197.251 106.134C196.695 105.54 196.286 104.825 196.057 104.045C195.828 103.265 195.787 102.442 195.935 101.643C196.042 101.093 196.239 100.565 196.387 100.025C196.569 99.2981 196.708 98.5611 196.801 97.8178L197.464 93.2722C197.641 92.0632 197.79 90.7253 197.104 89.7134C196.97 89.5016 196.785 89.3268 196.565 89.2052C196.384 89.1223 196.19 89.068 195.992 89.0442C195.27 88.9265 194.292 88.611 193.94 89.3828C193.514 90.3143 193.218 91.3297 192.862 92.2902L190.744 98.0034Z" fill="#D0CDE1"/>
<path d="M216.026 100.49C216.026 100.49 207.269 102.18 205.207 102.18H201.524C201.524 102.18 200.198 104.532 200.198 106.883C200.198 109.235 191.507 142.155 191.507 142.155C191.507 142.155 183.258 169.197 192.391 169.344C201.524 169.49 207.269 169.931 207.416 166.845C207.564 163.759 208.447 123.931 208.447 123.931L209.822 144.41C210.192 149.48 209.797 154.577 208.652 159.53C207.992 162.307 208.095 165.351 211.394 165.963C217.728 167.139 225.682 166.11 225.682 163.906C225.682 161.701 221.558 112.762 221.558 112.762C221.558 112.762 219.495 105.561 218.317 104.973C217.139 104.385 216.026 100.49 216.026 100.49Z" fill="#2F2E41"/>
<path d="M188.561 175.076L191.801 173.9L194.011 168.315L196.368 168.021C196.368 168.021 195.042 170.814 194.306 171.255C193.569 171.696 192.391 175.37 192.391 175.37C192.391 175.37 192.98 176.839 190.181 177.427C187.382 178.015 185.32 178.456 185.32 178.456C185.32 178.456 185.025 177.868 186.351 176.399C187.677 174.929 189.225 172.455 189.225 172.455L188.561 175.076Z" fill="#2F2E41"/>
<path d="M208.447 168.315L207.858 172.724C207.858 172.724 209.478 175.075 209.92 175.075C210.362 175.075 212.719 173.017 212.719 173.017C212.719 173.017 212.572 170.813 212.719 170.225C212.866 169.637 213.161 166.845 212.719 166.698C212.277 166.551 212.277 169.973 212.277 169.973L210.362 171.989L208.516 170.884L208.447 168.315Z" fill="#2F2E41"/>
<path d="M208.963 73.5964C212.136 73.5964 214.708 72.2146 214.708 70.5101C214.708 68.8056 212.136 67.4238 208.963 67.4238C205.79 67.4238 203.218 68.8056 203.218 70.5101C203.218 72.2146 205.79 73.5964 208.963 73.5964Z" fill="#2F2E41"/>
<path d="M0 131.075C0 148.388 10.8865 162.398 24.3402 162.398L0 131.075Z" fill="#3F3D56"/>
<path d="M24.3403 162.398C24.3403 144.891 36.4891 130.724 51.5026 130.724L24.3403 162.398Z" fill="#114B5F"/>
<path d="M8.81885 132.645C8.81885 149.09 15.761 162.398 24.3401 162.398L8.81885 132.645Z" fill="#114B5F"/>
<path d="M24.3403 162.398C24.3403 140.027 38.3824 121.925 55.7356 121.925L24.3403 162.398Z" fill="#3F3D56"/>
<path d="M19.2197 162.619C19.2197 162.619 22.6716 162.513 23.7119 161.774C24.7522 161.035 29.0217 160.152 29.2797 161.337C29.5378 162.523 34.4672 167.232 30.5701 167.264C26.673 167.295 21.5149 166.658 20.4767 166.027C19.4384 165.396 19.2197 162.619 19.2197 162.619Z" fill="#A8A8A8"/>
<path opacity="0.2" d="M30.6396 166.851C26.7425 166.883 21.5845 166.246 20.5462 165.615C19.7555 165.134 19.4404 163.41 19.335 162.614C19.2619 162.617 19.2197 162.619 19.2197 162.619C19.2197 162.619 19.4384 165.396 20.4767 166.027C21.515 166.658 26.673 167.295 30.5701 167.264C31.695 167.255 32.0836 166.855 32.0623 166.264C31.906 166.621 31.4769 166.845 30.6396 166.851Z" fill="black"/>
</svg>
