<svg width="100%" height="100%" viewBox="0 0 395 205" fill="none" xmlns="http://www.w3.org/2000/svg">
<path d="M95.0049 201.519L85.2802 186.066L95.0094 203.202L95.0147 204.963C95.7084 204.955 96.3952 204.928 97.075 204.883L96.2818 182.265L96.2922 182.09L96.2744 182.056L96.1988 179.919L106.367 162.983L96.1883 178.318L96.1579 178.771L95.5587 161.682L104.3 144.159L95.4904 158.679L95.0806 123.258L95.0787 123.14L95.0773 123.256L94.8778 151.183L86.525 140.009L94.8852 153.588L94.9239 168.884L87.1738 154.111L94.9282 171.133L94.9497 179.639L83.6919 159.069L94.9585 182.606L95.0049 201.519Z" fill="#E2E2E2"/>
<path d="M178.456 201.519L168.731 186.066L178.46 203.202L178.465 204.963C179.159 204.955 179.846 204.928 180.526 204.883L179.732 182.264L179.743 182.09L179.725 182.056L179.65 179.919L189.818 162.983L179.639 178.318L179.609 178.771L179.009 161.682L187.751 144.159L178.941 158.679L178.531 123.258L178.529 123.14L178.528 123.256L178.328 151.183L169.976 140.009L178.336 153.588L178.375 168.884L170.624 154.111L178.379 171.133L178.4 179.639L167.143 159.069L178.409 182.606L178.456 201.519Z" fill="#E2E2E2"/>
<path d="M11.4748 202.513L4.45261 191.355L11.478 203.729L11.4818 205C11.9827 204.994 12.4787 204.975 12.9695 204.943L12.3968 188.61L12.4043 188.484L12.3914 188.459L12.3369 186.916L19.6791 174.687L12.3293 185.76L12.3073 186.087L11.8746 173.747L18.1867 161.094L11.8253 171.579L11.5294 146.001L11.528 145.916L11.527 146L11.383 166.166L5.35149 158.097L11.3883 167.903L11.4163 178.948L5.81997 168.281L11.4194 180.572L11.4349 186.714L3.30566 171.861L11.4413 188.856L11.4748 202.513Z" fill="#E2E2E2"/>
<path d="M381.416 201.519L371.691 186.066L381.42 203.202L381.425 204.963C382.119 204.955 382.806 204.928 383.486 204.883L382.692 182.265L382.703 182.09L382.685 182.056L382.609 179.919L392.777 162.983L382.599 178.318L382.569 178.771L381.969 161.682L390.711 144.159L381.901 158.679L381.491 123.258L381.489 123.14L381.488 123.256L381.288 151.183L372.936 140.009L381.296 153.588L381.335 168.884L373.584 154.111L381.339 171.133L381.36 179.639L370.103 159.069L381.369 182.606L381.416 201.519Z" fill="#E2E2E2"/>
<path d="M117.683 178.189H170.143V175.964H117.683V178.189Z" fill="#114B5F"/>
<path d="M115.016 175.964H167.476V173.738H115.016V175.964Z" fill="#114B5F"/>
<path d="M118.128 173.737H170.587V171.512H118.128V173.737Z" fill="#114B5F"/>
<path d="M123.463 171.512H175.922V169.286H123.463V171.512Z" fill="#114B5F"/>
<path d="M78.8275 172.398H80.6489V159.45H78.8275V172.398Z" fill="#3F3D56"/>
<path d="M78.8243 159.287L79.5093 160.977L146.91 133.584L146.225 131.894L78.8243 159.287Z" fill="#3F3D56"/>
<path d="M45.1325 191.73H60.9785V185.53H45.1325V191.73Z" fill="#3F3D56"/>
<path d="M46.5896 197.932H124.727V191.001H46.5896V197.932Z" fill="#3F3D56"/>
<path d="M59.4297 194.466H78.1901V170.849H64.1652L59.4297 182.76V194.466Z" fill="#E2E2E2"/>
<path d="M67.2623 180.332H75.2764V172.308H67.2623V180.332Z" fill="white"/>
<path d="M61.2515 180.424H66.3516V172.399H64.1656L61.2515 180.424Z" fill="white"/>
<path d="M73.0907 188.357H74.9121V184.892H73.0907V188.357Z" fill="#3F3D56"/>
<path d="M64.8032 180.971H64.7122C64.2532 180.971 63.8131 180.788 63.4886 180.463C63.1641 180.138 62.9818 179.698 62.9818 179.238C62.9818 178.779 63.1641 178.338 63.4886 178.013C63.8131 177.688 64.2532 177.506 64.7122 177.506H64.8032V180.971Z" fill="#3F3D56"/>
<path d="M132.559 194.466H132.468C132.009 194.466 131.568 194.283 131.244 193.958C130.92 193.633 130.737 193.193 130.737 192.733C130.737 192.274 130.92 191.833 131.244 191.508C131.568 191.183 132.009 191.001 132.468 191.001H132.559V194.466V194.466Z" fill="#3F3D56"/>
<path d="M52.1446 190.975C50.7901 190.993 49.4569 191.315 48.2442 191.92C47.0315 192.524 45.9706 193.395 45.1402 194.466H41.5806L45.0412 184.814L61.1605 181.631L60.7051 194.466H59.1491C58.3187 193.395 57.2577 192.524 56.045 191.92C54.8323 191.315 53.4991 190.993 52.1446 190.975Z" fill="#E2E2E2"/>
<path d="M51.9621 204.679C56.3379 204.679 59.8851 201.127 59.8851 196.746C59.8851 192.364 56.3379 188.812 51.9621 188.812C47.5863 188.812 44.0391 192.364 44.0391 196.746C44.0391 201.127 47.5863 204.679 51.9621 204.679Z" fill="#3F3D56"/>
<path d="M51.9625 200.921C54.2655 200.921 56.1325 199.052 56.1325 196.746C56.1325 194.44 54.2655 192.57 51.9625 192.57C49.6595 192.57 47.7925 194.44 47.7925 196.746C47.7925 199.052 49.6595 200.921 51.9625 200.921Z" fill="#E2E2E2"/>
<path d="M123.543 204.588C127.365 204.588 130.464 201.485 130.464 197.658C130.464 193.83 127.365 190.728 123.543 190.728C119.72 190.728 116.622 193.83 116.622 197.658C116.622 201.485 119.72 204.588 123.543 204.588Z" fill="#3F3D56"/>
<path d="M123.543 201.305C125.555 201.305 127.185 199.672 127.185 197.657C127.185 195.643 125.555 194.01 123.543 194.01C121.531 194.01 119.9 195.643 119.9 197.657C119.9 199.672 121.531 201.305 123.543 201.305Z" fill="#E2E2E2"/>
<path d="M77.6438 195.195H81.4688V167.566H77.6438V195.195Z" fill="#3F3D56"/>
<path d="M77.644 191.821H132.65V190.18H77.644V191.821Z" fill="#3F3D56"/>
<path d="M63.7104 181.518H65.5317V180.788H63.7104V181.518Z" fill="#3F3D56"/>
<path d="M144.216 178.175C144.199 178.156 144.185 178.133 144.177 178.109C144.17 178.085 144.167 178.059 144.169 178.033L146.681 154.248C146.686 154.204 146.707 154.162 146.74 154.132C146.774 154.102 146.817 154.085 146.862 154.085H146.863C146.907 154.085 146.95 154.101 146.984 154.131C147.017 154.161 147.038 154.202 147.044 154.247L149.76 177.982C149.763 178.008 149.761 178.033 149.753 178.058C149.745 178.082 149.733 178.105 149.716 178.124C149.699 178.143 149.678 178.158 149.655 178.169C149.632 178.179 149.607 178.185 149.581 178.185L144.352 178.235H144.351C144.325 178.235 144.3 178.229 144.277 178.219C144.254 178.209 144.233 178.194 144.216 178.175ZM146.87 155.933L144.553 177.868L149.375 177.823L146.87 155.933Z" fill="#3F3D56"/>
<path d="M45.0747 184.955L45.1599 184.987C45.5891 185.15 45.9363 185.477 46.125 185.895C46.3137 186.314 46.3285 186.791 46.1662 187.221C46.0039 187.651 45.6776 187.998 45.2593 188.187C44.841 188.376 44.3649 188.391 43.9357 188.228L43.8505 188.196L45.0747 184.955Z" fill="#3F3D56"/>
<path d="M146.037 158.539H147.858V131.912H146.037V158.539Z" fill="#3F3D56"/>
<path d="M79.7389 162.368C81.1472 162.368 82.2888 161.225 82.2888 159.815C82.2888 158.405 81.1472 157.262 79.7389 157.262C78.3306 157.262 77.189 158.405 77.189 159.815C77.189 161.225 78.3306 162.368 79.7389 162.368Z" fill="#3F3D56"/>
<path d="M83.452 190.208H135.911V187.982H83.452V190.208Z" fill="#114B5F"/>
<path d="M86.5638 187.982H139.023V185.757H86.5638V187.982Z" fill="#114B5F"/>
<path d="M84.3412 186.202H136.8V183.976H84.3412V186.202Z" fill="#114B5F"/>
<path d="M87.453 183.976H139.912V181.75H87.453V183.976Z" fill="#114B5F"/>
<path d="M169.975 54.4153C171.647 54.4134 173.263 55.0163 174.526 56.1131C175.524 55.8403 176.57 55.7942 177.588 55.9784C178.43 54.754 179.642 53.8314 181.046 53.3455C182.449 52.8596 183.971 52.8359 185.389 53.2778C186.807 53.7197 188.047 54.6041 188.927 55.8017C189.808 56.9993 190.283 58.4474 190.282 59.9344H163.165C163.498 58.3728 164.355 56.9728 165.595 55.9682C166.834 54.9637 168.38 54.4155 169.975 54.4153Z" fill="#E2E2E2"/>
<path d="M129.179 76.3819C130.759 76.3801 132.287 76.9501 133.481 77.987C134.425 77.7291 135.414 77.6856 136.376 77.8597C137.173 76.7021 138.318 75.8299 139.645 75.3705C140.972 74.9112 142.411 74.8887 143.752 75.3065C145.092 75.7243 146.264 76.5603 147.097 77.6926C147.929 78.8248 148.378 80.1938 148.378 81.5997H122.741C123.055 80.1233 123.866 78.7997 125.038 77.85C126.21 76.9003 127.671 76.3821 129.179 76.3819Z" fill="#E2E2E2"/>
<path d="M88.3911 40.1513C90.0356 40.1494 91.6254 40.7425 92.8676 41.8214C93.8491 41.553 94.8782 41.5077 95.8794 41.6889C96.7083 40.4844 97.9001 39.577 99.2808 39.099C100.661 38.6211 102.159 38.5977 103.553 39.0324C104.948 39.4671 106.168 40.337 107.034 41.515C107.9 42.693 108.367 44.1175 108.367 45.5802H81.6924C82.0195 44.0441 82.8631 42.667 84.0823 41.6788C85.3016 40.6907 86.8226 40.1515 88.3911 40.1513Z" fill="#E2E2E2"/>
<path d="M264.518 109.143V164.744H286.113V108.371L281.1 108.55V97.1732H277.464L276.865 71.9764C278.332 71.0191 279.364 68.7454 279.364 66.0907C279.366 65.3285 279.277 64.5688 279.1 63.8276C279.795 63.0752 280.22 62.1136 280.31 61.0932C280.401 60.0728 280.15 59.0513 279.598 58.1886C280.06 58.5923 280.597 58.9003 281.178 59.0945C281.759 59.2888 282.373 59.3655 282.984 59.3203C283.595 59.2751 284.191 59.1087 284.738 58.831C285.284 58.5532 285.77 58.1696 286.167 57.7023C286.564 57.235 286.864 56.6934 287.051 56.109C287.237 55.5245 287.305 54.9088 287.252 54.2976C287.199 53.6864 287.025 53.0918 286.74 52.5485C286.456 52.0052 286.066 51.5238 285.594 51.1324C286.388 50.8393 287.086 50.334 287.613 49.6715C288.139 49.009 288.475 48.2147 288.582 47.3748C288.69 46.5348 288.566 45.6814 288.223 44.9073C287.88 44.1331 287.332 43.4678 286.638 42.9836C285.945 42.4994 285.131 42.2148 284.287 42.1608C283.443 42.1068 282.601 42.2854 281.851 42.6772C281.101 43.069 280.473 43.659 280.035 44.3832C279.596 45.1073 279.365 45.9379 279.364 46.7847C279.364 46.8526 279.367 46.9199 279.369 46.987C278.734 46.7926 278.064 46.7375 277.406 46.8253C276.747 46.913 276.115 47.1416 275.553 47.4956C274.99 47.8496 274.51 48.3206 274.146 48.8767C273.781 49.4328 273.541 50.0609 273.44 50.7184C272.863 50.3746 272.218 50.1607 271.55 50.0915C270.882 50.0223 270.207 50.0995 269.572 50.3177C268.937 50.536 268.357 50.89 267.872 51.3552C267.387 51.8204 267.009 52.3857 266.764 53.0118C266.52 53.638 266.414 54.3099 266.455 54.981C266.495 55.6522 266.681 56.3064 267 56.8983C267.318 57.4902 267.762 58.0056 268.299 58.4087C268.837 58.8119 269.455 59.093 270.112 59.2328C270.111 59.2664 270.109 59.2998 270.109 59.3336C270.539 60.6323 271.086 61.889 271.744 63.0882C271.422 64.0563 271.261 65.0705 271.266 66.0907C271.266 68.7454 272.299 71.0191 273.766 71.9763L273.167 97.1731H269.531V108.964L264.518 109.143ZM278.003 56.0513L278.015 56.0516C278.081 56.0516 278.148 56.0494 278.214 56.0466C278.255 56.1835 278.303 56.3176 278.357 56.4488C278.246 56.3096 278.128 56.1769 278.003 56.0513Z" fill="#E2E2E2"/>
<path d="M252.628 204.321H318.184V128.385H252.628V204.321Z" fill="#3F3D56"/>
<path d="M276.568 204.321H294.243V188.877H276.568V204.321Z" fill="#E2E2E2"/>
<path d="M230.78 28.4691C230.779 28.5251 230.776 28.5808 230.776 28.6371C230.775 29.6698 230.981 30.6922 231.383 31.6433C231.785 32.5945 232.374 33.455 233.114 34.1736C233.23 34.4206 233.359 34.6614 233.5 34.8948C232.964 36.5082 232.695 38.1986 232.704 39.8989C232.704 45.7632 235.725 50.5171 239.453 50.5171C243.18 50.5171 246.201 45.7632 246.201 39.8989C246.204 38.6286 246.056 37.3625 245.761 36.127C246.918 34.8731 247.628 33.2703 247.778 31.5697C247.928 29.8691 247.51 28.1666 246.591 26.7288C247.36 27.4016 248.255 27.9148 249.223 28.2385C250.192 28.5622 251.215 28.6901 252.234 28.6146C253.252 28.5392 254.245 28.262 255.156 27.7991C256.066 27.3362 256.876 26.6968 257.538 25.918C258.2 25.1392 258.7 24.2366 259.011 23.2625C259.321 22.2885 259.436 21.2623 259.347 20.2437C259.258 19.225 258.968 18.2342 258.494 17.3286C258.02 16.4231 257.371 15.6208 256.584 14.9685C257.907 14.4799 259.07 13.6378 259.948 12.5336C260.826 11.4295 261.385 10.1056 261.564 8.70567C261.744 7.30577 261.537 5.88343 260.965 4.59316C260.394 3.3029 259.481 2.19403 258.324 1.38703C257.168 0.580035 255.813 0.105763 254.406 0.0157317C252.999 -0.0742993 251.595 0.223356 250.345 0.876363C249.096 1.52937 248.049 2.51276 247.318 3.7197C246.587 4.92665 246.201 6.311 246.201 7.72237C246.201 7.83543 246.205 7.94761 246.209 8.05947C245.15 7.73557 244.034 7.64364 242.937 7.7899C241.839 7.93617 240.786 8.31721 239.848 8.90715C238.911 9.49709 238.111 10.2821 237.503 11.2089C236.896 12.1357 236.494 13.1826 236.327 14.2785C235.365 13.7055 234.29 13.349 233.177 13.2336C232.063 13.1183 230.939 13.2469 229.88 13.6106C228.821 13.9743 227.854 14.5643 227.046 15.3397C226.238 16.1151 225.609 17.0572 225.201 18.1008C224.793 19.1443 224.617 20.2643 224.685 21.3828C224.752 22.5014 225.062 23.5918 225.593 24.5783C226.124 25.5648 226.863 26.4238 227.759 27.0957C228.655 27.7676 229.686 28.2362 230.78 28.4691ZM243.951 23.1671C244.063 23.1671 244.173 23.1634 244.283 23.1587C244.352 23.3869 244.432 23.6104 244.521 23.8291C244.338 23.5971 244.141 23.3759 243.931 23.1666L243.951 23.1671Z" fill="#E2E2E2"/>
<path d="M235.596 103.287H243.309L243.034 91.7041V91.6997L242.024 49.2285C241.25 49.7023 240.36 49.953 239.452 49.953C238.545 49.953 237.655 49.7023 236.881 49.2285L235.871 91.6997V91.7041L235.596 103.287Z" fill="#114B5F"/>
<path d="M221.458 111.651V204.321H257.446V110.365L249.092 110.663V91.7041H229.811V111.353L221.458 111.651Z" fill="#114B5F"/>
<path d="M322.687 28.4691C322.685 28.5251 322.682 28.5808 322.682 28.6371C322.681 29.6698 322.888 30.6922 323.289 31.6433C323.691 32.5945 324.28 33.455 325.021 34.1736C325.136 34.4206 325.265 34.6614 325.406 34.8948C324.87 36.5082 324.601 38.1986 324.61 39.8989C324.61 45.7632 327.632 50.5171 331.359 50.5171C335.086 50.5171 338.107 45.7632 338.107 39.8989C338.11 38.6286 337.962 37.3625 337.667 36.127C338.825 34.8731 339.534 33.2703 339.684 31.5697C339.834 29.8691 339.417 28.1666 338.497 26.7288C339.266 27.4016 340.161 27.9148 341.13 28.2385C342.098 28.5623 343.122 28.6902 344.14 28.6147C345.158 28.5393 346.152 28.2621 347.062 27.7992C347.973 27.3362 348.782 26.6968 349.444 25.9181C350.106 25.1393 350.607 24.2367 350.917 23.2626C351.228 22.2885 351.342 21.2624 351.253 20.2437C351.165 19.225 350.875 18.2342 350.4 17.3286C349.926 16.4231 349.277 15.6208 348.491 14.9685C349.813 14.4799 350.976 13.6378 351.854 12.5336C352.732 11.4295 353.291 10.1056 353.471 8.70568C353.65 7.30578 353.443 5.88344 352.872 4.59317C352.3 3.3029 351.387 2.19403 350.23 1.38703C349.074 0.580034 347.719 0.105763 346.312 0.0157317C344.906 -0.0742994 343.501 0.223356 342.252 0.876363C341.002 1.52937 339.955 2.51276 339.224 3.7197C338.494 4.92665 338.107 6.311 338.107 7.72237C338.107 7.83543 338.111 7.94761 338.116 8.05947C337.057 7.73557 335.94 7.64364 334.843 7.7899C333.745 7.93617 332.692 8.31721 331.755 8.90715C330.817 9.49709 330.017 10.2821 329.41 11.2089C328.802 12.1357 328.401 13.1826 328.233 14.2785C327.271 13.7055 326.196 13.349 325.083 13.2336C323.97 13.1183 322.845 13.2469 321.786 13.6106C320.728 13.9743 319.761 14.5643 318.953 15.3397C318.145 16.1151 317.515 17.0572 317.107 18.1008C316.699 19.1443 316.523 20.2643 316.591 21.3828C316.659 22.5014 316.969 23.5918 317.5 24.5783C318.03 25.5648 318.769 26.4238 319.665 27.0957C320.561 27.7676 321.592 28.2362 322.687 28.4691ZM335.858 23.1671C335.969 23.1671 336.079 23.1634 336.19 23.1587C336.259 23.3869 336.338 23.6104 336.428 23.8291C336.244 23.5971 336.047 23.3759 335.838 23.1666L335.858 23.1671Z" fill="#E2E2E2"/>
<path d="M327.502 103.287H335.215L333.929 49.2305C332.268 49.8284 330.45 49.8284 328.788 49.2305L327.502 103.287Z" fill="#114B5F"/>
<path d="M313.364 111.651V204.321H349.356V110.365L346.4 110.471L340.998 110.663V91.7041H321.717V111.353L313.364 111.651Z" fill="#114B5F"/>
<path d="M295.186 146.452H304.078V137.549H295.186V146.452Z" fill="white"/>
<path d="M280.96 146.452H289.852V137.549H280.96V146.452Z" fill="white"/>
<path d="M266.734 146.452H275.625V137.549H266.734V146.452Z" fill="white"/>
<path d="M295.186 160.697H304.078V151.794H295.186V160.697Z" fill="white"/>
<path d="M280.96 160.697H289.852V151.794H280.96V160.697Z" fill="white"/>
<path d="M266.734 160.697H275.625V151.794H266.734V160.697Z" fill="white"/>
<path d="M295.186 174.941H304.078V166.038H295.186V174.941Z" fill="white"/>
<path d="M280.96 174.941H289.852V166.038H280.96V174.941Z" fill="white"/>
<path d="M266.734 174.941H275.625V166.038H266.734V174.941Z" fill="white"/>
<path d="M235.007 142.891H243.898V133.988H235.007V142.891Z" fill="white"/>
<path d="M235.007 157.136H243.898V148.233H235.007V157.136Z" fill="white"/>
<path d="M235.007 171.38H243.898V162.477H235.007V171.38Z" fill="white"/>
<path d="M235.007 185.625H243.898V176.722H235.007V185.625Z" fill="white"/>
<path d="M326.839 142.891H335.73V133.988H326.839V142.891Z" fill="white"/>
<path d="M326.839 157.136H335.73V148.233H326.839V157.136Z" fill="white"/>
<path d="M326.839 171.38H335.73V162.477H326.839V171.38Z" fill="white"/>
<path d="M326.839 185.625H335.73V176.722H326.839V185.625Z" fill="white"/>
<path d="M394.777 204.008H0V204.898H394.777V204.008Z" fill="#3F3D56"/>
</svg>
