<svg width="100%" height="100%" viewBox="0 0 70 70" fill="none" xmlns="http://www.w3.org/2000/svg">
<path d="M69.0514 27.1277V27.1293C67.9417 29.688 65.6489 32.1147 63.1074 33.6891C61.299 34.8106 59.3647 35.5006 57.6391 35.5006L54.5817 24.4537V64.9646C54.5817 64.9646 49.8136 69.9986 34.9364 69.9986C28.0705 69.9986 23.358 68.9257 20.2738 67.7716C16.6737 66.4247 15.291 64.9646 15.291 64.9646V24.4537L12.2336 35.5006C9.63377 35.5006 6.55974 33.9348 4.15808 31.6891C2.7252 30.3481 1.53105 28.7651 0.821289 27.1293V27.1277C3.54231 17.1766 6.32796 10.7225 6.32796 10.7225C11.8223 5.22812 20.4239 2.16797 20.4239 2.16797H49.4488C49.4488 2.16797 58.0504 5.22812 63.5448 10.7225C63.5448 10.7225 66.3304 17.1766 69.0514 27.1277Z" fill="#D1495B"/>
<path d="M27.8777 2.16797L23.2266 7.43805C18.2679 8.12218 5.29242 12.745 4.15808 31.6891C2.7252 30.3481 1.53105 28.7651 0.821289 27.1293V27.1277C3.54231 17.1766 6.32796 10.7225 6.32796 10.7225C11.8223 5.22812 20.4239 2.16797 20.4239 2.16797H27.8777Z" fill="#141414" fill-opacity="0.1"/>
<path d="M13.6446 30.401L12.2331 35.5023C8.08189 35.5023 2.72049 31.5081 0.820312 27.1294V27.1283C1.56746 24.3923 2.32155 21.9212 3.0201 19.7754C5.84579 28.8026 13.5218 30.3754 13.6446 30.401Z" fill="#CCE6F6"/>
<path d="M4.15813 31.6895C4.31834 29.0107 4.71568 26.6186 5.29353 24.4835C4.40112 23.1996 3.60645 21.6492 3.02005 19.7773C2.3215 21.9227 1.56902 24.3927 0.820801 27.1281V27.1297C1.5311 28.7655 2.72525 30.3485 4.15813 31.6895Z" fill="#141414" fill-opacity="0.1"/>
<path d="M63.1076 33.6888C61.2993 34.8103 59.3649 35.5004 57.6394 35.5004L54.5819 24.4534C54.5819 24.4534 53.9394 18.865 56.222 16.1562L63.1076 33.6888Z" fill="#141414" fill-opacity="0.1"/>
<path d="M69.0525 27.1283V27.1294C67.1507 31.5081 61.7893 35.5023 57.6381 35.5023L56.2266 30.401C56.3494 30.3754 64.0254 28.8026 66.8511 19.7754C67.5507 21.9212 68.3037 24.3923 69.0525 27.1283Z" fill="#CCE6F6"/>
<path d="M60.9422 28.1758C58.4871 29.9339 56.3055 30.3846 56.228 30.4007L57.639 35.4998C59.3645 35.4998 61.2989 34.8098 63.1072 33.6883L60.9422 28.1758Z" fill="#141414" fill-opacity="0.1"/>
<path d="M20.2738 21.1387V67.771C16.6737 66.4241 15.2905 64.964 15.2905 64.964V24.453C15.2905 24.453 16.0852 21.1387 20.2738 21.1387Z" fill="#141414" fill-opacity="0.1"/>
<path d="M54.5816 60.1816V64.9647C54.5816 64.9647 49.8136 70.0003 34.9363 70.0003C28.0705 70.0003 23.358 68.9274 20.2738 67.7733C16.6737 66.4248 15.291 64.9647 15.291 64.9647V60.1816C15.291 60.1816 16.6737 61.6418 20.2738 62.9892C23.358 64.1433 28.0705 65.2162 34.9363 65.2162C49.8136 65.2162 54.5816 60.1816 54.5816 60.1816Z" fill="#CCE6F6"/>
<path d="M20.2738 62.9892V67.7733C16.6737 66.4248 15.2905 64.9647 15.2905 64.9647V60.1816C15.2905 60.1816 16.6737 61.6418 20.2738 62.9892Z" fill="#141414" fill-opacity="0.1"/>
<path d="M49.4493 2.16721C49.4493 6.02684 42.9509 12.4014 34.9368 12.4014C26.9212 12.4014 20.4238 6.02684 20.4238 2.16721C20.4238 2.16721 21.0941 1.9445 22.2685 1.64009C24.7524 0.998688 29.4937 0 34.9368 0C40.3778 0 45.1224 0.998688 47.6052 1.64009C48.7791 1.9445 49.4493 2.16721 49.4493 2.16721Z" fill="#CCE6F6"/>
<path d="M47.6053 1.64009C47.4435 5.06126 41.8338 10.5284 34.9369 10.5284C28.038 10.5284 22.4298 5.06126 22.2686 1.64009C24.7525 0.998688 29.4938 0 34.9369 0C40.3779 0 45.1225 0.998688 47.6053 1.64009Z" fill="#141414" fill-opacity="0.2"/>
<path d="M36.6038 5.05865H33.2686C32.6768 5.05865 32.1973 4.57907 32.1973 3.98734C32.1973 3.3956 32.6768 2.91602 33.2686 2.91602H36.6038C37.1955 2.91602 37.6751 3.3956 37.6751 3.98734C37.6751 4.57907 37.1955 5.05865 36.6038 5.05865Z" fill="#CCE6F6"/>
</svg>
